<?xml version="1.0" encoding="UTF-8"?>
<svg version="1.1" viewBox="0 0 1480 1480" width="370" height="370" xmlns="http://www.w3.org/2000/svg">
<path transform="translate(701,49)" d="m0 0h25l11 1 32 1 68 5 28 3 36 6 42 9 36 10 25 9 23 11 15 10 10 8 12 12 10 15 9 19 7 23 10 43 8 41 7 31 12 73 4 32 1 15 3 5 8 6 5 4 6 10 3 12-1 16-4 12-6 8-9 6-10 5-4 16-6 18-11 23-8 12-12 14-13 12-11 7-22 11 4 4 14 7 5-1 9-5 4-2 6-1h8l19 4 18-2 44-2 25-1h34l10 2 10 6 8 7 7 10 5 10 3 15v11l-2 13-6 12-7 9-8 7-9 4-15 3-22 2-81 3-9 7-6 2-29 3 6 67 9 80 4 29 5 29v16l-4 13-6 9-7 7-10 5-11 3-22 3h-43l-13-5-2-2h-8l-14 2-25 1h-63l1 57 10 3 10 7 6 9 2 5 1 9-2 12-6 12-8 8-16 8h-2l1 16 1 41 1 16 5 18v17l-5 13-10 15-13 18-9 13-13 18-9 12-11 12-10 10-8 7-9 9-13 10-19 12-25 12-22 9-25 6-32 6-34 4h-17l-7-4-6-10v-6l7-12 28-30 11-14 7-10 10-18 2-10h-8l-16 4-9 6-11 11-9 11-12 14-10 8-15 8-14 4h-16l-8-4-7-7-7-14-1-3v-19l2-10v-9l-12-3-12-7-9-8-7-11-6-12-5-17v-19l3-10 6-11 6-8 14-11 19-11 1-3-5-21-4-24v-7l-2 1h-45l-8-3-8-7-5-10-3-11 1-11 5-13 9-10 19-9 5-10 9-27 9-17 9-12 7-8 11-9 23-12 22-11 10-8 8-11 5-14 2-10v-54l-2-21-2-31-5-25-10-30-8-19-12-21-11-16-16-21-13-19-5-7-10-5-26-11-24-11-11-7-10-9-7-7-11-14-12-18-8-15-6-18-3-16-9-4-17-8-7-7-4-8-2-9v-13l2-11 6-11 11-11 10-6 3-7 4-26 10-76 5-34 6-29 11-51 9-40 6-18 8-15 11-13 8-9 11-9 13-8 14-7 22-8 32-10 36-8 25-4 38-4 55-3zm-109 1086-11 1 2 4 16 15 15 15 7 5 3 1h11l4-2-3-5-33-33-2-1z" fill="#0B1332"/>
<path transform="translate(656,81)" d="m0 0h107l65 5 21 2 29 4 25 5 37 8 39 12 16 6 17 8v2l6 2 9 7 8 7v2l4 2 7 10 7 15 6 20 9 37 3 11-1 5-10 1-4 5-1 5v9l1 9h-3l-8-9-8-4v-4l8 1 5 1-1-6-3-6-7-1-5 2-3 5-1 12 1 5 9 3 5 3v6l-2 2h-13l6 10 1 1h12l4-4 2-9 2-1 5 9 3 2 9-1 2-2 4 1 3 10 9 56v9l-20 4-33 8-45 8-57 8-16 3-42 5-25 2-62 3-29 1h-135l-62-4-82-8-26-4-37-8-12-4-1 22-2 7h-2l3 3 15 5 30 7 37 6 44 5 40 3 50 2h158l50-2 68-5 50-5 36-6 26-6 44-7 35-6h8v10l-9 3-39 8-11 3-11 2-31 6-17 3-24 4-21 2v2l-21 2-36 3-49 2-60 2h-110l-59-1-37-1-28-2-64-8-50-8-11-2h-12v2l3 1v3l-7-1-3-3v-19l2-9 3-34 5-43 6-38 11-57 4-21 2-9 9-38 5-15 7-12 11-12 8-7 10-6 11-6 14-5 7-3 13-4 22-5 14-4 27-5 23-3 21-2 23-1z" fill="#FBFBFC"/>
<path transform="translate(531,648)" d="m0 0 10 1 47 6 25 2 57 3h90l53-2 29-2 35-4h5l1 4-4 2v2l-11 7-14 11-10 9-7 8-7 11-10 25-4 14-4 26-1 17v110l2 20 4 17 7 12 3 3v3l-7 2 3 12-1 5 2 4 17 2 2 2v80l-2 2-316 1-33-1 1-9 5-16 7-14 2-3h2l2-5 5-4 3-3 5-4 11-6 10-5 7-3 11-6 14-9 10-9 8-11 6-14 3-9 2-7 3-24v-27l-3-72-2-17-4-20-9-24-5-10-10-19-12-19-10-14-13-17-7-8v-2l-3-1z" fill="#FBFCFC"/>
<path transform="translate(1093,509)" d="m0 0 2 1-2 8-3 8-2 1-18 2-20 4-25 6-37 6-32 4-31 3-5 2-24 3-59 5-50 3-37 2h-64l-50-2-85-6-41-4-65-8-19-2 4 11 6 9 8 5 24 4 41 5 89 7 67 4h92l89-6 55-3 29-4 84-13 30-6 31-8h2l-1 5-8 12-13 13-11 7-12 6-20 7-32 8-26 5-49 7-66 7-25 2-65 3h-65l-48-2-44-4-69-9-24-4-21-6-20-8-14-8-7-6-4-2-5-5-11-12-7-10-7-15-6-17v-6l6 1 43 6 82 10 43 4 53 3 50 2h75l79-3 35-2 60-6 17-1 106-14 43-8z" fill="#F8F9FA"/>
<path transform="translate(877,652)" d="m0 0h5l1 4-4 2v2l-11 7-14 11-10 9-7 8-7 11-10 25-4 14-4 26-1 17v110l2 20 4 17 7 12 3 3v3l-7 2 3 12-1 5 2 4 17 2 2 2v80h-1l-1-79h-33l-49 1h-17l-6-2-1-6v-52l-1-63-1-101-2-11-12-13-13-10-14-9-11-7-2 9-4 10-6 11-7 7-11 6-8 2h-11l-11-2-14-9-7-10-6-12-2-11 1-14 4-10 4-8 10-9 8-4 6-2v-1l-8-2v-1h20l33 2h90l53-2 29-2z" fill="#CADDEA"/>
<path transform="translate(644,1132)" d="m0 0 9 1 64 1h121l1 2v10l-1 1-77 1-28 1-5 2-4 8v5l4 4 7 2 102 1 2 2v45l-1 9 8 6 3 3v5l-8 12-10 11-12 19-11 16-11 13-7 8-14 15-13 12-16 12-15 9-16 8-20 8-15 4-14 3-17 3-11 3-5 1v-3l1-2h2l2-5 7-10h2l2-5 7-9 10-14 6-10 10-19 6-13 2-13 2-4h2v-3h2l1-3 4-2h3l1-7-3-8-3-29-2-11h2v2l50-3 6-1-1-4 1-3-15-4v-2l-11-1-9-1-28-1-6-9-9-21-8-15-4-5v-2l-3-1-9-11-11-12z" fill="#C9DCE9"/>
<path transform="translate(1085,371)" d="m0 0 6 2 2 3 4 25v7l-49 8-37 6-26 6-36 6-63 6-55 4-50 2h-158l-50-2-40-3-44-5-37-6-34-8-13-5-1-3h2l2-23 1-6 16 4 38 8 30 4 73 7 62 4h135l71-3 34-2 37-4 29-4 10-2 50-7 45-8z" fill="#C92531"/>
<path transform="translate(659,959)" d="m0 0 3 3 1 4 3 1 3 11 9 3 39 12 12 4h4l1-3 1-15 7 2h21l45-1h33l1 1v80l-1 1-316 1-33-1v-5l1 4h42l23-1 8-1-23-5-3-4 1-10 5-9h2l2-4 14-10 22-12 23-11 21-11 11-8 4-2 3-3 8-6 1-4z" fill="#CADDEA"/>
<path transform="translate(847,101)" d="m0 0 20 2 27 4 37 8 38 11 30 10 26 10 7 3 5 5h3l7 11 7 16 6 21 8 33 3 11-1 5-10 1-4 5-1 5v9l1 9h-3l-8-9-8-4v-4l8 1 5 1-1-6-3-6-7-1-5 2-3 5-1 12 1 5 9 3 5 3v6l-2 2h-13l-1-2-2-14-4-19-1-1h-16l-5 1 2 15-1 9-3-1-2-9-1-9-1-4-13-2-2-3-2-14-11-1 2 15 2 8v15h-2l-2-4-2-11-2-3h-24l-3-1-2-7-1-11h-7l1 34-2-2-1-21v-14l-2-5-4-20-8-25-6-16-9-19-11-16-9-10-11-10-10-6-7-5z" fill="#CBDEEB"/>
<path transform="translate(926,236)" d="m0 0 7 1 3 16v2h27l3 4 2 11 1 4h2l-2-21-1-2-1-15h11l2 6 1 9 1 2 9 1 4 2 2 4 2 16 3 3v-9l-2-15 6-2h16l3 5 3 16 3 18 6 9h12l4-4 2-9 2-1 5 9 3 2 9-1 2-2 4 1 3 10 9 56v9l-20 4-33 8-45 8-50 7h-7l-1-2-2-42-3-30v-13l-14-1-6-3-4-8-1-4v-10l5-2 6 1 2 3v10h8l2-1v-9l-2-13-2-27v-10z" fill="#CADDEA"/>
<path transform="translate(1088,526)" d="m0 0 1 2-6 16-5 8-1-2-21 6-26 6-33 6-55 8-32 5-25 2-55 3-73 5h-92l-67-4-89-7-55-7-12-3-8-6-6-10-2-9h12l63 8 39 4 51 4 45 3 50 2h64l73-4 63-5 29-3 9-2 1-1 41-4 48-7 29-6 10-3 23-4z" fill="#7E8599"/>
<path transform="translate(1075,550)" d="m0 0h2l-1 5-8 12-13 13-11 7-12 6-20 7-32 8-26 5-49 7-66 7-25 2-65 3h-65l-48-2-44-4-69-9-24-4-21-6 3-2-4-5-10-6-3-3v-2l-4-2-4-4v-2l8 2 12 5 30 7 44 8 35 4 49 3 24 1h41l64-3 32-3 39-6 40-8 22-6-3-1-8-1v-1l25-2 39-6 60-9 35-7z" fill="#ADC5DA"/>
<path transform="translate(600,265)" d="m0 0h8l9 3 26 4h31l13-2 17-3 8-2h15l8 4 7 7 4 8 1 4v12l-5 18-9 17-9 12-3 1-2 4h-2l-2 4-8 6-7 5-14 6-14 3h-17l-17-2-13-5-12-7-5-5-6-5-3-4v-2h-2l-1-4h-2v-3h-2v-3h-2l-3-9h-2l-4-13-2-5-1-18 3-12 6-8 6-4z" fill="#0B1331"/>
<path transform="translate(702,1249)" d="m0 0h1l1 6h25l20-1h39l19 2 23 5 1 3-12 19-11 16-11 13-7 8-14 15-13 12-16 12-15 9-16 8-20 8-15 4-14 3-17 3-11 3-5 1v-3l1-2h2l2-5 7-10h2l2-5 7-9 10-14 6-10 10-19 6-13 2-13 2-4h2v-3h2l1-3 4-2h3l1-7-3-8z" fill="#CADDEA"/>
<path transform="translate(507,147)" d="m0 0h26l11 3 13 7 10 9 8 9 6 11 3 7 2 9v18l-3 11-5 13-8 11-8 8-11 7-7 4-12 3h-16l-11-3-9-4-11-7-8-8-1-4h-2l-2-6h-2l-6-14-2-10v-28l5-14 6-11 7-8 14-9z" fill="#0B1332"/>
<path transform="translate(1115,458)" d="m0 0h6l4 6v8l-6 4-15 4-30 5-19 3-45 7-35 5-31 5-38 4-23 2-60 3-34 1h-132l-50-1-49-3-20-2-2-1-9-1-21-1-11-2-21-2-37-6-3-1-17-2-1-1-17-2-16-3-14-4-9-6-2-3v-6l1-2h2v-2h9l39 8 49 8 55 8 54 6 23 2 33 2 26 1h96l46-1 47-2 29-2 23-2 47-4 33-4 52-8 45-8 37-8z" fill="#EFF2F4"/>
<path transform="translate(785,146)" d="m0 0h21l9 3 13 6 10 7 8 8 7 11 5 13 1 4v19l-3 16-7 14-7 9-5 4-4 5-14 9-13 4h-13l-16-4-14-7-10-9-5-6v-2h-2l-7-14-3-17v-20l3-13 6-12 9-11 10-8 11-6z" fill="#0B1332"/>
<path transform="translate(946,666)" d="m0 0h31l8 2 7 5 1 4h2l6 11 3 9 1 7 1 17 1 79v26l-1 82-1 15-3 9-8 13-2 5h-2l-2 5-11 12-10 7-9 2h-31l-45-1-2-10-4-11-2-4 30-2 28-1 15-3 8-5 7-7 9-14 8-16 2-6 1-7v-20l-4-46-5-45-1-21v-57l-2-7-6-5-7-3-6-1-36-1-10-1-1-3 3-2h3v-2l10-6 13-2z" fill="#F4F5F7"/>
<path transform="translate(881,713)" d="m0 0h25l20 1 6 2 3 8v56l-1 24-1 2h-2l-2 5h-2l-2 5-8 6-5 5-9 4h-54l-8-1v-24l2-33 3-22 5-16 9-19 3-2z" fill="#ACC3D9"/>
<path transform="translate(1098,409)" d="m0 0h1v10l-1 2 1 10-2 2-34 8-36 7-49 8-61 7-47 5-39 2-54 1-44 2h-99l-70-5-46-5-23-3-10-2-23-3-25-4-30-5-9-1 3-1-1-3-2-1v-2l2-1h10l41 7 50 7 43 5 19 1 37 1 59 1h110l90-3 32-2 38-3h6v-2l2-1 25-3 18-3 33-6 24-5 11-2 12-3 37-8z" fill="#BA1321"/>
<path transform="translate(1014,652)" d="m0 0h6l8 3v2l5 2 3 3v2l3 1 4 9 2 15 4 67 1 1 2 52 3 36 6 55 5 35 2 10 1 10 2 10-1 7-10 6-19 3h-33l2-4 11-14 8-16 3-11 3-31 2-24v-39l-1-20-2-69-1-7-2-52-3-15-5-12-6-8v-2h-2z" fill="#F5F7F8"/>
<path transform="translate(597,1088)" d="m0 0h201l71 1 1 2 1 13-1 1-205 1h-192l-14-1 1-9 3-6 2-1z" fill="#F3F5F7"/>
<path transform="translate(1088,526)" d="m0 0 1 2-6 16-5 8-1-2-21 6-26 6-33 6-55 8-32 5-25 2-55 3-26 2h-22v-2l10-1-2-2 6-1 17-1 9-3 16-2 9-3-1-4-11-2 3-3 9-2 15-3 53-5 9-2 1-1 41-4 48-7 29-6 10-3 23-4z" fill="#747D93"/>
<path transform="translate(628,662)" d="m0 0h11l16 6 4 2 9 9 7 11 4 11v13l-1 7-9 17-7 7-11 6-8 2h-11l-11-2-14-9-7-10-6-12-2-11 1-14 4-10 4-8 10-9 8-4z" fill="#0B1331"/>
<path transform="translate(941,821)" d="m0 0h2l3 13 4 35v20l-3 9-7 10-6 7-6 4-8 2h-78l-1-3v-47l49-3 13-2 13-5 14-8 5-4 3-5 2-7z" fill="#F6F7F8"/>
<path transform="translate(644,1132)" d="m0 0 9 1 64 1h121l1 2v10l-1 1-77 1-28 1-5 2-4 8v5l4 4 3 2-5 1 6 12 8 19 3 5 5 3 1 4h-8l-20-3-28-1-6-9-9-21-8-15-4-5v-2l-3-1-9-11-11-12z" fill="#A9BFD4"/>
<path transform="translate(904,679)" d="m0 0h2v2l29-1h21l12 3 13 10 6 9 2 8 1 12v112l-1 17v71l-2 14-6 12-3 4-9-1-2 5h-3v2l-4 1-6 3-7 3-14 4-8 1-3 3h45l-2 2-7 1h-31l-45-1-2-10-4-11-2-4 30-2 28-1 15-3 8-5 7-7 9-14 8-16 2-6 1-7v-20l-4-46-5-45-1-21v-57l-2-7-6-5-7-3-6-1-36-1-10-1z" fill="#AAC1D7"/>
<path transform="translate(602,1214)" d="m0 0h26l11 3 11 4 9 6 8 8 4 7 1 4v9l-3 10-6 10-7 7-9 3-19 3h-13l-11-3-14 7-8 9-8 16h-2l-2 5-8 14-10 11-4 1v2l-2 1h-7l-3-4v-10l9-22 6-4 7-3 9-4h2v-2l8-4 7-6 11-19 5-15 1-5v-19l-2-10v-8z" fill="#ADC4DA"/>
<path transform="translate(1085,371)" d="m0 0 6 2 2 3 4 25v7l-49 8-37 6-26 6-36 6h-14l-3-2h2l1-33 9-2 50-7 45-8z" fill="#8F0D20"/>
<path transform="translate(527,1213)" d="m0 0 13 1 10 3 9 6 7 10 4 10v13l-4 12-4 6-3 3-16 4-10 3-5 3-9 1-9-3-7-5-5-6-4-7v-2h-2l-3-12 1-11 3-6 6-8 7-6h2v-2l10-5z" fill="#FAFAFB"/>
<path transform="translate(1220,656)" d="m0 0h13l7 8 3 9v17l-4 8-6 4-18 2-50 2-4-2 1-8h2l1-4-4-1h-12l-9 1-2-1-2-18-4-14 66-2z" fill="#91252E"/>
<path transform="translate(731,1283)" d="m0 0h8l-1 5-6 15-8 17-10 16-11 13-8 10-11 12-10 10-1 4 6 1-4 2-11 1v2l-25 6-5 1v-3l1-2h2l2-5 7-10h2l2-5 7-9 10-14 6-10 10-19 6-13 2-13 2-4h2v-3h2l1-3z" fill="#F9FAFB"/>
<path transform="translate(756,1228)" d="m0 0h84l9 8v5l-8 12-9 10h-2v-2l-13-2-16-3-13-1h-39l-20 1h-25l-2-7-2-10v-8l39-2z" fill="#FAFBFB"/>
<path transform="translate(1093,509)" d="m0 0 2 1-2 8-3 8-2 1-18 2-20 4-25 6-37 6-32 4-31 3-5 2-13 2h-11v-1l22-3 4-1 1-2 1-12-1-1-15 1-39 4-27 2-90 4h-82l-19-1v-2h98l79-3 35-2 60-6 17-1 106-14 43-8z" fill="#C7DAE7"/>
<path transform="translate(883,715)" d="m0 0h47l3 3 2 6v56l-1 24-1 2h-2l-2 5h-2l-2 4h-2l2-4 4-6 1-3v-7l-2-12-1-21-3-16-4-14-2-3-8-1-4 16-3 28-2 21-2 32 3 1 3 3-5 1h-19l-1-1 2-50z" fill="#F9FAFA"/>
<path transform="translate(478,297)" d="m0 0h21l10 2 10 5 7 8 2 6-1 9-7 9-8 4-4 1-13 1h-19l-12-2-8-4-5-6-2-5v-11l3-6 7-6 7-3z" fill="#DF656A"/>
<path transform="translate(702,1249)" d="m0 0h1l1 6h25l20-1h39l19 2 23 5 1 3-6 10-2-1-6 2-26 2-29 2-18 3-31 2h-11l3-1 1-7-3-8z" fill="#747D93"/>
<path transform="translate(816,297)" d="m0 0h30l12 3 10 5 5 7 1 3v7l-4 8-8 7-9 3-6 1h-24l-12-2-6-3-7-8-2-4v-11l4-7 7-6z" fill="#DF656A"/>
<path transform="translate(1115,458)" d="m0 0h6l4 6v8l-6 4-15 4-30 5-19 3-45 7-35 5-31 5-26 3h-9v-2l19-2 11-2v-5l-3-1 12-3 30-3 7-2 14-2v-2l-18 1h-11v-1l52-8 45-8 37-8z" fill="#C0D3E1"/>
<path transform="translate(1072,552)" d="m0 0h4l-1 5-8 11-12 12-11 7-12 6-20 7-32 8-26 5-49 7-47 5h-25l2-4 5-1 16-1 9-1 1-3 8-1 16-4 10-2 13-4 13-2 8-3 18-1 1-2 8-1v-2h9l5-1 15-1 25-3 17-4 8-5 7-4 5-3 1-2h2l1-5h-2v-2l-5-2-1-2 13-4z" fill="#C4D7E5"/>
<path transform="translate(910,728)" d="m0 0h8l3 4 6 23 1 7 1 21 2 12v7l-3 6-5 7 2 1-8 6-5 5-9 4h-23l-6-1v-2h3l2-15 2-45 1-38h1v49l-2 50h19l1-3-2-1v-15l2-28 2-17 2-21 3-13z" fill="#CBDEEB"/>
<path transform="translate(665,1156)" d="m0 0 7 2 19 5 7 1 6 2 11 1 3 1h2v2h5l4 6 10 24 4 7 5 3 1 4h-8l-20-3-28-1-6-9-9-21-8-15-5-7z" fill="#FBFCFC"/>
<path transform="translate(802,953)" d="m0 0h23v1l-5 1 3 12-1 5 2 4 17 2 2 2v80h-1l-1-79h-33l-49 1h-17l-6-2v-18l1-6 2-1 22-1z" fill="#788197"/>
<path transform="translate(602,1214)" d="m0 0h26l11 3 11 4 9 6 8 8 3 5v13l-2 1-45 1-10 1h-4l-1 2h-5l-1-21-3-13v-8z" fill="#FBFBFC"/>
<path transform="translate(1036,804)" d="m0 0 2 4 3 54 3 21 7 43 6 42v9l3 1-19 3h-33l2-4 11-14 8-16 3-11 3-31 2-24v-39l-1-20z" fill="#ABC1D7"/>
<path transform="translate(1098,409)" d="m0 0h1v10l-1 2 1 10-2 2-34 8-36 7-49 8-78 9h-9v-1l19-3 20-2 4-2 1-8 2-1 25-3 18-3 33-6 24-5 11-2 12-3 37-8z" fill="#8B0E22"/>
<path transform="translate(967,236)" d="m0 0h11l2 6 1 9 1 2 9 1 4 2 2 4 2 16 3 3v-9l-2-15 6-2h16l3 5 3 16 2 16v13h-7l-2-5-3-27v-4h-6v16l3 21h-10l-2-6v-10l-2 1-1 16h-6l-3-19-2-16-6-2 2 38h-8l-1-1-2-16-3-21-2-15-1-2z" fill="#05081E"/>
<path transform="translate(1090,408)" d="m0 0h8v10l-9 3-39 8-11 3-11 2-31 6-17 3-24 4-8 1h-10l-1-10h3l2-2-1-2 33-5 48-10 58-9z" fill="#ACC4D9"/>
<path transform="translate(456,581)" d="m0 0 8 2 12 5 30 7 44 8 35 4 32 2v1h-21l-24-2h-17l-4 4h7l9 2 13 3 5 2 23 2 19 3h17l19 1 1 3h5v1h-18l-20-1-21-2-27-1-73-10-16-3-16-5 3-2-4-5-10-6-3-3v-2l-4-2-4-4z" fill="#C7DAE8"/>
<path transform="translate(662,314)" d="m0 0h8l15 3 15 6 5 5-1 4-4 5-11 7-14 5-5 1h-15l-10-3-12-6-9-7v-5l5-4 14-7 11-3z" fill="#C5222E"/>
<path transform="translate(874,869)" d="m0 0h13v2h-6l-2 12-4 8-3 9v7l-4 8h-2v3l4 1 15 1v1h-43l-1-3v-47z" fill="#A9C0D6"/>
<path transform="translate(507,173)" d="m0 0h14l8 5 3 2 4 9v12l-3 6-5 6-9 4h-13l-4-1v-2l-4-2-6-7-2-4v-11l4-8 8-7z" fill="#F8F9FA"/>
<path transform="translate(782,173)" d="m0 0h12l8 5 5 9v12l-6 11-5 5-6 2h-12l-7-3-6-7-2-5v-11l2-5h2l1-4 4-2 1-3z" fill="#F8F9FA"/>
<path transform="translate(1014,566)" d="m0 0 3 1-2 4-11 4-13 5-12 3v4l-15 2-10 4h-3l-13-2-3-1-5 1h-3l-6 1-14 2-6 1-5-1 2-1-2-4-8 1-10 1 4-2 14-4-3-1-8-1v-1l27-1 32-5 26-4 40-5z" fill="#CBDEEB"/>
<path transform="translate(1074,654)" d="m0 0h10l7 3 8 5 8 8 4 8v17l-3 11-3 7-6 2-11 2h-4l1-12v-21l-5-19-6-8z" fill="#F7F8F9"/>
<path transform="translate(935,680)" d="m0 0h21l12 3 13 10 6 9 2 8 1 12v112l-2 27h-1l-1-54-1-24 1-2-2-1-2-12-1-1v-7h-2l-4-11-1-54-5-6-7-4-14-3-13-1z" fill="#B0C8DD"/>
<path transform="translate(904,679)" d="m0 0h2v2h42l16 4 8 6 3 4 1 54 3 8v3h2l1 7 2 7 2 10 1 23v54l-1 34-1 6-6 3 3-15v-20l-4-46-5-45-1-21v-57l-2-7-6-5-7-3-6-1-36-1-10-1z" fill="#7F879B"/>
<path transform="translate(1039,251)" d="m0 0 7 1 3 4 2 7-1 2-13-1 1 3 8 4 8 9 1-2-1-7v-9l2-7 4-4h9l1 4-2 10-1-2h-6l1 14 2 8 6 1 4 4v2h2l-1 5-4 2h-6l-5-5-4-6-2 9-5 5h-12l-4-5-3-5v-2l13-1 1-1v-6l-9-4-4-2-2-5 1-12 4-6z" fill="#05081F"/>
<path transform="translate(534,1148)" d="m0 0 6 1 8 8 8 7 7 7 5 6v2h2l5 7v3h2v3h2l2 4v3h2l5 10-7-1v-2l-4-1-6-3v-2l-5-1v-2l-4-1-10-4-4-2v-2h-3l-6-9-5-10-4-12 3-8z" fill="#F4F6F7"/>
<path transform="translate(704,1136)" d="m0 0h133l1 2v8h-110v-2l-17-4-7-3z" fill="#FBFCFC"/>
<path transform="translate(584,1294)" d="m0 0 1 3-8 13-3 7h-2l-2 5-8 14-10 11-4 1v2l-2 1h-7l-3-4v-10l9-22 6-4 7-3 9-4h2v-2l8-4 2-2z" fill="#F5F6F8"/>
<path transform="translate(926,236)" d="m0 0 7 1 2 11 5 42v12l-5 6-3 1h-18l-4-3-4-11v-10l5-2 6 1 2 3v10h8l2-1v-9l-2-13-2-27v-10z" fill="#070A20"/>
<path transform="translate(550,1062)" d="m0 0 281 1-3 3-9 1h-44l-8-1h-39l-33 1h-101l-61-1h-14l-19-1-3-2z" fill="#05071C"/>
<path transform="translate(403,444)" d="m0 0h15l7 2 20 3 12 2 19 2 1 1 11 1h14v2h3v2h9l19 2 1 1 39 2 6 2 45 3 9 1h100l42-2 70-1 32-2h14v1l-36 3-24 1-54 1-44 2h-99l-70-5-46-5-23-3-10-2-23-3-25-4-34-6z" fill="#8E0B1F"/>
<path transform="translate(633,689)" d="m0 0 9 2 6 5 5 10v8l-4 8-6 6-8 1-8-4-8-9-1-2v-11l5-8 6-5z" fill="#ACC4D9"/>
<path transform="translate(453,132)" d="m0 0h3l-2 4-9 10-8 16-8 30-5 25-3 12-12 63-6 36-3 24-2 5-3-2v-11l3-15 1-14 2-10v-7l3-14 3-13 2-13 4-15 2-15 3-12 6-26 2-5 3-13 3-7 4-8 3-8 7-10 4-4h2z" fill="#05081E"/>
<path transform="translate(527,1213)" d="m0 0 13 1 10 3 9 6 7 10 4 10v13l-4 12-4 6-3 3-16 4h-5l6-7 5-10 3-9v-12l-4-21-2-4-8-2-16-1v-1z" fill="#ACC2D8"/>
<path transform="translate(904,873)" d="m0 0h9l6 4 6 7 3 6v7l-5 8-9 6h-9l-8-5-3-6v-11l4-10z" fill="#080B21"/>
<path transform="translate(899,867)" d="m0 0 3 1-5 3 1 10-2 3-3-1-1 5-3 1-1 11v10l-2 3-4 2v3l8 1 30 1v1h-35l-22-2 3-1v-3h2l1-4 2-6 1-9 5-12 2-4v-6l2-3h6v-2z" fill="#C8DBE9"/>
<path transform="translate(702,1249)" d="m0 0h1l1 6h25l20-1h39l19 2 23 5 1 3-2 3-11-1h-11l-13-2v-2l-6 1-35-2-12-1-13 1-8 1h-10l-5-3-3-3z" fill="#7E8599"/>
<path transform="translate(741,1214)" d="m0 0 10 1 19 4 12 1h32l24-1v9l-82 1-32 2h-24l-1 4-1-7h2v2l50-3 6-1-1-4 1-3-15-4z" fill="#7F869A"/>
<path transform="translate(565,458)" d="m0 0h35l59 1h110l30-1h27v1l-7 1-29 1-6 1-148 2h-36l-2-1v-2l-28-1-5-1z" fill="#D03741"/>
<path transform="translate(947,255)" d="m0 0h16l2 2v6l-3 5h-2v3h-2l-3-3h-5l2 23 1 5h10l2 3 6 1-1 5-5 3h-13l-4-4-3-8-2-12-2-25 2-3z" fill="#0A1231"/>
<path transform="translate(515,575)" d="m0 0h15l12 1h17l9 1 26 2 16 2 22 3 3 1v2l3 1h-25l-79-6-17-2-5-1 1-3z" fill="#757E93"/>
<path transform="translate(444,571)" d="m0 0 17 2 48 6 89 7 67 4h92l89-6h18v1l-65 5-23 2-19 1-44 1h-15l-52-2-78-6-74-6-43-6-7-2z" fill="#B7CDE1"/>
<path transform="translate(1006,253)" d="m0 0h16l3 5 3 16 2 16v13h-7l-2-5-3-27v-4h-8v12h-6l-1-16h-2l-1-8z" fill="#05081F"/>
<path transform="translate(426,545)" d="m0 0h12l46 6 2 3-7 3-10-1-2-1h-8l-5 1-6-1-6 1 1 4 6 3v2l8 2 3 2v2h-16l-9-6-6-9-3-8z" fill="#747D93"/>
<path transform="translate(769,1250)" d="m0 0h67l5 2-6 8-3 3h-2v-2l-13-2-16-3-13-1h-39l-20 1h-25l1-2 28-1 2-1h10l5-1z" fill="#AFC6DC"/>
<path transform="translate(869,1091)" d="m0 0h1l1 13-1 1-205 1h-192l-14-1v-1l409-1z" fill="#97AAC0"/>
<path transform="translate(965,259)" d="m0 0 2 3 3 17 2 12v11l-8-3-1-3h-10l-2-5-2-23 1-1 7 1 1 3h2v-3h2l1-4z" fill="#0A1231"/>
<path transform="translate(989,914)" d="m0 0h1v13l-3 14-7 13-11 12-8 5h-2v2l-2 1h-35l-3-2 4-2 16-4 14-4 4-3 5-2 2 1v-2h3l1-5 3-1 7 2 8-16z" fill="#CCDFEC"/>
<path transform="translate(611,1266)" d="m0 0 4 1 3 7 8 4 9 2 5 3 7 1v1l-19 3h-13l-11-3-8 4-6 2 3-9 4-7 9-5z" fill="#747D93"/>
<path transform="translate(536,558)" d="m0 0h15l69 5 1 1 7 1v1l-7 1-4 2-11 1h-13l-20-4-9-1-16 1-10-2-3-3z" fill="#757E93"/>
<path transform="translate(926,236)" d="m0 0 7 1 2 11 4 34-1 10-4 2-3 3-2-1v-9l-2-13-2-27v-10z" fill="#091130"/>
<path transform="translate(921,533)" d="m0 0h17l-1 2-14 1-15 1-39 4-27 2-90 4h-82l-19-1v-2h98l79-3 35-2z" fill="#9AAABE"/>
<path transform="translate(554,1248)" d="m0 0 5 1 3 3 4 3h2l2-4-1 9-5 12-5 5-16 4h-5l6-7 5-10z" fill="#7E8599"/>
<path transform="translate(1060,251)" d="m0 0h9l1 4-2 10-1-2h-6l1 14 2 8 6 1 4 4v2h2l-1 5-4 2h-6l-5-5-2-3-4-20v-9l2-7z" fill="#05071D"/>
<path transform="translate(687,1306)" d="m0 0h1v6l-8 16-10 19-10 14-6 8-6 9h-2l-2 5-6 7-1-2 5-12 6-9 9-13 1-2h2l2-5 4-7h2l2-5 6-11 3-3 4-8 2-6z" fill="#05081D"/>
<path transform="translate(1082,670)" d="m0 0 2 1 3 11v32l9-1 2-5h-2l-4-4 2-7 8-6 5-2 1-2v-14l2 2 1 3v17l-3 11-3 7-6 2-11 2h-4l1-12v-21z" fill="#C7DAE7"/>
<path transform="translate(972,695)" d="m0 0 2 4v54l2 22 2 5 1 18 1 6 3 39 1 8 1 11v23l-2 12-2 2 1-10v-20l-4-46-5-45-1-21z" fill="#747D93"/>
<path transform="translate(972,919)" d="m0 0 1 4 1 11h-2l-1 6-3 1-2 7-4 2v2h-17l-2-5 11-7 8-8 8-12z" fill="#C6D8E6"/>
<path transform="translate(920,553)" d="m0 0 3 1-7 3-4 1 4 4v2l-12 6h-19l-2-1v-2l6-2-3-1-1-4-10-1v-1l40-4z" fill="#7F869A"/>
<path transform="translate(634,930)" d="m0 0h12l3 1-3 9-5 8-3 2h-9l-2-1-2-8 1-5 4-4z" fill="#7E8599"/>
<path transform="translate(846,584)" d="m0 0h18v1l-65 5-23 2-19 1-44 1h-15l-30-1v-1l28-1 61-1z" fill="#BAD0E2"/>
<path transform="translate(534,657)" d="m0 0 5 1 13 17 8 11 9 13 8 13-1 4-1-4-4-1-2-4h-2l-9-13v-2h-2l-7-11-4-6-2-1v-4h-2l-4-6-2-2z" fill="#0D1025"/>
<path transform="translate(1090,522)" d="m0 0 1 2-3 3-18 2-20 4-25 6-37 6-32 4-31 3-5 2-13 2h-11v-1l22-3 8-3 15-1 43-5 37-6 19-4 9-3 23-4 17-1z" fill="#AEC6DC"/>
<path transform="translate(645,1137)" d="m0 0 4 2 9 10 6 8 5 5 9 16 8 18 3 9h-2l-2-6-3-1-6-12-11-18-3-9h-2l-8-11-7-8z" fill="#0E1127"/>
<path transform="translate(1e3 263)" d="m0 0h1l1 6v10l5-1 1-11h1l2 25 2 12h-10l-2-6v-10l-3 1-2-13 4 3z" fill="#0A1231"/>
<path transform="translate(704,1136)" d="m0 0h51v1h-15l1 7 43 1v1h-56v-2l-17-4-7-3z" fill="#CCDFEC"/>
<path transform="translate(601,938)" d="m0 0 1 3-7 15-8 11-7 7-17 11-11 6-9 4-16 8 1-3 8-5h3v-2l16-8 24-16 4-2 2-4 6-8 6-10z" fill="#090B21"/>
<path transform="translate(950,267)" d="m0 0 7 1 4 9 2 9v8l-4 2h-6l-2-5-2-23z" fill="#F7F9FA"/>
<path transform="translate(617,658)" d="m0 0h20l33 2h117v1l-12 1h-128v3l-8-2h-14v-2l-8-2z" fill="#8D9BB0"/>
<path transform="translate(583,496)" d="m0 0 25 1 41 2 88 1v1l-6 1h-75l-49-2-14-1-10-2z" fill="#9BABBE"/>
<path transform="translate(618,1320)" d="m0 0h2l-2 4-10 9-12 13-8 10-8 9-5 4-3-1 5-5 4-7 8-11 8-7 1-2h2v-3h2v-2l5-4 5-3z" fill="#0D0F25"/>
<path transform="translate(838,1181)" d="m0 0h1v37l-3 2-22 1h-32l-17-2-5-1v-1h44l17-1 16 1v-18z" fill="#A7BCD2"/>
<path transform="translate(611,1266)" d="m0 0 4 1 3 7 8 4 9 2 5 3 7 1v1l-12 1h-12l-3-1-5-5-5-6-5 1-9 3 1-3 9-5z" fill="#7E8599"/>
<path transform="translate(639,1342)" d="m0 0 1 2-2 5-5 6-3 6-3 5-4 4h-2l-2 5-4 5-5 4-3 1-1 2-5 3-4 4h-2l-1 3-2-1 9-10 8-8 7-8 13-16 7-10z" fill="#0D1026"/>
<path transform="translate(909,881)" d="m0 0 5 1 3 3v2h2l-1 9-4 2v2l-6 1-4-2-2-3-1-7 3-5h3v-2z" fill="#0A1231"/>
<path transform="translate(730,1147)" d="m0 0h31v1l-28 1-5 2-4 8v5l4 5-5-2-16-8v-4l5-3 15-4z" fill="#7F869A"/>
<path transform="translate(633,689)" d="m0 0 9 2 6 5 3 5v5l-7-6-6-3h-10v2l-4 1-2 6v7l-2 2-2-1v-11l5-8 6-5z" fill="#C1D2E0"/>
<path transform="translate(1024,256)" d="m0 0 6 6v9l1 5 9 3 5 3v6l-2 2h-13l-1-2-2-14-3-16z" fill="#BFD1E0"/>
<path transform="translate(948,257)" d="m0 0 8 1 1-1h6l2 1v5l-3 5h-2v3h-2l-3-3h-5l-1 9-3-1v-5l-2-3-1-10z" fill="#05081E"/>
<path transform="translate(951,293)" d="m0 0 2 1v2h10l2 3 6 1-1 5-5 3h-13l-4-4-1-4z" fill="#05081E"/>
<path transform="translate(651,544)" d="m0 0h23l96 1v1l-18 1h-82l-19-1z" fill="#9BACC1"/>
<path transform="translate(670,1242)" d="m0 0 2 4v9l-3 10-6 10-5 5h-3l2-5 3-4 3-7 1-7-1-1-40-1v-1l47-1z" fill="#BED0DF"/>
<path transform="translate(647,662)" d="m0 0h22v9l1 9-4-2-4-4-3-2v-2l-4-1-8-4z" fill="#F3F5F7"/>
<path transform="translate(741,1214)" d="m0 0 10 1 9 2 7 4 1 6-12 2-32 2h-24l-1 4-1-7h2v2l50-3 6-1-1-4 1-3-15-4z" fill="#757D93"/>
<path transform="translate(982,268)" d="m0 0h1l2 38h-8l-1-1-1-16 3-5 3-6z" fill="#0A1231"/>
<path transform="translate(1010,442)" d="m0 0h14l4 2-1 2-22 4-7 1h-12l1-4 2-1 16-2z" fill="#B8101E"/>
<path transform="translate(858,716)" d="m0 0 1 4-8 17-5 19-1 7-1 1-2 18h-1v-22l4-21 8-16z" fill="#05081F"/>
<path transform="translate(1049,256)" d="m0 0 6 3v12l1 9h-3l-8-9-8-4v-4l8 1 5 1z" fill="#B2C4D5"/>
<path transform="translate(740,316)" d="m0 0 1 3-8 16-9 12-3 1-2 4h-2l-2 4-8 6-7 4 2-4 4-3h2l2-4h2l2-4 7-8 5-5 7-10 1-2h2l3-9z" fill="#0B0E24"/>
<path transform="translate(854,1282)" d="m0 0h2l-2 5-7 10-13 18-4 4-1-3 3-6 6-9 2-5h2l2-5h2l1-3z" fill="#0D1026"/>
<path transform="translate(1014,564)" d="m0 0m-5 1h5v2l-8 2-18 2-24 3-45 7-7 1h-11v-1l29-4 52-8z" fill="#AEC6DC"/>
<path transform="translate(553,1256)" d="m0 0 2 1v5l-2 3v6l3 3v2l4-1-1 2-16 4h-5l6-7 5-10z" fill="#747D93"/>
<path transform="translate(582,227)" d="m0 0 1 4-5 13-8 11-8 8-11 7v-3l3-1v-2l4-3h2v-2l7-6v-2h2l1-4h2l2-5 7-14z" fill="#0B0E24"/>
<path transform="translate(882,730)" d="m0 0h1v49l-2 51h-7v-2h3l2-15 2-45z" fill="#CCDFEC"/>
<path transform="translate(836,1219)" d="m0 0h2v9l-32-1 1-3 21-2 8-1z" fill="#747D93"/>
<path transform="translate(617,658)" d="m0 0h20l31 3v1h-21v3l-8-2h-14v-2l-8-2z" fill="#BACCDB"/>
<path transform="translate(564,164)" d="m0 0 7 6 7 10 4 8v5l-1-2-4-1v-2h-2l-6-11v-2h-2l-1-4-2-1h3l-3-4z" fill="#0B0D23"/>
<path transform="translate(929,451)" d="m0 0h6l-2 2-14 1v2h-2l-1 2-4-2h-14l-29 2-10-1v-1l32-2z" fill="#D4444D"/>
<path transform="translate(935,253)" d="m0 0 1 2 7 1-1 7 1 16-2 3-1 8h-1l-4-33z" fill="#B6C7D7"/>
<path transform="translate(646,1134)" d="m0 0 7 1 4 1 1 4v3l6 9 7 4-4 1-2-1-1 2-11-13-7-8z" fill="#C4D6E4"/>
<path transform="translate(1e3 931)" d="m0 0h1v7l-3 5-2 5-2 2-5 6-1 2h-2l-1-5 2-3h2l3-9 5-7z" fill="#0C0F25"/>
<path transform="translate(941,821)" d="m0 0h2l3 13 4 35v20h-1l-2-29-3-20-1-2-2 4h-2l1-5z" fill="#96A5B9"/>
<path transform="translate(983,268)" d="m0 0h5l2 2 2 16v6h-1l-2-9h-4l-1 7h-1z" fill="#B6C8D8"/>
<path transform="translate(756,1228)" d="m0 0h84l4 4-5-1-31-1h-50z" fill="#B4CADD"/>
<path transform="translate(1061,264)" d="m0 0h5l1 2 2 19-3 1-3-3-2-6-1-11z" fill="#9FB3C8"/>
<path transform="translate(965,545)" d="m0 0h8v2l-36 4-12 1-5 2-13 2h-11v-1l22-3 8-3 15-1z" fill="#AFC7DD"/>
<path transform="translate(634,930)" d="m0 0h12l2 2-8 4-3 1v2l-3 2h-4l-2-5v-3z" fill="#747D93"/>
<path transform="translate(730,1147)" d="m0 0h31v1l-28 1-5 2-4 8v5l4 5-5-2-5-5-3-2 1-3 6-3h2l3-6z" fill="#747D93"/>
<path transform="translate(578,1135)" d="m0 0h14v1h-11l7 8 8 7 5 6-4 1-7-7-4-3v-2l-4-2-3-3v-3z" fill="#2B2F44"/>
<path transform="translate(401,329)" d="m0 0h1l-1 12-2 15h-3l-1-1v-11l3-13z" fill="#0A0D24"/>
<path transform="translate(869,1091)" d="m0 0h1l1 13-1 1h-97v-1l95-1z" fill="#7F869A"/>
<path transform="translate(959,274)" d="m0 0 2 3 2 9v8l-4 2h-6l-2-5v-7l1 4 8 1z" fill="#B8C9D9"/>
<path transform="translate(601,1157)" d="m0 0 7 6 11 10 5 2h11l5-1 1 4h-18l-7-3v-2l-4-2-5-4-2-5h-2z" fill="#B6AFC0"/>
<path transform="translate(873,952)" d="m0 0 4 2 4 11v10l-2-1-2-3-2-6-3-6v-6z" fill="#05081E"/>
<path transform="translate(744,1281)" d="m0 0h6v1l-6 2-2 1-5 12h-2l2-9 2-5-25 2h-14v-1l24-2z" fill="#B5CADE"/>
<path transform="translate(1022,419)" d="m0 0h11v2l-16 4-10 2-4-1v-2l9-2h5v-2z" fill="#C8DCEA"/>
<path transform="translate(1154,480)" d="m0 0 1 3-4 10-6 7-8 5v-3l4-4h2l2-5 5-9z" fill="#171A30"/>
<path transform="translate(999,255)" d="m0 0 2 2 2 13-1 9-3-1-2-9-1-10 2-1z" fill="#A2B6CC"/>
<path transform="translate(934,253)" d="m0 0 2 4 2 16v10l-4-4-1-7v-16z" fill="#05081E"/>
<path transform="translate(823,1272)" d="m0 0 1 3-2 2v-2l-7 2-52 3h-8v-1l18-2 36-2 12-2z" fill="#ADC4DA"/>
<path transform="translate(824,1325)" d="m0 0 1 3-12 14-14 14-2-2 14-14 9-11z" fill="#15192F"/>
<path transform="translate(881,653)" d="m0 0h2l-1 4-3 1v2l-5 3-4-1-2-2v-4l4-2z" fill="#E7EDF2"/>
<path transform="translate(1028,427)" d="m0 0h8v2l2 1h-5v2l-12 2h-8l1-3z" fill="#CBDEEB"/>
<path transform="translate(647,718)" d="m0 0h2l-1 5-5 5-8 1-6-3-1-4 10 2 8-2z" fill="#BACBDA"/>
<path transform="translate(1115,458)" d="m0 0h6l-3 2-32 7-6-1v-1l29-6z" fill="#97A9BF"/>
<path transform="translate(971,268)" d="m0 0h1l3 21 1 12h-1l-1-5-2 1-3-18-1-8 1 3h2z" fill="#8D9BB1"/>
<path transform="translate(453,132)" d="m0 0h3l-2 4-9 10-6 11-2-1 1-5 7-11 5-5h2z" fill="#070A20"/>
<path transform="translate(769,1250)" d="m0 0h67l5 2-4 1v2h-2l-2-3-64-1z" fill="#CADDEA"/>
<path transform="translate(932,503)" d="m0 0h18v1l-32 4h-9v-2l19-2z" fill="#98A8BC"/>
<path transform="translate(785,146)" d="m0 0 20 1-4 3-8 1-2-1-10 1-2-1v-2z" fill="#0C0F25"/>
<path transform="translate(969,918)" d="m0 0 1 4-9 12-7 7-3-1 4-5h2l2-5 4-5h2l2-6z" fill="#060920"/>
<path transform="translate(1082,670)" d="m0 0 2 1 3 11v32h12v1l-11 2h-4l1-12v-21z" fill="#97A6B9"/>
<path transform="translate(969,253)" d="m0 0h1l1 6v15h-2l-2-4-2-11-2-4 6 1z" fill="#A8BCD0"/>
<path transform="translate(729,1369)" d="m0 0 3 1-5 5-5 1-4 4h-6l-4 1 1-3z" fill="#060920"/>
<path transform="translate(392,393)" d="m0 0h2l-1 22-4 2v-13l2-9z" fill="#080B20"/>
<path transform="translate(988,283)" d="m0 0 3 4v12l-6-2v-12h3z" fill="#FDFDFD"/>
<path transform="translate(1105,480)" d="m0 0h5v2l-10 2-5 3-10 1-5-2 4-2 17-3z" fill="#05071C"/>
<path transform="translate(403,444)" d="m0 0h15l7 2 11 2 1 2-13-1-21-4z" fill="#8E0D20"/>
<path transform="translate(592,1278)" d="m0 0h3l-1 4-4 10-5 4-4-1 6-8z" fill="#B0C0D1"/>
<path transform="translate(1090,522)" d="m0 0 1 2-3 3-18 2-20 4-4-1 3-2 23-4 17-1z" fill="#ABC3D8"/>
<path transform="translate(1090,408)" d="m0 0h8v10l-5-1-2-5-6-1v-2z" fill="#F1F5F8"/>
<path transform="translate(1e3 288)" d="m0 0h2l2 16h8v1h-13v-16z" fill="#98AAC0"/>
<path transform="translate(966,244)" d="m0 0 2 4 1 8-17-2v-1h8l2-4 3-2z" fill="#F8FAFB"/>
<path transform="translate(592,625)" d="m0 0h18l21 2 1 2h-10l-30-3z" fill="#94A4BA"/>
<path transform="translate(941,257)" d="m0 0 1 2 1 20-2 3-1 8h-1l-1-14h1v-12z" fill="#9AADC2"/>
<path transform="translate(698,1228)" d="m0 0h2v2l36-2h14v1l-26 2h-24l-1 4z" fill="#767E94"/>
<path transform="translate(438,519)" d="m0 0h8l7 4v1h-15l-3-1 1-3z" fill="#05071C"/>
<path transform="translate(885,976)" d="m0 0h31l14 1v1l-18 1-27-2z" fill="#05071C"/>
<path transform="translate(617,658)" d="m0 0h20l1 4-13 1v-2l-8-2z" fill="#96A6BA"/>
<path transform="translate(855,922)" d="m0 0h19l4 2v2h-16l-7-3z" fill="#05071C"/>
<path transform="translate(506,555)" d="m0 0h12l2 3h-2v2l-5 1-6-2z" fill="#757E93"/>
<path transform="translate(725,1253)" d="m0 0h10l-1 2-5 1h-25l1-2z" fill="#B3CADF"/>
<path transform="translate(1062,273)" d="m0 0h3l3 5 1 7-3 1-3-3-1-2z" fill="#B5C7D7"/>
<path transform="translate(1024,256)" d="m0 0 6 6v9l1 5-3 2-3-13z" fill="#9BADC1"/>
<path transform="translate(853,234)" d="m0 0 1 4-7 12-3 2-1-2 3-7h2l2-6z" fill="#0C0F26"/>
<path transform="translate(964,683)" d="m0 0 5 1 11 8 6 8 2 5v5l-6-12-9-9-9-5z" fill="#CCDFEC"/>
<path transform="translate(929,451)" d="m0 0h6l-2 2-14 1v2h-2l-1 2-6-3 4-3z" fill="#CF3540"/>
<path transform="translate(651,544)" d="m0 0h23l4 3-27-1z" fill="#A0B0C3"/>
<path transform="translate(996,498)" d="m0 0v3l-8 2h-10l-4-2z" fill="#05071C"/>
<path transform="translate(980,297)" d="m0 0 4 1 1 8h-8l1-5z" fill="#05081E"/>
<path transform="translate(786,1364)" d="m0 0h2l-2 4-9 8-8 6-3-1 11-9z" fill="#181C32"/>
<path transform="translate(518,617)" d="m0 0h13l8 1v2l2 1-16-1-7-2z" fill="#060921"/>
<path transform="translate(932,789)" d="m0 0h1v14l-4 8h-2l-2 4h-2l2-4 4-6 2-7z" fill="#E8EEF4"/>
<path transform="translate(968,502)" d="m0 0 3 1-3 1v2l-9 1-7-1 2-2z" fill="#05071C"/>
<path transform="translate(939,249)" d="m0 0 5 2 2 4-1 1-9-1v-5z" fill="#FAFBFB"/>
<path transform="translate(935,680)" d="m0 0h21l8 2-2 2-27-3z" fill="#B8CEE1"/>
<path transform="translate(1108,476)" d="m0 0h8l-4 2-13 3h-7v-2z" fill="#92A2B7"/>
<path transform="translate(388,422)" d="m0 0h2v17l-4-4v-9z" fill="#05071C"/>
<path transform="translate(547,989)" d="m0 0m-1 1m-2 1h2l-1 3-17 9v-3l8-5h3v-2z" fill="#060920"/>
<path transform="translate(1015,495)" d="m0 0h7l-3 4h-11l-2-2 1-1z" fill="#05071C"/>
<path transform="translate(927,274)" d="m0 0h1l2 13v9l-3 2h-6v-1l6-2z" fill="#96A5B8"/>
<path transform="translate(744,1281)" d="m0 0h6v1l-6 2-2 1-5 12h-2l2-9 1-2h2v-4z" fill="#B5CCDF"/>
<path transform="translate(773,589)" d="m0 0h13v2l-10 1h-16v-1l11-1z" fill="#BED3E4"/>
<path transform="translate(394,365)" d="m0 0h2v10l-1 6h-2l-1-7z" fill="#05071C"/>
<path transform="translate(911,283)" d="m0 0 6 1 2 3v10h-3l-2-12z" fill="#1E2643"/>
<path transform="translate(624,937)" d="m0 0 2 4 1 8 10 1v1h-10l-4-5v-8z" fill="#B0C7DD"/>
<path transform="translate(1049,256)" d="m0 0 6 3-1 10-3-3h-5l4-1z" fill="#8C9AB0"/>
<path transform="translate(414,517)" d="m0 0h6l6 3-4 1h-11v-3z" fill="#05081F"/>
<path transform="translate(1093,509)" d="m0 0 2 1-2 8-2 3 1-6 1-4-12 3h-8v-1z" fill="#91A1B6"/>
<path transform="translate(951,683)" d="m0 0h7l8 3 7 6-1 3-5-5-10-5-6-1z" fill="#788096"/>
<path transform="translate(686,415)" d="m0 0h30v1l-20 1v1l-7-1z" fill="#B8101E"/>
<path transform="translate(1029,290)" d="m0 0 4 5 1 4h-2l-1 5h-8v-1h7l-1-4z" fill="#97A8BE"/>
<path transform="translate(638,1174)" d="m0 0 2 1 1 3h-16l-1-2 11-1z" fill="#C39CA9"/>
<path transform="translate(869,1091)" d="m0 0h1l1 13-1 1h-22v-1l20-1z" fill="#A3B8CD"/>
<path transform="translate(1039,854)" d="m0 0h1l2 18v6l-1-4h-2z" fill="#BCD1E3"/>
<path transform="translate(1110,678)" d="m0 0h1v17l-2 9h-1v-13l1-2z" fill="#99ABC1"/>
<path transform="translate(1082,514)" d="m0 0 4 1-1 5-5 1-2-3z" fill="#FDFDFD"/>
<path transform="translate(972,284)" d="m0 0 2 1 2 10v6h-1l-1-5-2 1z" fill="#9EB2C8"/>
<path transform="translate(811,584)" d="m0 0 19 1v1l-12 1h-14v-1z" fill="#7F869A"/>
<path transform="translate(1e3 263)" d="m0 0h1l1 13-1 3-3-1-1-7 2 3z" fill="#798196"/>
<path transform="translate(969,253)" d="m0 0h1v11l-1-2h-3l-3-7 6 1z" fill="#B7C9D9"/>
<path transform="translate(578,1135)" d="m0 0h14v1h-11l6 8-4-2-5-5z" fill="#C8CDD8"/>
<path transform="translate(950,267)" d="m0 0 7 1-3 2h-3v13h-1l-1-15z" fill="#A5B2C4"/>
<path transform="translate(667,1390)" d="m0 0h5v3l-2 1h-7v-3z" fill="#060920"/>
<path transform="translate(1039,621)" d="m0 0 2 1v3 3l-8-2v-2z" fill="#BEBBC7"/>
<path transform="translate(1026,266)" d="m0 0 3 1 2 9-3 2-2-7z" fill="#94A5BA"/>
<path transform="translate(843,251)" d="m0 0 1 2-5 5-6 7-1-3z" fill="#1B1F34"/>
<path transform="translate(1018,969)" d="m0 0 1 3-5 4-5 5v-3l7-8z" fill="#A7B7C9"/>
<path transform="translate(1141,437)" d="m0 0 5 2 5 6-1 3-9-10z" fill="#14172D"/>
<path transform="translate(592,1278)" d="m0 0h3l-1 4-2 4h-2l-1 2-2-1z" fill="#9CAFC5"/>
<path transform="translate(493,1233)" d="m0 0 1 3-4 9-2-1 1-7z" fill="#05081E"/>
<path transform="translate(834,259)" d="m0 0m-1 1m-1 1m-1 1 1 3-5 4-4 2 2-4z" fill="#0A0D24"/>
<path transform="translate(994,675)" d="m0 0h2l5 6-1 3h-2l-3-4z" fill="#0E1128"/>
<path transform="translate(914,619)" d="m0 0h6l-4 3h-13v-1z" fill="#05071C"/>
<path transform="translate(1089,463)" d="m0 0h5l-3 3-9 1-2-2z" fill="#94A4BA"/>
<path transform="translate(507,147)" d="m0 0h8l-1 3h-9l-2-2z" fill="#1F233A"/>
<path transform="translate(675,1387)" d="m0 0h6v1l-14 3h-3v-2l2-1z" fill="#A4B5C8"/>
</svg>
