<?xml version="1.0" encoding="UTF-8"?>
<svg version="1.1" viewBox="0 0 1480 1480" width="1280" height="1280" xmlns="http://www.w3.org/2000/svg">
<path transform="translate(460)" d="m0 0h73l31 6 23 6 26 9 20 9 19 10 19 12 12 9 13 10 12 8 13 5 14 2 16-1 16-6 10-6 15-12 17-12 22-13 22-11 29-11 25-7 29-6 7-1h73l28 5 24 6 29 10 24 11 23 13 19 13 14 11 14 12 21 21 9 11 6 9 2 5v8l-4 8-3 3 1 4 7 8 13 24 6 15v2l11-1 8 4 6 7 6 16 7 30 4 30v50l-3 22-5 26-6 20-6 18-11 25-11 21-18 27-13 16-9 11-17 17-8 7-12 10-18 13-18 11-14 8-24 11-36 12-7 2h-4l2 37 2 68v126l-1 41-4 82-4 43-4 24-6 28-12 72-2 15-1 26-1 41-2 23-5 25-7 25-10 25-8 16-10 18-8 12-13 17-13 15-16 16-11 9-10 8-13 9-20 12-15 8-27 11-27 8-29 6-14 2h-48l-23-4-24-5-26-8-24-10-21-11-19-12-12-9-14-12-10-9-13-13-9-11-12-15-11-17-10-18-10-21-9-26-6-23-4-25-2-25v-62l-8-61-4-20-8-28-4-18-3-23-3-41-3-58-2-87v-63l2-81 2-39v-12l-30-9-21-8-23-11-19-11-12-8-16-12-13-11-12-11-13-13-9-11-12-15-14-21-10-17-13-28-8-22-8-30-5-28-2-20v-35l3-27 5-26 8-28 11-28 8-16 11-20 13-19 11-14 11-13 25-25 14-11 10-8 15-10 17-10 21-11 28-11 24-7 27-6z" fill="#FDCDB2"/>
<path transform="translate(460)" d="m0 0h73l31 6 23 6 26 9 20 9 19 10 19 12 12 9 13 10 12 8 13 5 14 2 16-1 16-6 10-6 15-12 17-12 22-13 22-11 29-11 25-7 29-6 7-1h73l28 5 24 6 29 10 24 11 23 13 19 13 14 11 14 12 21 21 9 11 6 9 2 5v8l-4 8-4 5-8 4-8 1-10-4-5-5-14-15-7-8-16-15-17-13-18-12-18-10-20-9-19-7-28-7-24-4-12-1h-37l-30 4-25 6-21 7-21 9-19 10-14 9-19 14-13 10-12 7-15 6-16 4-9 1h-16l-14-2-15-4-19-9-11-8-21-16-19-12-25-13-24-9-21-6-25-5-26-3h-29l-26 3-29 6-16 5-21 8-16 8-15 8-18 12-9 7-10 8-13 12-10 10-11 14-9 11-7 11-9 15-8 16-7 16-9 27-5 22-3 23-1 17v16l3 32 5 25 6 21 11 27 12 23 12 18 10 13 11 13 20 20 11 9 15 11 19 12 19 10 28 11 16 5 3-35 4-43 3-10 8-8 5-2h13l6 3 5 5 4 6 1 8-6 70-3 41-4 75-2 85v40l1 51 3 66 4 66 4 28 14 65 4 27 1 14 3 76 3 37 3 18 5 21 8 22 8 16 8 15 10 14 9 11 9 10 13 13 14 11 15 11 13 8 16-12 16-8 26-8 36-6h34l19 3 31 8 21 9 11 7 16 15 3 4 6-1 18-12 13-10 13-11 24-22 11-12 12-16 11-18 11-23 9-27 5-24 2-22 2-69 2-23 10-57 5-28 4-33 3-47 4-79 2-84v-39l-2-75-2-48-4-64-3-37-3-31v-18l5-8 8-6 3-1h11l6 3 5 5 4 6 2 10 2 25 4 46v4l26-9 21-9 16-8 15-9 13-9 14-11 13-12 14-14 9-11 11-15 12-19 8-15 11-26 6-18 5-20 4-27 1-14v-26l-3-29-5-24-6-23 1-7 4-7 9-9h13l8 4 6 7 6 16 7 30 4 30v50l-3 22-5 26-6 20-6 18-11 25-11 21-18 27-13 16-9 11-17 17-8 7-12 10-18 13-18 11-14 8-24 11-36 12-7 2h-4l2 37 2 68v126l-1 41-4 82-4 43-4 24-6 28-12 72-2 15-1 26-1 41-2 23-5 25-7 25-10 25-8 16-10 18-8 12-13 17-13 15-16 16-11 9-10 8-13 9-20 12-15 8-27 11-27 8-29 6-14 2h-48l-23-4-24-5-26-8-24-10-21-11-19-12-12-9-14-12-10-9-13-13-9-11-12-15-11-17-10-18-10-21-9-26-6-23-4-25-2-25v-62l-8-61-4-20-8-28-4-18-3-23-3-41-3-58-2-87v-63l2-81 2-39v-12l-30-9-21-8-23-11-19-11-12-8-16-12-13-11-12-11-13-13-9-11-12-15-14-21-10-17-13-28-8-22-8-30-5-28-2-20v-35l3-27 5-26 8-28 11-28 8-16 11-20 13-19 11-14 11-13 25-25 14-11 10-8 15-10 17-10 21-11 28-11 24-7 27-6z" fill="#020102"/>
<path transform="translate(719,243)" d="m0 0h38l23 3 16 6 11 7 8 8 7 11 4 12 2 10v23l-4 18-6 16-8 13-11 13-10 9-11 7-14 6-19 4h-13l-17-3-15-6-14-9-10-9-9-10-9-15-6-15-4-18v-26l4-15 6-12 9-10 9-7 13-6 13-3z" fill="#020102"/>
<path transform="translate(519,225)" d="m0 0 10 1 6 4 5 6 3 7v42l-4 10-8 7-3 1h8l10 3 15 8 12 11 6 8 6 10 4 11v17l-4 12-7 13-9 10-13 9-14 7-25 8-3 1h-18l-15-3-16-6-13-7-13-12-2-4h-2l-6-9-4-9-2-8v-19l4-13 6-11 4-5h2v-2h2v-2h2v-2l14-10 14-7 18-6h9l15 7-1-1-6-4-4-5-2-5-1-7v-34l2-9 6-8 7-4z" fill="#FEA0AB"/>
<path transform="translate(948,226)" d="m0 0h13l8 5 4 5 3 7v42l-4 10-4 5-8 3 7-1 2-2 5-1h12l16 5 16 8 10 7 11 11 8 14 3 10 1 4v11l-4 13-5 10-8 10-10 9-13 8-12 5-16 4-16 1-15-2-20-6-15-8-12-9-8-9-8-16-2-9v-13l3-13 8-14 9-10 13-9 15-7 8-1 6 1-8-5-6-7-2-5v-45l4-8 7-6z" fill="#FEA0AB"/>
<path transform="translate(721,286)" d="m0 0h36l16 3 7 4 4 6 1 3v16l-4 16-6 11-9 10-9 6-10 4-4 1h-11l-10-3-10-6-10-10-8-16-3-12v-16l4-9 5-4 11-3z" fill="#614E4C"/>
<path transform="translate(713,1402)" d="m0 0h26l24 4 24 7 17 8 9 8v5l-5 3-14 4-21 3-3 2h-16l-8 1-24-1-5-3-10-14-9-15-3-6 1-3z" fill="#FDA0AB"/>
<path transform="translate(519,225)" d="m0 0 10 1 6 4 5 6 3 7v42l-4 10-8 7-3 1h-13l-8-4-5-6-2-5-1-7v-34l2-9 6-8 7-4z" fill="#040303"/>
<path transform="translate(948,226)" d="m0 0h13l8 5 4 5 3 7v42l-4 10-4 5-8 3-7 1-8-2-8-7-4-8v-45l4-8 7-6z" fill="#030203"/>
<path transform="translate(689,1406)" d="m0 0h6l11 20 11 16 2 3-12-1-22-5-20-6-16-7-2-1 2-5 12-6 20-6z" fill="#614E4C"/>
<path transform="translate(749,1405)" d="m0 0h9l26 7 12 5 11 6 6 6v5l-5 3-4-1 1-1v-6l-6-2v-2l-14-7v-2l-4-1-3-2-19-5-10-2z" fill="#FDC7B1"/>
</svg>
