<?xml version="1.0" encoding="UTF-8"?>
<svg version="1.1" viewBox="0 0 1600 1600" width="1280" height="1280" xmlns="http://www.w3.org/2000/svg">
<path transform="translate(1401,12)" d="m0 0h17l18 8 13 7 14 10 16 12 12 11 8 9 5 11-1 9-8 16-13 22-13 24-11 17-5 9 1 7 4 5 7 6 9 11 15 20 12 19 13 24 11 25 10 30 6 26 5 32 2 32v66l4 5 17 9 5 6-1 6-9 13-6 3-16 3-9-1-6-3-5-4-3-1h-7l-5 3-12 35-10 30-14 33-7 19-13 31-16 34-12 26-10 19-8 16-14 26-12 22-14 26-14 23-9 15-13 21-14 22-12 19-10 17-11 17-13 19-13 18-7 11-12 17-10 15-11 16-7 9-10 13-8 9-9 12-12 15-8 11-13 16-12 14-9 10-11 12-7 8-11 12-7 8-12 13-9 11-48 48-8 7-12 11-13 13-8 7-13 12-11 9-10 9-11 9-13 11-13 10-30 23-18 14-17 12-16 11-15 10-25 16-20 12-21 12-18 10-19 10-23 11-24 11-26 10-55 18-33 9-27 6-39 5-34 3h-53l-30-3-33-5-31-7-26-7-29-11-26-12-26-15-21-12-16-12-17-14-34-34-11-14-12-16-14-23-9-14-11-23-9-25-8-32-2-11-3-31v-44l2-23 4-23 9-40 8-24 8-18 18-36 10-17 10-15 10-14 11-13 9-11 11-12 7-7 4-5 10-10h2v-2l8-7 9-9 11-9 18-14 18-13 32-21 24-14 23-13 33-17 56-28 24-14 28-15 17-10 20-12 42-28 34-26 19-14 13-10 10-8 13-11 9-8 8-7 7-7 11-9 14-14h2l1-3 8-7 29-29 7-8 11-12 7-8 7-7 8-10 16-16 11-14 13-16 11-14 7-7 18-22 14-18 12-16 13-16 9-11 13-16 24-32 12-15 13-17 11-15 8-10 13-16 8-11 1-10-5-6-11-7-10-9-9-13-1-3v-7l3-9 4-5 7-3 7 1 14 5 8 3h11l10-4 14-9 15-12 20-14 15-10 19-11 23-12 25-10 28-9 17-4 23-3h60l26 3 27 6 17 6 8 1 5-3 7-10 15-26 6-9 11-19 10-17 7-6zm-185 108-31 5-4 2-1 6 3 6 2 2 6 1 5 10 7 6 11 4h12l10-5 7-6 4-6 1-9-3-8-5-5-9-3z" fill="#913B9C"/>
<path transform="translate(1401,12)" d="m0 0h17l18 8 13 7 14 10 16 12 12 11 8 9 5 11-1 9-8 16-13 22-13 24-11 17-5 9 1 7 4 5 7 6 9 11 15 20 12 19 13 24 11 25 10 30 6 26 5 32 2 32v66l4 5 17 9 5 6-1 6-9 13-6 3-16 3-9-1-6-3-5-4-3-1h-7l-5 3-12 35-10 30-14 33-7 19-13 31-16 34-12 26-10 19-8 16-14 26-12 22-14 26-14 23-9 15-13 21-14 22-12 19-10 17-11 17-13 19-13 18-7 11-12 17-10 15-11 16-7 9-10 13-8 9-9 12-12 15-8 11-13 16-12 14-9 10-11 12-7 8-11 12-7 8-12 13-9 11-48 48-8 7-12 11-13 13-8 7-13 12-11 9-10 9-11 9-13 11-13 10-30 23-18 14-17 12-16 11-15 10-25 16-20 12-21 12-18 10-19 10-23 11-24 11-26 10-55 18-33 9-27 6-39 5-34 3h-53l-30-3-33-5-31-7-26-7-29-11-26-12-26-15-21-12-16-12-17-14-34-34-11-14-12-16-14-23-9-14-11-23-9-25-8-32-2-11-3-31v-44l2-23 4-23 9-40 8-24 8-18 18-36 10-17 10-15 10-14 11-13 9-11 11-12 7-7 4-5 10-10h2v-2l8-7 9-9 11-9 18-14 18-13 32-21 24-14 23-13 33-17 56-28 24-14 28-15 17-10 20-12 42-28 34-26 19-14 13-10 10-8 13-11 9-8 8-7 7-7 11-9 14-14h2l1-3 8-7 29-29 7-8 11-12 7-8 7-7 8-10 16-16 11-14 13-16 11-14 7-7 18-22 14-18 12-16 13-16 9-11 13-16 24-32 12-15 13-17 11-15 8-10 13-16 8-11 1-10-5-6-11-7-10-9-9-13-1-3v-7l3-9 4-5 7-3 7 1 14 5 8 3h11l10-4 14-9 15-12 20-14 15-10 19-11 23-12 25-10 28-9 17-4 23-3h60l26 3 27 6 17 6 8 1 5-3 7-10 15-26 6-9 11-19 10-17 7-6zm-185 108-31 5-4 2-1 6 3 6 2 2 6 1 5 10 7 6 11 4h12l10-5 7-6 4-6 1-9-3-8-5-5-9-3zm-233 157-8 14-8 11-4 5v2h-2l-4 5v3h-2l-2 5h-2l-5 7v2h-2l-1 4h-2l-4 7-3 3-5 8-3 3-5 8-3 3v2h-2l-2 4-3 3v2h-2l-4 7-2 1v2h-2l-1 4h-2l-3 5v2h-2l-10 14v2h-2l-2 5h-2l-3 5-4 4-6 8-1 3h-2l-2 5h-2l-7 9-8 9v2l-3 1-1 4h-2l-3 5-4 4-10 13-5 6v2h-2l-10 13-3 3v2h-2l-2 5h-2l-7 9v2h-2l-4 6-5 5-9 11-12 12-7 8-11 12-64 64-20 16-5 5-11 10-8 7-13 11-13 10-10 7v2l-8 4v2l-4 2-12 9-14 10-2 1v2h-3v2l-5 2-42 28-17 10-13 8-25 14-18 10-22 12-26 14-32 16-33 17-16 9-14 8-11 6-11 8-12 8-11 7v2l-5 2-6 4v2l-4 2-13 10-14 12-8 7-8 8-7 8-5 5-4 5-5 5-8 9-5 5-1 3-3 1-2 4-5 5v2h-2v2h-2l-4 7v2h-2l-6 9v2h-2l-12 21-14 27-8 19-8 22-7 24-5 29-1 14-1 4v4 6 2 43l3 28 5 24 7 19 13 30 9 17 13 20 10 14 14 17 10 10 7 8 14 14 11 9 10 8 15 10 26 15 16 8 28 12 25 8 26 7 31 6 34 4 17 1h52l26-2 26-4 44-9 29-8 36-12 45-18 16-7 17-8 23-13 18-10 16-10 23-14 19-12 25-17 16-11 10-8 13-10 16-12 19-14 10-8 11-9 14-12 10-9 9-9 8-7 15-14 8-7 15-15 8-7 34-34v-2l3-1 7-8 15-15 7-8 11-12 9-11 14-17 13-15 14-15 9-11 7-8 13-17 14-19 9-14 13-18 11-15 22-33 6-8 12-17 9-14 10-16 22-33 11-19 9-14 9-15 12-21 14-25 15-29 12-22 15-29 16-32 11-23 13-28 10-24 17-38 8-19 8-21 11-23 8-15v-2l-5 2-11 9-15 9-13 6-14 4-18 3-16-1-9-4-9-7-8-10-10-18-11-23-7-18-6-25-3-20-1-19-5 1-24 13-17 9-25 8-20 5-19 3-24 1-14-2-16-6-8-6-7-7-5-10-6-20-3-14-1-9v-15l2-22 6-28-1-2-5 1-16 8-15 5-17 4-11 1h-26l-15-2-16-4-12-5-14-7-1-2-9-5-3-4z" fill="#051A2A"/>
<path transform="translate(1329,388)" d="m0 0h3l1 19 4 25 6 23 10 24 11 22 9 14 8 9 9 6 6 2 16 1 22-4 15-5 15-8 13-9 9-7h2l-2 6-15 29-9 23-8 20-12 26-13 30-9 21-14 29-16 33-15 30-10 18-12 23-10 19-15 27-14 24-10 16-11 18-9 15-24 36-9 15-13 18-26 38-14 20-9 12-12 17-7 11-20 26-8 10-9 10-7 8-11 12-12 14-9 11-8 10-12 13-7 8-11 12-13 13-2 3h-2l-2 4-38 38-8 7-15 15-8 7-13 12-12 11-8 8-11 9-14 12-13 10-36 27-26 20-48 32-46 28-17 10-24 13-16 8-13 6-35 14-26 10-32 10-22 6-49 10-21 3-26 2h-52l-27-2-31-4-36-8-30-9-21-8-20-9-16-8-17-10-11-7-14-10-11-9-13-12-12-12-7-8-7-7-11-14-10-14-14-22-9-17-12-28-7-19-2-8 1-40 2-18 1-2h2l5 12 10 27 11 23 8 12 8 11 8 10 11 12 17 17 11 9 15 12 21 14 18 10 25 11 20 8 27 8 44 9 22 3 14 1h56l28-2 34-4 29-5 38-9 27-8 36-12 29-12 19-9 16-8 33-16 22-12 19-12 20-13 25-16 11-7 15-10 14-10 38-28 26-20 11-10 8-7 24-22 11-10 11-9 14-12 13-12 10-9 16-15 21-21 9-7h2v-3l-4-2-6-7-1-3v-11l1-3h2l2-5 8-8 5-3h10l6 4 5 6 1 7h2l-1 14 4-2 2-3h2v-2h2l1-7 3-17-2-14-11-3-9-2-6-5-3-8 1-7 5-8 7-7 11-7 3-1h9l6 3 4 5 4-2 5-4 7-8 9-10 16-16 7-8 11-12 9-11 15-20 10-14 32-46 16-24 15-24 11-17 12-19 10-18 20-35 1-5 9-6 5-8 3-8 2-7 5-5 8-13 12-22 16-32 11-27 10-25h-21l-12-5-13-10-6-7-7-10-13-25-6-15-8-23-4-21-3-31h-4l3-11 7-4h7v2h3l2 9 1 1-1-8v-21z" fill="#5E1E6B"/>
<path transform="translate(1239,121)" d="m0 0h12l35 4 26 6 30 11 20 10 20 12 17 13 10 8 17 16 10 11 13 17 10 13 9 16 14 27 15 39 5 18 4 27v8l-2 11-13 29-7 16-8 12-13 18-12 13-10 9-13 8-5 2h-10l-9-6-7-8-11-20-8-20-5-18-3-23v-21l3-31 4-16 6-20 1-10-3-7-2-1h-8l-9 6-12 11-8 7-10 9h-2l-1 5-7 8-7 7-15 11-35 21-15 6-14 4-7 1h-28l-9-2-6-4-3-5-6-26-1-8v-22l4-24 5-21 8-16 8-15 18-27 6-10 2-7-4-4-7-3h-11l-7 4-10 9-26 26-10 8-12 7-25 10-20 6-19 3h-22l-15-3-12-5-11-8-7-7-2-4v-7l8-23 7-11 12-10 19-12 26-15 22-11 11-7 19-8 21-7 19-5 16-3 17-1v1l-19 3-3 1-1 6 3 6 8 3 5 10 6 5 11 4h12l10-5 6-5 4-6 1-9-3-8-2-4-3-1z" fill="#6EAD42"/>
<path transform="translate(983,277)" d="m0 0 4 2 4 4 6 3 5 5-2 4-8 11-12 23-7 9-13 16-8 10-1 4h-2v2l-5 5-2 3-1 10h-5l-8 10-16 27-5 10v2l-8 7-8 9-9 14-5 10-3 7-4 8-5 4-11 16-8 10-14 17-7 9h-2l-2 4-41 41-7 8-14 15-51 51-8 7-12 11-11 9-13 11-14 11-10 9-20 15-36 26-15 11-25 16-15 11-14 9-26 14-15 10-14 10-24 14-28 15-23 13-22 11-22 12-32 17-24 13-15 10-20 14-15 11-11 9-12 11-10 9-15 15-7 8-12 14-10 12-13 18-13 20-9 16-9 19-13 32-9 24-12 38-3 9-3 2-3 11-2 50-2-3-3-24v-43-2-6-4l1-4 1-14 5-29 9-30 10-26 11-23 12-22 7-12h2l2-5 4-6h2l2-5 2-4h2v-2h2l2-4 4-5 2-3h2l2-4 5-5 9-10 9-11 8-7 9-10 6-5 5-5 14-12 13-10h2v-2l9-6h2v-2l11-7 22-15 9-6 14-7 23-13 29-15 32-16 34-18 29-16 28-16 20-12 21-13 11-8 22-14 3-1v-2h3v-2l11-7 15-12 4-3h2v-2l6-4h2v-2l11-8 9-7 11-9 10-9 14-12 10-9 11-9 12-11 64-64 7-8 11-12 9-10 7-9 5-5 1-2h2l2-4 5-7h2l2-5h2l2-4 10-12 1-2h2l2-4 11-14 4-6 4-4 1-2h2l2-5h2l2-4 9-10 4-6h2l2-5h2l2-4 7-10 4-4 1-2h2l2-5h2l2-5 8-11h2l2-5 1-2h2l1-4h2v-2l4-4 2-4h2l1-4 3-3 1-2h2l1-4 5-5 3-6 5-5 3-6 4-4 2-4h2l1-4h2l2-4 3-5h2l2-5h2l1-5 3-3h2l2-4 10-14 6-10z" fill="#EFB7F7"/>
<path transform="translate(1e3 290)" d="m0 0 5 2 4 2 3 3 12 5 9 3 5 3v2l2 1v3l2-1 12-1 9-2v-1h6l-1 2 2 1v2l-2 1v2l-9 3 5 4 4 3 6 1 14-2 8 1 7-2 7-1 9-3h3l-1 6-2 11-3 32v31l3 19 5 13 6 9v2h2l5 5 7 5v2l-9-3-5-4-7-9v-2h-2l-1-4-3-2-2-6-3-5v-2l-9 2-3-4-5 3-7-1 1-3-6 3-12 2-2-1v2l-7 3-1 2-5-1-7 5-3 7-2 13-1 4 1 1v14l-1 4 1 18-3 10-2 12-1 4h-2l-1 7-2 5h-2l-2 7-6 8h-2v2h-2l-1 3h-2l-2 6-5 3 1-5 3-4h2l1-4 9-16 3-10v-27l-6-17-4-10v-3h-2l-1-4h-2l-5-7v-3l-4-2-9-8-4-4-4-1v-2l-6-2-16-5h-24l-14 2-6 1v2l-10 3v2l-5 1-1-2 10-18 14-22 6-7h4l1-9 6-8h2v-2h2l1-5 13-16 9-11 7-11 11-21 9-11z" fill="#B351C5"/>
<path transform="translate(942,424)" d="m0 0h24l16 5 6 3v2l5 1 16 14 4 7 1 3h2l1 4h2l7 19 4 11v27l-3 10-9 16-2 4-5 5-7 8-7 7-11 7-10 4-9 2h-18l-19-5-12-5-13-8-11-9-9-14-7-16-4-17-1-23 2-2 2-9 8-15 11-14 9-9 7-2v-2l7-3h3v-2l11-3z" fill="#05192B"/>
<path transform="translate(1237,476)" d="m0 0h19l12 2 14 5v2l5 2 9 7 8 8 10 15 6 14 3 14v23l-5 19-7 13-11 13-11 9-14 8-11 4-11 2h-15l-16-4-12-5-11-8-11-10-7-10-8-15-4-16-1-7v-12l5-21 4-10 5-8 9-10 7-7 5-3h2l1-3 13-6 12-4z" fill="#05192A"/>
<path transform="translate(979,601)" d="m0 0h13v2l5 2 4 5 1 3 1 23 3 12v3h2l6 11v2h2l2 5 7 7 4 3 5 2 3 3 15 7 12 3 8 1h9l18-3 16-5 14-7 6-4h2v-2l4-1 2-4 6-7 3-3 7-13 7-6 2-1h9l8 5 6 9 1 3v10l-5 12-7 11-10 10-8 7-13 10-14 8-15 6-21 6-6 1h-34l-20-5-15-6-14-7-14-10-10-9-9-12-9-16-5-15-2-12v-24l4-10 8-7z" fill="#04192A"/>
<path transform="translate(1415,192)" d="m0 0 4 2 12 12 9 11 10 13 10 14 8 14 14 27 15 39 5 18 4 27v8l-2 11-13 29-7 16-8 12-13 18-12 13-10 9-13 8-5 2h-10l-9-6-7-8-11-20-8-20-5-18-3-23v-21l1-14h1l1 5 4-3 6 27 6 18 11 24 6 7 12 6h10l10-4 11-8 7-7 4-6 1-5-1-2v-29l1-5-1-1v-14l1-12v-28l-3-25-5-21-6-18-8-20-8-16-12-23-5-9z" fill="#487E30"/>
<path transform="translate(983,277)" d="m0 0 4 2 4 4 6 3 5 5-2 4-8 11-12 23-7 9-13 16-8 10-1 4h-2v2l-5 5-2 3-1 10h-5l-5 5h-3l-7 8-10 13-5 10h-2l-3 12-2 4h-2l-1 3-3 3h-2l-2 4-5 7-5 5-7 12-4 8-5 5-2 3h-2l-2 4-5 7-4 4-2 8-3 5h-2v3h-3l-1 3h-2l-2 4-5 5-9 8-4 1v2l-4 3h-2v2l-6 3-7 3-13 6-23 23-4 6-9 6h-2l-1 2-5 6-3 3h-3v2l-4 3h-2l-1 3-11 9-2 3h-2l-1 3h-2l-1 3h-2l-1 3h-2l-1 3-8 7-4 2v3l-5 4-8 8-6 2-1 2-8 6h-3l4-6 5-2v-2l3-1 2-3h2l2-5h2l2-4 6-6h2l1-3 6-5 3-1 1-2h2v-2l6-5 4-6 19-19 1-2h2l2-4 11-12 7-8 4-2 1-3h2l1-3h2l2-5 6-7h2l2-5 2-3h2l2-4 8-10 3-5 2-2-1-3h2l2-5h2l2-4 10-12 1-2h2l2-4 11-14 4-6 4-4 1-2h2l2-5h2l2-4 9-10 4-6h2l2-5h2l2-4 7-10 4-4 1-2h2l2-5h2l2-5 8-11h2l2-5 1-2h2l1-4h2v-2l4-4 2-4h2l1-4 3-3 1-2h2l1-4 5-5 3-6 5-5 3-6 4-4 2-4h2l1-4h2l2-4 3-5h2l2-5h2l1-5 3-3h2l2-4 10-14 6-10z" fill="#E7AAF7"/>
<path transform="translate(1142,287)" d="m0 0 4 1-3 15-4 21-1 15v15l2 14 6 23 5 12 4 6 8 8 12 6 13 4 10 1 24-1 23-4 26-7 6-2 4 1-9 3h-3l-1 5 3 3 5 2v2l6 1 14-4 2 2-10 6-16 7-24 8-25 7-12 3-14 2h-19l-19-3-9-3-3-2-6-2-8-6v-2h-2l-7-11-5-13-3-19v-31l4-39 3-10-15 5-9 1-4 1-6-1-16 2-5-2-9-6 3-3 7-1-1-3h3v-2l-3-1h-1l-10 1-2 1-14 1v-3l-3-1 1-2-5-2-17-6-7-4 2-1 12 5 16 4 15 2h26l15-2 20-5 17-7z" fill="#79288D"/>
<path transform="translate(326,958)" d="m0 0h10l6 3 8 9 2 5v13l-4 10-7 12-8 10-9 10-14 13-14 10-16 9-19 7-10 2h-10l-8-4-6-9-2-10 1-14 8-16 7-8 11-10 18-13 16-11 16-9 14-6z" fill="#FCECF0"/>
<path transform="translate(207,965)" d="m0 0 3 1 1 3-5 7h6l-1 6-8 14-6 7-2 1-2 5-8 7-4 5-8 7-3 5-6 8-2 3h-2l-2 4-12 16-4 5-2 4h-2l-2 4-9 12-11 20-3 12-4 10-7 22-6 10-5 12-3 3-3 6-6 8-3 9-4 11-2 4 3 3-3 11-1 2h-2l-2 32h-1v-40-2-6-4l1-4 1-14 5-29 9-30 10-26 11-23 12-22 7-12h2l2-5 4-6h2l2-5 3-4h4l6-7 7-9 8-7 9-11 14-14h2l2-4 5-5h2v-2z" fill="#E8AAF7"/>
<path transform="translate(1412,46)" d="m0 0 6 2 22 14 16 13 9 6 4 3-1 6-11 17-12 21-9 15-6 11-4-2-7-8-1-4 1-4-5 5-13-9-13-8-16-7 1-4 9-14 28-49z" fill="#6DAC41"/>
<path transform="translate(826,573)" d="m0 0h13l18 3 27 8 16 8 7 6 5 8 1 3v15l-6 9-10 5-5 1h-9l-19-3-31-9-14-7-8-7-6-10-3-11 1-7 8-7 9-4z" fill="#FBD7E5"/>
<path transform="translate(1260,661)" d="m0 0h11l25 5 20 6 16 8 7 6 3 6v9l-4 10-6 7-7 4-5 1h-26l-24-4-16-5-8-4-8-8-4-8-1-4v-9l3-6 9-8 10-5z" fill="#FBD8E5"/>
<path transform="translate(869,484)" d="m0 0h3l-1 7-6 5-11 16-8 10-14 17-7 9h-2l-2 4-41 41-7 8-14 15-51 51-8 7-12 11-11 9-13 11-14 11-10 9-20 15-36 26-15 11-25 16-15 11-14 9-26 14-15 10-14 10-24 14-28 15-23 13-22 11-22 12-32 17-24 13-15 10-20 14-15 11-11 9-5 4-2-1 11-11h2v-2l11-9 10-7 7-7h2v-2l10-8 13-8 8-4 4-1 5-2h3l1-3 5-2 6-2 1-2 5-2 20-10 5-4 8-6 7-4h2v-2l9-5 2-2 6-1v-2l5-1 1-3 7-3 1-2h2v-2l9-6 9-3h2v-2l5-2v-2h2l1-3 9-5 9-2 10-3 21-14 10-7 3-3h2v-2l7-3 12-5 12-6 3-1v-2l8-6h2l1-3 4-1v-2l9-5 7-5h2v-2l8-4h2l1-3 7-4 5-5 3-1v-2h2l2-4 9-6 5-6 9-4h3v-2l11-6 8-7h3l1-3 8-6 7-4 4-2v-2l14-10 5-4 4-3h2l1-3 3-2h3v-2l5-3h2v-2l5-4 5-5h3l2-4 15-15 8-7 3-3h2v-2l4-4h2l2-4 4-2 2-4 4-5 7-6 5-7h2l2-5 5-5 4-5 5-4 2-3h2l1-3 5-4 1-2h2l2-4 9-11 5-4h2v-2l5-4 17-17 1-2h2l2-4 16-22 4-8 5-6h2z" fill="#F2C1F5"/>
<path transform="translate(323,966)" d="m0 0h6l2 3-1 6-2 3-1 7-4 5-5 10-9 11-7 6-4 4-17 7-7 3-11 3-13 3-10 9-5-2-1-2v-12l-6 1 2-6 6-10 11-11 20-15 7-5 3 1 9-4 15-8z" fill="#F3C3F5"/>
<path transform="translate(1240,510)" d="m0 0 10 1 8 4 15 14 4 8v12l-3 9-9 10-10 6-8 2h-16l-9-3-10-10-5-7-1-4v-12l3-10 4-5 11-8z" fill="#FDFCFD"/>
<path transform="translate(792,525)" d="m0 0h3l-1 3h-2l-2 5-11 14h-2l-2 5-2 3h-2l-2 4-5 6-4 5-8 7-10 11-7 8-2 3h-2l-2 4-10 10h-2l-2 4-7 8v2l-4 1-1 3h-2v2h-2l-1 3-5 3-2 2-5 2-14 14h-2l-1 3-8 6-3 3h-2l-1 3h-2v2l-11 9-12 11h-2v2l-8 7-6 4-1 2h-3l-1 3-5 4-14 11-4 2-5 5-5 4h-3v2l-4 1-1 3-4 3h-3l-1 3h-3v2l-6 1-1 3h-3l-1 3-7 4-3 3h-4v2l-9 7-4 3-5 1v2l-5 3-5 2-14 8h-2v2l-7 4h-2v2l-6 1-1 3h-2v2l-5 1-1 3-13 5-9 5-3 3-5 1-5 2-1 3-4 1v2h-3v3l-6 2-3 2-4 1-3 2-5 3-4 3h-4l-1 3h-5v3l-4 2-1-1-4 4-6 2-1 2-7 2-4 2h-4l-1 2-7 3-9 4h-3l-1 2-9 4-8 4-3 3-4 1-10 7-8 3-4 1v2l-6 3-15 10-3 1-4 4-3 2h-3l-1 3-4 1v2l-7 4-5 3-16 12h-2v2l-6 5h-2v2l-9 7h-2v2l-5 4-1 3-8 7-18 18-9 11-5 5h-2l-2 4-9 11-5 3-1-2 1-2h2l2-4 4-5 2-3h2l2-4 5-5 9-10 9-11 8-7 9-10 6-5 5-5 14-12 13-10h2v-2l9-6h2v-2l11-7 22-15 9-6 14-7 23-13 29-15 32-16 34-18 29-16 28-16 20-12 21-13 11-8 22-14 3-1v-2h3v-2l11-7 15-12 4-3h2v-2l6-4h2v-2l11-8 9-7 11-9 10-9 14-12 10-9 11-9 12-11 64-64 7-8 11-12 9-10 7-9 5-5 1-2h2l2-4z" fill="#F3C4F4"/>
<path transform="translate(945,461)" d="m0 0 16 2 10 7 8 9 4 10v8l-3 9-9 10-8 5-12 3h-12l-11-4-8-7-6-10-1-3v-11l4-12 7-8 10-5z" fill="#FDFCFD"/>
<path transform="translate(1e3 290)" d="m0 0 5 2 4 2 3 3 12 5 9 3 5 3v2l2 1v3l2-1 12-1 9-2v-1h6l-1 2 2 1v2l-2 1v2l-9 3 5 4 4 3 6 1 14-2 8 1 7-2 7-1 11-3-5 5-13 4-10 3-12 6-9 2-11 3-10 2-2 2h-16v-2l-8-1v-2l-10-1-17-6-9-6-8-3 1-6 9-17 9-11z" fill="#913B9C"/>
<path transform="translate(1331,325)" d="m0 0 2 1-3 1-1 5-7 8-7 7-15 11-35 21-15 6-14 4-7 1h-28l-9-2-6-4-3-5-1-7 1-1v-5l1-1 22-1 27-4 27-7 36-12 20-8z" fill="#487E30"/>
<path transform="translate(1196,122)" d="m0 0h8v1l-19 3-3 1-1 6 3 6 7 2v1l-7 2-10 4-20 12-13 9-11 7-14 5-5 1h-12l-4-5-1-5v-12l2-4 16-10 19-8 21-7 19-5 16-3z" fill="#FDFCFC"/>
<path transform="translate(976,364)" d="m0 0 12 1 9 3 12 6 4 5 4 4 4 8v6l-6 9-8 5-5-1-13-6-14-4-20-1-6-3v-3l-4-2-4-5v-8l6-8h2v-2l6-2z" fill="#06192C"/>
<path transform="translate(1167,227)" d="m0 0 2 1-5 5-9 8-15 9-25 10-20 6-19 3h-22l-15-3-12-5-11-8-7-7-2-4v-7h1v6l7 2 7 4 10 3 16 2h19l22-3 35-8 25-8 13-5z" fill="#487E30"/>
<path transform="translate(144,1157)" d="m0 0 11 2 7 4 4 5 1 3v10l-3 11-8 9-9 4h-9l-10-5-6-7-2-5v-10l3-8 4-5 10-6z" fill="#FDFBFC"/>
<path transform="translate(188,1077)" d="m0 0 10 1 8 4 7 8 3 7v9l-4 6-8 7-10 4h-11l-6-4-3-7v-14l4-10 8-10z" fill="#FCEDEF"/>
<path transform="translate(1455,75)" d="m0 0 6 3 8 6-1 6-11 17-12 21-9 15-6 11-4-2-7-8-1-4 4-12 10-19 9-15 6-7 4-7z" fill="#467C2F"/>
<path transform="translate(499,850)" d="m0 0h10l6 3 7 8 1 9-2 10-6 9-8 4h-7l-8-3-7-6-3-6v-12l5-8 9-7z" fill="#FDFBFC"/>
<path transform="translate(1141,303)" d="m0 0 1 4-3 17-1 15v15l2 14 6 23 5 12 4 6 8 8 12 6 13 4 10 1 24-1 23-4 26-7 6-2 4 1-9 3h-3l-1 5 3 3 5 2v2l6 1 14-4 2 2-10 6-16 7-24 8-4 1h-8l1-9h-2v-6h2l1-4-2-2-10-1-13 1h-20l-17-4-16-8v-2l-4-2-6-7-4-9-5-16-5-25v-26l2-15z" fill="#5E1E6B"/>
<path transform="translate(1327,389)" d="m0 0h4l1 21 1 9h-2l-2-8v-3l-10-1-6 3-3 11-4 4-8 4-4-1-5 2-8 2-5-2v-2l-7-2-2-5 2-3 9-3h3v-2l21-10 23-13z" fill="#78288C"/>
<path transform="translate(792,525)" d="m0 0h3l-1 3h-2l-2 5-11 14h-2l-2 5-2 3h-2l-2 4-5 6-4 5-8 7-10 11-7 8-2 3h-2l-2 4-10 10h-2l-2 4-7 8v2l-4 1-1 3h-2v2h-2l-1 3-5 3-2 2-5 2-14 14h-2l-1 3-8 6-3 3h-2l-1 3h-2v2l-11 9-12 11h-2v2l-8 7-4 3-2-1 7-7 2-4 10-9 14-12 10-9 11-9 12-11 64-64 7-8 11-12 9-10 7-9 5-5 1-2h2l2-4z" fill="#F3C4F3"/>
<path transform="translate(104,1144)" d="m0 0 2 4-11 27-15 47-3 9-3 2-3 11-2 50-2-3-3-24 2-30 1-5h2l2-11h2l-4-5 2-4 5-15 2-5 4-5 4-6 3-6h2l1-5 8-16z" fill="#EFB6F7"/>
<path transform="translate(1121,327)" d="m0 0h1l-3 36v13l4-12 4-1 2 9 1 9-1 6v20l-1 6 2 5 1 6 3 8 1 5-3-1-3 1-1-3 1-3-4-1-2 1-4-11-3-19v-31l4-39z" fill="#913B9C"/>
<path transform="translate(293,896)" d="m0 0 2 1-3 5-4 1v2l-6 3-15 10-3 1-4 4-3 2h-3l-1 3-4 1v2l-7 4-5 3-16 12h-2v2l-6 5h-2v2l-9 7h-2v2l-5 4-1 3-8 7-18 18-9 11-5 5h-2l-2 4-9 11-5 3-1-2 1-2h2l2-4 4-5 2-3h2l2-4 5-5 9-10 9-11 8-7 9-10 6-5 5-5 14-12 13-10h2v-2l9-6h2v-2l11-7 22-15 9-6z" fill="#F3C4F3"/>
<path transform="translate(620,697)" d="m0 0 2 1-7 7-2 4h-3l-1 3-5 4-14 11-4 2-5 5-5 4h-3v2l-4 1-1 3-4 3h-3l-1 3h-3v2l-6 1-1 3h-3l-1 3-7 4-3 3h-4v2l-9 7-4 3-5 1v2l-5 3-5 2-14 8h-2v2l-7 4h-2v2l-6 1-1-3 20-12 21-13 11-8 22-14 3-1v-2h3v-2l11-7 15-12 4-3h2v-2l6-4h2v-2l11-8 9-7z" fill="#F1C3F2"/>
<path transform="translate(127,1043)" d="m0 0h2v5l-6 9-2 1-5 10-4 7-8 15h-2l-3 11-4 8-5 12-7 20-3 9-5 22-3 13-1 10-4 5-1-6 5-29 9-30 10-26 11-23 12-22 7-12h2l2-5z" fill="#F1BBF5"/>
<path transform="translate(577,807)" d="m0 0h7l6 7 2 9-5 7-7 4-7-1-7-6-2-7 4-8 5-4z" fill="#E8AAF8"/>
<path transform="translate(596,791)" d="m0 0h6l1 3 3 1-4 14-3 5-1 2h-2l-2 6-3 3-1-9-2-5-4-2v-2l-11 2h-3l10-10 3-2h3l1-3 6-2z" fill="#B552C7"/>
<path transform="translate(1063,1068)" d="m0 0h10l6 4 5 6 2 7-1 10-4 8-7 6-2-1 3-3 3-11-3-12-7-5-7 1-6 3-6 2-2 4 1-5 7-8z" fill="#04192A"/>
<path transform="translate(1080,1050)" d="m0 0h9l9 4 2 7 1 8-4 19-1 4h-2v2l-7 6-2-1 2-14h-2l-3-9-4-5 4 2 3 3 2-3h2l1-4h2l2-10-5-5-9-3z" fill="#79288D"/>
<path transform="translate(1e3 612)" d="m0 0 2 1 1 20 4 14 1 1v5l4 2 7 9 5 4v2l6 2 4 4 5 4 3 1v2l7 1 2 2 6 3-2 2-9-2-4-2-8-2-4-4-5-2-10-9-2-2v-4h-2l-7-13-4-16z" fill="#AE4EBF"/>
<path transform="translate(206,1084)" d="m0 0 4 2 5 8 1 3v9l-4 6-8 7-10 4h-11l-6-4-1-5 4-1 4 2h10l9-5 5-7-1-9-2-6z" fill="#FDF7FB"/>
<path transform="translate(989,283)" d="m0 0 5 2 3 1 5 5-2 4-8 11-12 23-7 9-13 16-6 8h-2l1-5 2-3h2l1-5 7-8 2-3h2l1-4 6-9 6-12 8-11 3-5-1-6-3-6z" fill="#EFB9F7"/>
<path transform="translate(895,591)" d="m0 0 5 1 7 6 5 8 1 3v15l-6 9-3 2h-4l1-5 2-8-1-11-3-10-4-8z" fill="#FCEDEF"/>
<path transform="translate(188,1077)" d="m0 0 10 1 2 2h-4l-2 12-6 10-4 2-5-3h-2l-1 2-1 9h-1v-14l4-10 8-10z" fill="#F2C1F6"/>
<path transform="translate(620,697)" d="m0 0 2 1-7 7-2 4h-3l-1 3-5 4-14 11-4 2-5 5-5 4h-3v2l-4 1-1 3-4 3h-3l-1 3h-3v2l-6 1 3-6 14-10 14-11h2v-2l6-4h2v-2l11-8 9-7z" fill="#F4C9F2"/>
<path transform="translate(313,1035)" d="m0 0h3l-2 4-9 8-19 12-16 7-10 3-6-1 2-4 10-4 15-7 14-6 9-5z" fill="#FCF7FB"/>
<path transform="translate(1333,424)" d="m0 0h1l2 13 5 16v5l-5-1h-1l-1 3-5-2-2 4-2-5h-2v-11l3-3 2-6 4-7v-5z" fill="#79288D"/>
<path transform="translate(1147,166)" d="m0 0h2l-2 4-10 7-9 5-20 6h-11l-3-1-1-5 1-4h3l2 3h12l12-3 12-6 6-4z" fill="#4F8733"/>
<path transform="translate(983,277)" d="m0 0 3 1v5l-5 4-8 14-9 12-8 10-18 24-5 2 2-6 4-4 2-4h2l1-4h2l2-4 3-5h2l2-5h2l1-5 3-3h2l2-4 10-14 6-10z" fill="#E9B1EE"/>
<path transform="translate(1328,679)" d="m0 0 4 1 7 6 3 6v9l-4 10-6 7-7 4h-19l2-2 14-3h3v-2l6-4 4-7 1-9-6-14z" fill="#FCEBEF"/>
<path transform="translate(1135,439)" d="m0 0 2 1 1-1h2l1 5 18 6 8 1 9 3 3 2v2h2v2h-8l-18-4-9-4v-2l-4-1-5-5z" fill="#913B9C"/>
<path transform="translate(185,980)" d="m0 0 2 1-19 19-9 11-5 5h-2l-2 4-9 11-5 3-1-2 1-2h2l2-4 4-5 2-3h2l2-4 5-5 9-10 9-11 8-7z" fill="#ECB8F0"/>
<path transform="translate(167,1041)" d="m0 0v3l-12 15-12 17-11 17-9 16-9 19-7 18h-2l1-8 1-3 2-1 9-21 8-16 8-13 5-6 4-7 9-12 11-14z" fill="#F0BCF6"/>
<path transform="translate(127,1043)" d="m0 0h2v5l-6 9-2 1-5 10-4 7-8 15h-2l-3 11-5 2 1-5 16-31 9-15h2l2-5z" fill="#F2C0F4"/>
<path transform="translate(570,816)" d="m0 0 5 1v2l4 1 3 7 2 3-4 4-7-1-7-6-2-7 1-3z" fill="#EFB6F7"/>
<path transform="translate(1263,718)" d="m0 0h7l24 4h30l1 4-2 2v-2l-7 1-5 1-10 1-4-1-2 1v-2l-18-4-14-4z" fill="#7E2C90"/>
<path transform="translate(837,472)" d="m0 0v3l-7 9h-2l-2 5-10 13-6 7h-2l-1 4-7 8-5 1 2-4h2l2-4 10-12 1-2h2l2-4 11-14 5-5z" fill="#EEB7F3"/>
<path transform="translate(981,322)" d="m0 0 1 3-7 11-11 13-8 10-2 3h-2l1-5 2-3h2l1-5 7-8 2-3h2l1-4 4-5 5-5z" fill="#F2C2F5"/>
<path transform="translate(869,484)" d="m0 0h3l-1 7-6 5-11 16-8 10-5 6-2-2 6-7 8-12 4-5 4-8 5-6h2z" fill="#F2C0F5"/>
<path transform="translate(878,421)" d="m0 0v3l-5 9-9 10-7 9-6 7-5 2 2-5 8-9 1-2h2l2-5h2l2-4 7-10z" fill="#F1BFF3"/>
<path transform="translate(345,999)" d="m0 0 1 3-8 12-11 13-8 8h-2l2-4 7-10 8-10 3-1 2-5 5-5z" fill="#FCF3FB"/>
<path transform="translate(88,1353)" d="m0 0 5 2 1 6h2l1 5h2l1 7h2l6 11v5l-3-1-8-13-8-17z" fill="#7A298E"/>
<path transform="translate(983,277)" d="m0 0 3 1v5l-5 4-8 14-9 12-5 2 1-4 1-2h2l2-4 10-14 6-10z" fill="#F0BBF4"/>
<path transform="translate(1231,682)" d="m0 0h1l1 7 7 14 9 8 10 4-1 3-7-1-9-3v-2l-3-2v-2h-2l-3-9-4-13z" fill="#7D2C90"/>
<path transform="translate(740,588)" d="m0 0v3l-7 8h-2l-2 4-10 10h-2l-2 4-7 8v2l-4 1-1 3h-2v2h-2l-1 3-5 3-4 2 3-5 7-6 16-16 4-5 5-4 1-2h2l2-4z" fill="#F0B8F8"/>
<path transform="translate(792,525)" d="m0 0h3l-1 3h-2l-2 5-11 14h-2l-2 5-2 3h-2l-2 4-4 3-1-5 5-5 9-11 5-5 1-2h2l2-4z" fill="#EBB4F1"/>
<path transform="translate(1142,287)" d="m0 0 4 1-2 11-4 3-1-4-14 1 1-4z" fill="#863592"/>
<path transform="translate(70,1240)" d="m0 0 1 4-2 50-2-3-2-13v-10l2-10 2-15z" fill="#E3A4F3"/>
<path transform="translate(763,559)" d="m0 0h2l-1 6-4 5-8 7-9 10v-3l3-7 7-7 7-8z" fill="#F2C0F5"/>
<path transform="translate(160,1196)" d="m0 0h2l-2 4-10 7-7 2-8-1-8-5-3-3v-3l14 7h9l10-5z" fill="#7A298D"/>
<path transform="translate(1201,488)" d="m0 0 3 1h-2l-2 4-8 7-7 7-4 5-3 6-4 4 1-8 4-4 2-5 5-4 1-2h2l1-3 4-3h2v-2z" fill="#AD4DBE"/>
<path transform="translate(227,1053)" d="m0 0 5 3 8 8 6 4 1 2h-9l-7-5-5-10z" fill="#FDF8FB"/>
<path transform="translate(989,283)" d="m0 0 5 2 3 1 5 5-2 4-4 4-4 1 1-6-4-9z" fill="#EEB7F6"/>
<path transform="translate(926,400)" d="m0 0 2 1-6 10-1 6h-2l-2 7-3 6-5 2 1-5 9-16z" fill="#963EA2"/>
<path transform="translate(1148,660)" d="m0 0h2l-2 5-7 8-9 3 2-6 10-8z" fill="#AE4DBF"/>
<path transform="translate(1320,458)" d="m0 0 1 3h3v3l3-1 2 1v11l-2 1h-5v-2h2v-2l-2-1v-3-2l-3-3z" fill="#7A298E"/>
<path transform="translate(1280,481)" d="m0 0 10 4 8 4 2 2v3l2 1 2 5-7-6-7-4-8-5v-2h-2z" fill="#A649B7"/>
<path transform="translate(1101,304)" d="m0 0h5l1 5-4 4-7-1-2-1 1-4h2v-2z" fill="#903B9C"/>
<path transform="translate(632,686)" d="m0 0 4 2-6 6h-2v2l-8 7-4 3-2-1 7-7 2-4z" fill="#F3C3F5"/>
<path transform="translate(68,1239)" d="m0 0h2l-2 21-2 8-2-1 1-18 2-9z" fill="#F2C1F6"/>
<path transform="translate(513,851)" d="m0 0 6 2 5 4 2 5v7l-2 7h-1l-1-12-4-7z" fill="#61266B"/>
<path transform="translate(145,1156)" d="m0 0 12 1 4 1 1 4 4 2 3 5v9l-2 4-1-11-3-6-5-4-13-4z" fill="#7A2F89"/>
<path transform="translate(892,401)" d="m0 0 3 1-4 7-6 8-4 4-2-1 2-5h2l2-5z" fill="#ECB9ED"/>
<path transform="translate(858,502)" d="m0 0 1 3-12 16-6 7-2-2 6-7 8-12z" fill="#F1BFF6"/>
<path transform="translate(568,820)" d="m0 0 1 2 3 1v3l4 2 1 5-6-1-5-5v-6z" fill="#F2C0F6"/>
<path transform="translate(1447,87)" d="m0 0 1 3-9 14-8 11-1-2 9-16z" fill="#04192A"/>
<path transform="translate(908,603)" d="m0 0 3 1 2 5v15l-3-1-2-16z" fill="#FDF3F8"/>
<path transform="translate(1258,656)" d="m0 0h8l4 2v2l-9 1-6 2h-4v-2h2v-2h2l1-2z" fill="#7C2B8F"/>
<path transform="translate(919,408)" d="m0 0 1 3-11 19h-3l4-9 7-12z" fill="#F0BEF6"/>
<path transform="translate(150,1016)" d="m0 0h2l-2 4-9 11-5 3-1-2 1-2h2l2-4 4-5 2-3z" fill="#E8AFF0"/>
<path transform="translate(983,579)" d="m0 0 2 1-4 5-5 2h-8l1-4z" fill="#B350C5"/>
<path transform="translate(878,421)" d="m0 0v3l-5 9-3 4-5 2-2 1 2-4 7-10z" fill="#F2C1F5"/>
<path transform="translate(482,863)" d="m0 0 1 3v12l4 7 5 4-1 2-3-1-6-7-3-6 1-8z" fill="#6C2978"/>
<path transform="translate(160,1196)" d="m0 0h2l-2 4-10 7-7 2-4-4 11-2 8-5z" fill="#7E2D8F"/>
<path transform="translate(137,1081)" d="m0 0 1 3-9 14-4 7-2-2 6-11 6-9z" fill="#F1BFF6"/>
<path transform="translate(529,801)" d="m0 0v3l-14 9-4 2-1-2 4-4 11-6z" fill="#F9D4EA"/>
<path transform="translate(963,344)" d="m0 0v3l-1 5-8 10h-2l1-5 2-3h2l1-5z" fill="#EFB8F7"/>
<path transform="translate(165 1e3)" d="m0 0 1 3-12 13-6 2 2-4 10-9 4-2z" fill="#F1BEF6"/>
<path transform="translate(848,459)" d="m0 0 2 1-4 5h-2l-2 4-8 6 2-5h2l2-5h2l2-4zm-15 16m-2 1 2 1-2 1z" fill="#E9B0EF"/>
<path transform="translate(103,1086)" d="m0 0 1 2-3 6-2 7-5 2 1-5 6-11z" fill="#F3C3F4"/>
<path transform="translate(78,1226)" d="m0 0h1l-1 11-2 5-3-2-2 4 1-8 2-4 3-3z" fill="#B552C7"/>
<path transform="translate(792,525)" d="m0 0h3l-1 3h-2l-2 5-6 7-4 1 4-7h2l2-4zm-14 16 2 1-2 1z" fill="#EEB9F1"/>
<path transform="translate(817,616)" d="m0 0 16 8 6 2 2 2-8-1-14-7z" fill="#FCE5EB"/>
<path transform="translate(65,1273)" d="m0 0 4 2v19l-2-3-2-13z" fill="#F0BDF2"/>
<path transform="translate(806,508)" d="m0 0 2 1-1 4-7 8-5 1 2-4h2l2-4z" fill="#F0BDF3"/>
<path transform="translate(837,472)" d="m0 0v3l-7 9h-2l-1 3-5 3 2-4 6-8z" fill="#F0B9F6"/>
<path transform="translate(969,303)" d="m0 0v3l-6 8-4 1 1-4 1-2h2l2-4z" fill="#EFB9F4"/>
<path transform="translate(111,1072)" d="m0 0 1 3-8 15-1-3-2-1 4-7h3l2-5z" fill="#F0BBF6"/>
<path transform="translate(189,1078)" d="m0 0 2 1-6 8-2 2-2 4-3-1 3-6z" fill="#FDEEF0"/>
<path transform="translate(185,980)" d="m0 0 2 1-5 5-7 6v-4l6-7z" fill="#F0B9F7"/>
<path transform="translate(96,1102)" d="m0 0 1 2-2 5-2 4-5 2 4-10 1-2z" fill="#F2BEF5"/>
<path transform="translate(134,1032)" d="m0 0 4 2-8 12-2-3v-2h2l2-5z" fill="#E5ACED"/>
<path transform="translate(214,991)" d="m0 0h2l-2 4-10 9-2-1 6-8z" fill="#F1BEF6"/>
<path transform="translate(667,663)" d="m0 0h2l1 4h-2l-5 5-4 2v-3l5-5 3-1z" fill="#E8AAF8"/>
<path transform="translate(967,338)" d="m0 0 4 1-2 4-5 6h-2l2-7z" fill="#F0BCF6"/>
<path transform="translate(163,1163)" d="m0 0 3 1 3 5v9l-2 4-1-11-3-6z" fill="#61236C"/>
<path transform="translate(1327,389)" d="m0 0h4v18h-1l-1-10-2-4z" fill="#8E3999"/>
<path transform="translate(939,339)" d="m0 0h4l-2 4-3 4-5 2 2-6z" fill="#E7AEED"/>
<path transform="translate(993,303)" d="m0 0h2l-2 6-4 8h-3l2-6z" fill="#863298"/>
<path transform="translate(65,1251)" d="m0 0 3 3-1 12-2 2-1-4z" fill="#F1BCF6"/>
<path transform="translate(78,1222)" d="m0 0 1 4-3 6-2 1-2 6h-1l1-8 4-4z" fill="#E8AAF8"/>
<path transform="translate(888,410)" d="m0 0 1 2-7 9-3-1 2-5h2v-2z" fill="#EEB8F3"/>
<path transform="translate(1147,453)" d="m0 0 6 1 10 3 1 2-9-1-8-4z" fill="#752788"/>
<path transform="translate(142,1025)" d="m0 0 1 4-4 4-4 1 1-4h2l2-4z" fill="#F0BEF1"/>
<path transform="translate(849,515)" d="m0 0 1 2-9 11-2-2z" fill="#F0BDF6"/>
<path transform="translate(1124,427)" d="m0 0 1 3 4 1v6h-3l-2-4z" fill="#802E92"/>
<path transform="translate(926,400)" d="m0 0 2 1-6 10-1 3-3 1 2-5z" fill="#A044AD"/>
<path transform="translate(924,362)" d="m0 0v3l-2 3h-2l-2 4-3-1 1-2h2l1-4z" fill="#D99DE1"/>
<path transform="translate(946,331)" d="m0 0 1 4-5 5h-2l1-5h2v-2z" fill="#EEB9F2"/>
<path transform="translate(128,1200)" d="m0 0 5 2 9 4-1 2-9-3-4-3z" fill="#682475"/>
<path transform="translate(145,1069)" d="m0 0 1 3-7 10-2-2z" fill="#EFBBF6"/>
<path transform="translate(481,879)" d="m0 0h2l6 8 3 2-1 2-3-1-6-7z" fill="#672C70"/>
<path transform="translate(846,632)" d="m0 0h7l8 3v1h-7l-8-3z" fill="#812E92"/>
<path transform="translate(794,578)" d="m0 0h2v2l-5 4-5 6-3-1z" fill="#853195"/>
<path transform="translate(1179,511)" d="m0 0 1 4-5 7-1-4 1-4z" fill="#A749B7"/>
<path transform="translate(908,430)" d="m0 0h3l3 1v2h-2v2l-5 1-1-2z" fill="#A84BB8"/>
<path transform="translate(1337,707)" d="m0 0 1 4-6 7-3-1z" fill="#FDF2F6"/>
<path transform="translate(645,682)" d="m0 0 2 2-4 4h-2l-2 4-3 2 1-4h2l2-4 4-2z" fill="#E8AAF8"/>
<path transform="translate(871,488)" d="m0 0 2 3-1 9-1-2-2-1h2v-2l-3 1-1-3 3-2z" fill="#B552C7"/>
<path transform="translate(878,421)" d="m0 0v3l-3 6h-3l-2 1 2-5z" fill="#EFBEF0"/>
<path transform="translate(957,353)" d="m0 0 2 1-2 4-3 4h-2l1-5z" fill="#EEB4F8"/>
<path transform="translate(1263,718)" d="m0 0h7l10 2-3 2-10-2z" fill="#853195"/>
<path transform="translate(1231,682)" d="m0 0h1l1 7 3 9-3-1-3-12z" fill="#802D91"/>
<path transform="translate(866,437)" d="m0 0 3 1-7 8h-1v-6z" fill="#EDB7F3"/>
<path transform="translate(983,277)" d="m0 0 3 1v5l-4-1-1 3-2-1z" fill="#F3C4F3"/>
</svg>
