<?xml version="1.0" encoding="UTF-8"?>
<svg version="1.1" viewBox="0 0 1480 1480" width="370" height="370" xmlns="http://www.w3.org/2000/svg">
<path transform="translate(1167,176)" d="m0 0h29l9 1h11l12 2 30 9 29 14 8 6 6 1h5l4-2 2-4 6-9 8-7 7-4 7-1 13 2 14 9 9 7 9 14 1 3v20l4 5 4 3h6l5 5 9 11 5 10 2 6 1 11-2 6-6 8-12 6-10 4-4 4v9l6 18 4 17v22l-1 16-5 22-6 21-7 16-12 20-5 10v12l4 7 7 9 12 19 10 18 11 24 10 28 5 27v51l-2 13-5 26-1 9-3 8-4 10-11 24-14 24-22 33h-2l-2 4-6 9h-2l-2 4-19 19-7 8-8 8-8 7-14 13h-2l-1 3-10 8-10 9-10 7-9 9-10 8-9 7-11 9-8 6-9 7-11 8-7 4-10 10-8 4-9 5-9 8-7 4-5 4-7 4-10 7-18 11-11 7-8 6-4 2-14 8-16 8-8 5-12 7-4 4-32 16-23 11-8 4-1 1-9 2-11 6-16 8-7 1-12 6-12 4-7 2-19 7-10 4-7 2-3 3-2-1-3 1-3-1v2h-2v2l-7 1-1 3-7 1h-3l-4 4-2-1h-7l-1 4h-9l-3 4h-4-3l-4 1-3-1-2 4h-7l-5 3-20 5-8 4-9 1-17 4-5 2-26 6-23 6-27 5-12 1-5 2-41 3-17-1-11 1-25-2h-8l-6-2-12-2h-9l-7-3-9-1-7-3-9-1-4-3-23-11-17-8-16-11-14-12-10-9-8-7-12-12-15-20-12-20-5-8-11-25-5-14-3-13-3-5-7-1h-32l-11-1-21-6-36-16-16-11-13-10-15-16-4-5-5-7-9-2-11 9-8 4-16-1-11-6-10-14-5-13v-7l3-6 1-12-3-5-4-3-6-2-5-5-6-12-4-11v-18l4-16 5-5 10-5 5-1 24 1 3-5 1-21 5-27 10-24 8-16 12-20 11-13 14-15 9-9 15-10 12-9 16-9 11-6 14-7 10-3 16-6 19-10 18-12 26-12 25-9 21-6 4-2 11-2 5-2 12-2 72-24 19-8 24-8 16-7 5-3 11-4 25-12 38-16 9-3 19-8 35-17 24-13 15-10 16-10 16-8 17-8 13-8 19-12 23-15 12-8 14-9 13-8 15-9 17-10 13-9 18-13 22-18 13-11 15-12 13-10 9-6 25-13 25-15 24-15 24-14 22-11 16-7 12-5 10-2 11-3zm-231 952m-2 1m-4 1m-2 1-1 2 3-1z" fill="#2A0F04"/>
<path transform="translate(1181,460)" d="m0 0h40l8 1 1 1 13 2 13 3v2l5 1 6 2 10 2 7 4 6 3v2h3v2l5 1v2l5 2 3 2v2l5 2 7 5 6 3 9 9 5 8 6 7 9 15 8 16-1 4-4 9-1 2v11l5 23 2 17-1 23-2 19-4 14-2 8-2 6-3 10-5 7h-2v2l-18 8-7 7-9 11-11 13-11 11-7 8-10 10-7 8-6 7-8 7-9 9h-2l-1 3-8 7-14 13-10 8-3 1-2 4-5 4h-2v2l-11 8-12 9-5 2v2l-10 8-11 8-10 9-9 7-9 8-13 9h-2v2l-11 7-10 7-15 10-12 9-19 14-15 10-17 10-19 10-10 5-12 5-11 5-24 9-20 7-24 7-24 8-17 6-20 7-15 6-12 4-12 5-21 7-16 5-52 14-12 3-25 8-19 6-29 6-44 6h-51l-16-3-32-5h-14l-9 2-2 1-1 6-9-1-8-5-11-7-17-12-9-7-5-4-7-8-14-14-4-5-5-3-2-2-4-1-5-7-2-5-5-8-4-9-4-21-2-3-1-18v-14l2-18 3-8 3-17 2-5h2l2-9 5-13 7-11 6-8 1-3 3-2 1-3 4-4 3-4h2l2-4 7-7 8-7 4-3h2v-2h3v-2l9-5 30-15h4v-2l10-4 17-4 8-4 7-1 8-3 9-2 8-3 21-6 15-3 12-4 9-2 11-4 1-1 13-2 8-4 16-4 11-4h3v-2l18-5 16-6 9-4 12-4 3-2h5v-2l14-6 8-2v-2l7-1v-2l9-2v-2l7-1v-2l7-3 7-2 8-4 6-2 32-16 5-2 15-8 11-6 8-4 17-10 4-2h3v-2l10-6 9-6 11-6 5-3h3v-2l9-5 13-8 11-8h3v-2l7-4h2v-2l11-6 4-4h2v-2h3v-2l8-5h2v-2l3-2h3v-2l8-7 5-3 10-7h2v-2l11-8h2v-2l6-4 13-11h2v-2l5-3 4-4 8-6 7-4 3-3 8-6 16-13 9-8 4-3h2v-2h3v-2l5-2v-2l14-8 16-8 14-5 7-1 5-2z" fill="#EBB974"/>
<path transform="translate(1177,206)" d="m0 0 31 1 14 2 3 1 15 2 8 3 5 3 15 7 9 3v2l4 1 2 4h5l15 14v2l3 1 2 5 8 8 5 3 5 5-1 3-20 5-2 4 1 3 4 1 1 1h7l6-2 10-7 3-1 5 12v46l-2 12-6 16-5 12-8 17-9 14-2 3h-2l-2 5h-2l-2 6h-2l-1 4h-2l-2 4-6 7-7 1-16-6-12-4-34-5-17-1h-20l-21 2-22 5-21 7-13 7h-3v2l-5 3h-3v2h-3v2l-6 4h-3v2h-3v2h-3v2l-11 8-14 10-2 2h-3l-2 4-15 14-6 5h-3v2l-4 3h-3v2h-3l-2 4-9 7-4 3h-3l-2 4-5 4h-2l-2 4h-3l-1 3h-3l-1 3-4 1v2l-4 3h-3v2h-3v2h-3v2h-3v2l-5 3h-3v2h-3v2h-3l-1 3-11 7h-3v2h-3v2h-3v2h-3v2l-7 4-5 4h-3v2h-3v2l-11 7-6 4h-3v2l-4 2h-3v2l-6 3h-3v2l-8 4-5 3h-3v2h-3v2l-9 5-17 10-8 4-18 10-15 7h-2v2l-12 6h-4v2l-12 5-7 4-11 4-8 4-14 5-7 4-11 4-10 5-20 7-21 9-34 12-18 6-19 6-22 6-8 3-22 6-11 2-8 3-22 6h-3v2l-14 4-9 2-8 4-25 7-10 4-16 9-8 7h-4l-2 4-4 5-3 1-12 12-5 4-3 1-3 4h-3l-2 5-3 3-3 5-5 5-4 7-2 4h-2l-1 5-9 16h-2l-2 8-3 7-6 15h-2v-3h-2l-4-5h-10l-9 2-4 2-38 5-10 1-5 2-2 5-2 1 1 3 4 1 1 5-3 2h-6l-29-10-9-5-12-7-9-8v-2h-5l-7-10-3-8 7-1 9-4 11-8 4-5 1-2v-6l-4-1-13 5-12 7-6 5h-3l-2-24-4-27v-12l2-6 1-18 6-18 4-7 1-5h2l3-10 4-8h2l2-5 3-5h2l1-4h2l2-5 7-8 5-4 5-5 6-5 5-4 3-3h3v-2h3v-2l16-9h3v-2h4v-2l13-6 10-3 2-2 11-1v19l6 25 8 16 9 16 3 5 5 5 5 6 4 2v2l6 2 5 4 21 8 14 4 11 2 33 1 18-1 10-2 21-7 13-8 8-8 5-4 10-14 5-11 3-7 2-16 6 1 6 3v2l9 3 23 8h21l16-4 14-7 13-10h2l2-4 7-10 8-16 4-13 1-5 1-42v-3l6 1 16 8v2h3v2l5 1 14 6 14 7 5 2 24 3 2 1h7l17-4 16-8 11-7 8-9 6-9 7-19 4-16v-23l-2-11v-16l1-2 6 1 8 4v2l6 2 4 3 7 4 6 4 25 10 10 2h38l6-2 16-3 23-11 17-11 8-7 7-6 15-20 7-10 10-19 4-8 3-9 9-36h2v2l9 2 7 4 15 3 16 1 13-2 13-5 12-8 9-9 9-13 3-9 1-6v-32l-4-13-4-8v-4h-2l-6-11-6-9-5-5-15-11-11-7-8-6-3-1-1-4 3-3h3v-2h3v-2l4-1v-2l4-1v-2h3v-2h3v-2l6-3h2v-2h3v-2l5-1v-2l7-4h3v-2l14-7 15-7 12-5 14-3 7-2z" fill="#E3735C"/>
<path transform="translate(1348,534)" d="m0 0 4 4 9 15 8 14 12 25 6 20 4 22 1 19v15l-1 20-3 15-5 20-6 16-11 25-10 17-9 14-6 8-10 13-9 9-9 11-13 13-8 7-16 16-14 11-15 14-13 10-11 9-14 11-8 7-11 8-10 8-12 9-18 13-17 11-15 10-13 8-17 11-16 10-13 8-15 9-11 6-11 7-86 43-15 7-23 10-33 12-15 6-31 11-36 12-34 11-31 9-25 7-33 8-34 7-30 4-14 1h-59l-27-4-17-4-27-8-16-8-11-6-16-10-14-11-14-13-9-11-8-9-10-13-13-24-8-18-6-19 1-3 7 13 2 2 2 6 3 2v2l5 1 3 4 5 3 11 12 7 7v2l4 2 1 3 4 2 7 6 20 14 11 7 11 6 6 1v-6l5-3 12-1h9l34 5 14 3h51l38-5 27-5 24-7 25-8 9-3 21-5 37-10 24-7 9-4 15-5 10-4 16-6 22-8 12-4 8-3 19-6 18-6 8-2 15-5 10-4 21-8 9-4 17-7 11-6 24-13 21-14 19-14 12-9 24-16 10-7h2v-2l11-7 26-22 11-9 8-6 6-5h2v-2l12-8 14-11h2v-2l8-6 5-5 13-11 12-11h2l2-4 8-7 3-1 2-4 4-4h2l1-3 5-5 7-8h2l2-4 14-14 7-8 9-9 8-10 12-14 6-5 14-6h2v-2h2l2-4 3-7 3-9 2-5 4-18 1-2 2-22 1-20-2-17-5-23v-11l4-10 2-2-1-6-11-20z" fill="#AD602F"/>
<path transform="translate(1e3 285)" d="m0 0h13l9 1 19 9 4 3v2l4 1 1 2 3 1 1 2 8 4 3 4 5 3 7 9 8 15 3 9v15l-3 12-5 8-5 6-9 7-9 5-11 4-11 2-18 1-13 3-3-5-1-6v-21l2-5v-19l1-2h7l5 3 1 6-2 6v7h10l16-8 6-4-1-7-5-8v-2l-4-2-1-4-4-2-13-8-5-2h-19l-9 4-5 4-4 10h-2l2 25 1 6-1 30-1 18-5 18-7 19-4 8h-2l-2 6-1 2h-2l-1 4h-2l-1 4-8 10-8 7-6 5-10 7-26 13-11 4-5 1h-19l-17-4-14-4-16-8-23-13v-2l-9-3-7-3h-13l-9 4-5 5-2 3v27l3 22v17l-2 10-7 16-5 7-7 6-16 8-12 2h-10l-19-5-17-7-16-9v-2l-4-1-12-7-9-6-10-4h-8l-7 4-3 5v12l2 12v22l-3 19-3 14-4 8-4 6-9 8h-2v2l-13 6-7 2h-21l-12-3-21-11-14-4h-14l-3 5-2 5-3 25-5 11-5 9-8 9-3 3h-3v2l-5 2-8 4-14 4-12 2h-41l-15-4-19-10v-2l-5-2-7-6v-2l-3-1v-2l-4-2-3-4v-2l-5-2-5-9-4-20v-14l1-9 3-12h2l1-5 4-7h2l2-6 5-5 8-7 3-3 5-4 17-9 5-2 12-2 5-2 17-2h24l9 2h4v2l6 2 5 8 9 5 6 3 4 1 29 2 15 4 4 2 1 4 5 2 9 4 13 8 7 2h7l14-7 5-6 4-17-1-38v-15l1-13 4-10 2-3h2l2-4 3-3h2l1-3 10-6 19-5 11 2 4 3 13 6 8 2 11 7 9 8 11 9 9 7 8 3v2h16l10-7 3-4 2-9v-16l-4-15-1-5v-31l3-7 4-8 15-14 8-5h4v-2l12-4 9-1h17l8 2 17 9 5 3 17 10 7 3 7 2 14 1 18 1 6-4 4-5 2-4 1-12-8-1-7 3-13 5h-9l-16-6-11-6-4-4-6-3-9-5-5-2 4-4 6-4h2v-2l9-5 7-3 8-5 6-10h2l1-6 7-8 8-6 9-4h13l16 2h10v-3h2l-2-5v-7l4-1v-2h3v-2l12-5h2l-1 13-4 9-5 1-1 7 4 7v15l-10 23-4 11-3 5-1 9 3 2 6-1 5-4 10-16 5-10 5-13h2l1-6 4-16 2-19v-27l2-15 6-12h2l1-4 1-2h2l1-4h2l2-4 9-8 7-4 3-3 11-5z" fill="#FDCE2B"/>
<path transform="translate(248,675)" d="m0 0h3v19l6 25 8 16 9 16 3 5 5 5 5 6 4 2v2l6 2 5 4 21 8 14 4 11 2 33 1 30-2 2-1h6l-3 3-10 4h-3l-1 3-16 9-8 7h-4l-2 4-4 5-3 1-12 12-5 4-3 1-3 4h-3l-2 5-3 3-3 5-5 5-4 7-2 4h-2l-1 5-9 16h-2l-2 8-3 7-6 15h-2v-3h-2l-4-5h-10l-9 2-4 2-38 5-10 1-5 2-2 5-2 1 1 3 4 1 1 5-3 2h-6l-29-10-9-5-12-7-9-8v-2h-5l-7-10-3-8 7-1 9-4 11-8 4-5 1-2v-6l-4-1-13 5-12 7-6 5h-3l-2-24-4-27v-12l2-6 1-18 6-18 4-7 1-5h2l3-10 4-8h2l2-5 3-5h2l1-4h2l2-5 7-8 5-4 5-5 6-5 5-4 3-3h3v-2h3v-2l16-9h3v-2h4v-2l13-6 10-3 2-2z" fill="#E4745C"/>
<path transform="translate(1348,534)" d="m0 0 4 4 9 15 4 10 5 10v3l-3 1-2-1-6 3-1 4 5 24 3 15-1 25-1 12-2 10-8 31-7 20-6 16-7 15-10 16-8 12-11 14-3 4h-2l-2 4-8 9-14 16h-2v2l-8 7-7 6-5 5-11 10h-2l-2 4h-2l-1 3-10 8-6 5h-2v2l-12 9-10 8-9 7-4 4-8 6-3 3h-2l-2 4-11 9-5 3-11 9-5 3-8 6-18 12-4 3h-2v2l-8 4-7 4h-2v2l-8 4-10 6-13 8-10 6-2 2-7 3-8 5-13 8-9 5-12 7-11 6-33 16-23 11-5 3-14 5-5 1v2h-5l-1 2-14 5-8 3-16 5-12 5-16 5-6 3-10 3-4 1-7 2-14 5-10 4-6 1-3 2-7 1-6 2-24 7h-2l-1 3-2-1-2 2-5 1h-4l-6 3-13 3-8 3-24 5-13 3-12 1-10 3-25 2-13 2-37 1-21-1-6-1-19-1-24-3-14-3 1-2h6l4-1v-5l4-6 3-1 1-2 6-1-14-1-3-1-1 2h-3l-2 5-2 2-1 7-4 2-5-1-8-3-3-1-5-2-13-6-5-2-1-2 8 1v-6l5-3 12-1h9l34 5 14 3h51l38-5 27-5 24-7 25-8 9-3 21-5 37-10 24-7 9-4 15-5 10-4 16-6 22-8 12-4 8-3 19-6 18-6 8-2 15-5 10-4 21-8 9-4 17-7 11-6 24-13 21-14 19-14 12-9 24-16 10-7h2v-2l11-7 26-22 11-9 8-6 6-5h2v-2l12-8 14-11h2v-2l8-6 5-5 13-11 12-11h2l2-4 8-7 3-1 2-4 4-4h2l1-3 5-5 7-8h2l2-4 14-14 7-8 9-9 8-10 12-14 6-5 14-6h2v-2h2l2-4 3-7 3-9 2-5 4-18 1-2 2-22 1-20-2-17-5-23v-11l4-10 2-2-1-6-11-20z" fill="#C27A3E"/>
<path transform="translate(828,381)" d="m0 0 5 1-1 7-5 8-1 4 2 4 3 2 2-2 1-4 5-1-1 6h-2l-2 6-4 5-11 7-7 3-6 2v2l-11 7 4 2 18 10 4 4 15 7 9 3h9l15-6 7-2 6 2v12l-5 8-6 5-2 1-25-1-9-2-11-3-8-5-15-9-19-10-6-1h-17l-13 2-8 2v2l-5 2-9 6-12 11-4 8-3 7v31l4 18 1 2v16l-3 11-8 7-5 3h-11l-5-1v-2l-6-1-6-4-22-18-7-6-9-5-9-2-13-7-4-2-8-1-19 5-10 6-5 5-3 4h-2l-2 5-3 8-1 13v15l1 38-4 17-6 7-14 7h-7l-11-4-10-7-9-4-4-2-2-4-13-4-18-2-16-1-9-3-7-5-4-2-4-7-6-3v-2l-6 1-7-2h-24l-17 2-8 3-9 1-19 9-5 2-1 3-4 1-2 4-2-1 2-8-6 1-4 1-2 4-5 1v2l-7 3-1-5v-2l4-1v-2h2v-2h2v-3l6-2 2-4 4-3v-4l17-8 25-9 21-6 4-2 11-2 5-2 12-2 72-24 19-8 24-8 16-7 5-3 11-4 25-12 38-16 9-3 19-8 35-17 24-13 15-10 16-10 16-8 17-8 13-8 19-12 23-15 6-4 3 1-1 3 1 3 4-4-3 1v-2h3v-2z" fill="#2B0F05"/>
<path transform="translate(1181,460)" d="m0 0h40l8 1 1 1 13 2 13 3v2l5 1 6 2 10 2 7 4 6 3v2h3v2l5 1v2l5 2 3 2v2l5 2 7 5 6 3 9 9 5 8 6 7 5 8 4 11 3 6v8l-6 15h-6l-9-12-14-21-9-11-11-11-17-11-17-10-11-4-21-5-8-2h-33l-26 3-18 4-16 6-13 7-17 12-19 14-14 11-12 9-25 20-14 11-13 10-18 13-15 10-17 11-18 11-24 14-29 19-27 15-23 13-40 20-16 7-15 7-34 15-25 11-48 20-27 11-37 14-38 12-53 15-41 14-18 8-19 9-17 10-11 8-10 9-9 10-11 14-9 16-5 12-6 21-1 4v20l2 22 4 29 3 17v10l-2 1-9-6-7-6-7-11-4-9-4-21-2-3-1-18v-14l2-18 3-8 3-17 2-5h2l2-9 5-13 7-11 6-8 1-3 3-2 1-3 4-4 3-4h2l2-4 7-7 8-7 4-3h2v-2h3v-2l9-5 30-15h4v-2l10-4 17-4 8-4 7-1 8-3 9-2 8-3 21-6 15-3 12-4 9-2 11-4 1-1 13-2 8-4 16-4 11-4h3v-2l18-5 16-6 9-4 12-4 3-2h5v-2l14-6 8-2v-2l7-1v-2l9-2v-2l7-1v-2l7-3 7-2 8-4 6-2 32-16 5-2 15-8 11-6 8-4 17-10 4-2h3v-2l10-6 9-6 11-6 5-3h3v-2l9-5 13-8 11-8h3v-2l7-4h2v-2l11-6 4-4h2v-2h3v-2l8-5h2v-2l3-2h3v-2l8-7 5-3 10-7h2v-2l11-8h2v-2l6-4 13-11h2v-2l5-3 4-4 8-6 7-4 3-3 8-6 16-13 9-8 4-3h2v-2h3v-2l5-2v-2l14-8 16-8 14-5 7-1 5-2z" fill="#FCFAF8"/>
<path transform="translate(584,589)" d="m0 0 1 2-1 2v12l2 12v22l-3 19-3 14-4 8-4 6-9 8h-2v2l-13 6-7 2h-21l-12-3-21-11-14-4h-14l-3 5-2 5-3 25-5 11-5 9-8 9-3 3h-3v2l-5 2-8 4-14 4-12 2h-41l-15-4-19-10v-2l-5-2-7-6v-2l-3-1v-2l-4-2-3-4v-2l-5-2-5-9-4-20v-14l1-9 3-12h2l1-5 4-7h2l2-6 5-5 8-7 3-3 5-4 17-9 5-2 12-2 5-2 17-2h24l9 2h4v2l6 2 5 8 9 5 6 3 4 1 29 2 15 4 4 2-2 1-13-4-24-3v2l-12 2-3 5-1 5 1 3h2l2 4 5 2 11-2h9v1l-16 3h-11l1 3 6 2 11 10 6 2v-2h3l3-5 2-1h10l9 3v2l10 1 3 2 19 3 12 3 15 1 12-3h4v-2l5-4 9-11 3-4 1-9-5-9-3-12-1-6v-15l2-12 5-5 5-1 4 1z" fill="#FDCD2B"/>
<path transform="translate(940,788)" d="m0 0h10l9 8 4 8 1 3v20l-5 9v8l7 15 6 21 3 17v22l-3 8-3 10-6 10-10 12-11 8-12 6-14 4-15 2-21-3-12-4-14-9-13-12-1-3-4-2-9-10-8-9-9-11-12-5-10-5-10-7-4-5-1-2v-10l4-10 7-6h10l9 6v2l3 1h15l15-5 5-2v-2l5-1v-2h2v-2h2v-2l6-5 3-5 9-6 7-4 7-2 12-1 21-7 12-9 3-4v-8l-1-4v-8l4-5z" fill="#290E04"/>
<path transform="translate(759,452)" d="m0 0h17l16 8 4 4 3 1 5 5 13 8 14 8 5 2 23 1 11-2 10-4 5 2 1 3-4 4-8 4-17 4-13 1-8-2-19-10-16-8-11-5-12-3h-16l-14 5-3 2-1 7-4 7-3 4h-2v2l-8 2 1 8v9l2 18 1 23v8l-2 14-3 7-4 6-9 7-4 1v2l-9 1-23-7-9-4-19-6-10-4-2-1v-2l-6-1v-2l-11-3h-11v8l-5-1-7-2h-4v2h-2l-1 3-6 4-1 2-11 1-2 4-2 12v15l2 8v8l2 1 2 5 3 5-1 9-8 10-8 9h-2v2l-9 2-7 2-15-1-12-3-19-3-3-2-10-2v-2l-12-2h-9l-2 5-2 1-2-1v2l-6-1-12-11-5-2-2-4h12l7-2-13 2-5-5v-2h-2l-2-4 3-8 5-3h9v-2l18 1 16 4 6 3v2l5 2 9 4 13 8 7 2h7l14-7 5-6 4-17-1-38v-15l1-13 4-10 2-3h2l2-4 3-3h2l1-3 10-6 19-5 11 2 4 3 13 6 8 2 11 7 9 8 11 9 9 7 8 3v2h16l10-7 3-4 2-9v-16l-4-15-1-5v-31l3-7 4-8 15-14 8-5h4v-2l12-4z" fill="#FEDA31"/>
<path transform="translate(672,805)" d="m0 0h18l17 3 10 4 8 6v2l4 2v2l3 1 9 14 5 11 3 14v17l-1 10-5 8-6 11-1 2h-2l-2 4-10 9-11 6-10 4h-20l-14-4-12-5-6-4-7-8-8-11-6-13-4-17v-19l1-9h2l3-9 5-10 7-8 8-6 18-6z" fill="#290E04"/>
<path transform="translate(984,648)" d="m0 0h8l15 3 15 8 11 8 5 4 10 14 6 15 1 13-2 17-3 11-4 10-11 13-10 6-5 1v2l-10 3-19 1-14-2-21-10-9-8-7-10-5-11-5-18v-8l4-21 3-8 6-11 6-7 10-8 12-5z" fill="#290E04"/>
<path transform="translate(1181,460)" d="m0 0h40l8 1 1 1 13 2 13 3v2l5 1 6 2 10 2 7 4 6 3v2h3v2l5 1v2l5 2 3 2v2l5 2 7 5 6 3 9 9 5 8 6 7 5 8 4 11 3 6v8l-6 15h-6l-9-12-14-21-9-11-11-11-17-11-17-10-11-4-21-5-8-2h-33l-26 3-18 4-16 6-13 7-17 12-19 14-14 11-12 9-25 20-14 11-13 10-18 13-15 10h-6l-7-7h-11l-3-2 4-4 1-3h3v-2l8-5h2v-2l3-2h3v-2l8-7 5-3 10-7h2v-2l11-8h2v-2l6-4 13-11h2v-2l5-3 4-4 8-6 7-4 3-3 8-6 16-13 9-8 4-3h2v-2h3v-2l5-2v-2l14-8 16-8 14-5 7-1 5-2z" fill="#FDFBFA"/>
<path transform="translate(1e3 285)" d="m0 0h13l9 1 19 9 4 3v2l4 1 1 2 3 1 1 2 8 4 3 4 5 3 7 9 8 15 3 9v15l-3 12-5 8-5 6-9 7-9 5-11 4-11 2-18 1-13 3-3-5-1-6v-21l2-5v-19l1-2h7l5 3 1 6-2 6v7h10l16-8 6-4-1-7-5-8v-2l-4-2-1-4-4-2-13-8-5-2v-2l-6-1v-2h-12l-1 2v-3l12-2 5-1-1-5-7-1-10 5-9 2-3 4h-3l-1 2-6 4-3 3v-2h-2v2h-2v3h-2l-1 12-1 3v17l1 6-2 9-2 1-3 16-2 10-1 14v9l-3 7-3 5h-2v2l-7 6-7 8-10 12-2 2-2-2 1-5 7-10h2l2-5 5-7-5 5-2 3h-2l-2 4-5 4-3-3 2-5 1-3h2l2-7 2-6 5-17 7-28 2-19v-27l2-15 6-12h2l1-4 1-2h2l1-4h2l2-4 9-8 7-4 3-3 11-5z" fill="#FDD831"/>
<path transform="translate(363,612)" d="m0 0h33l9 4 7 5 2 5 3 8v2l-4 1-6-1h-28l-30 1-13 2-12 6 5-2 3 1v3l-2 1 4 6-2 10-3 5h-2v8l-1 5v14l2 6 3 1 3 4 10 4 12 9 11 5v2l8 1v2l20-3 15-13 1-2h2l3-14 3-16h2l1-8 3-4 4 10 3 10v8l-6 25-7 11-11 8-11 4-22 2-41-2-24-3-7-2-5-1v-2l-4-2-3-4v-2l-5-2-5-9-4-20v-14l1-9 3-12h2l1-5 4-7h2l2-6 5-5 8-7 3-3 5-4 17-9 5-2z" fill="#FDD831"/>
<path transform="translate(142,915)" d="m0 0h3l5 6 10 7 20 10 24 8h6l2-2v-4l-5-1v-4h2l2-6 5-2 33-4 15-2 8-3 5-1h10l4 4v2h2v3h2l-10 45v16l1 9v13h-19l-22-4-17-5-21-9-16-9-10-8-10-9-9-9-7-10-6-12v-10l-7-8z" fill="#993F28"/>
<path transform="translate(950,605)" d="m0 0 2 1-4 4 4 1h9l4 5 7 3-5 5-20 12-13 8-19 11-29 19-27 15-23 13-40 20-16 7-15 7-34 15-25 11-48 20-27 11-13 5-3-1 3-3 4-2 2-10 9-10 7-4-1-2 16-6 9-4 12-4 3-2h5v-2l14-6 8-2v-2l7-1v-2l9-2v-2l7-1v-2l7-3 7-2 8-4 6-2 32-16 5-2 15-8 11-6 8-4 17-10 4-2h3v-2l10-6 9-6 11-6 5-3h3v-2l9-5 13-8 11-8h3v-2l7-4h2v-2l11-6z" fill="#F8EDDA"/>
<path transform="translate(921,359)" d="m0 0h2l-1 13-4 9-5 1-1 7 4 7v15l-10 23-4 11-3 5-1 9 3 2 6-1 5-4 6-9 1 2-8 14-4 5-12 8-6 2-1-3-3 1-5 5-11 6-4 1h-18l-14-3-16-8-12-7-1-2-9-4-5-4-11-6 3-1 19 10 5 3 17 10 7 3 7 2 14 1 18 1 6-4 4-5 2-4 1-12-8-1-7 3-13 5h-9l-16-6-11-6-4-4-6-3-9-5-5-2 4-4 6-4h2v-2l9-5 7-3 8-5 6-10h2l1-6 7-8 8-6 9-4h13l16 2h10v-3h2l-2-5v-7l4-1v-2h3v-2z" fill="#994028"/>
<path transform="translate(952,287)" d="m0 0 2 1-1 5-6 8-2 5-5 4 10-4 4-5 3-3 7-2v2l4 1-1 4-8 7-1 2h-2l-1 4h-2l-2 6h-2l-2 5-3 7-2 15v27l-2 19-4 16-2 6h-2l-3 10-4 9-6 11-8 11-6 4h-5l-3-4 1-8 6-12 5-13 6-14v-15l-4-7 1-4 1-3 5-2 3-8 2-13-12 5h-2v2h-3v2l-3 1v9l1 3h-2v3l-10 1-16-2h-13l-12 6-10 9-7 7-4 3-3-3-2-5 7-14v-4l-2 1v-2l-5 2-2-1v2h-3l3 1-2 4-3 1-1-5 2-5 11-7 15-10 14-8 22-13 13-9 18-13 22-18 13-11z" fill="#2B0F04"/>
<path transform="translate(1340,292)" d="m0 0 2 3 1 8 5 3 8 12 6 16 3 11 2 23v18l-3 19-7 24-8 18-9 17-3 4-5-1-10-7-15-9-6-4-18-7 5-4 7-9 2-1 1-3h2l1-4 1-2h2l2-5h2l2-4 11-19 8-17 6-16 3-9 1-9z" fill="#993F28"/>
<path transform="translate(354,648)" d="m0 0 14 1 14 3 21 10h11l8-2 1 1v13l-2 8h-2l-2 16-2 10-2 4h-2l-2 4-14 12-14 2h-6v-2l-8-1v-2l-4-1-10-5-11-8-9-4-7-8-1-3v-14l2-13h2l2-5 4-7h2v-2l12-6z" fill="#2A0F04"/>
<path transform="translate(930,861)" d="m0 0 4 2 7 17 4 13 1 6v11l-6 17h-2l-2 4-4 5-11 7-4 2-10 2h-19l-12-6v-2l-4-2-8-6-2-4-6-5-7-9-3-5v-4l16-8 10-8 7-8 6-8 1-1h24l12-5z" fill="#FA9686"/>
<path transform="translate(545,559)" d="m0 0h4l1 6-1 13v15l1 38-4 17-6 7-14 7h-7l-11-4-10-7-9-4-4-2-2-4-13-4-18-2-16-1-9-3-5-4 1-2 4-2-3-6v-9l4-5 2-1 11-1 7 3 5 2v2l19 4 9 3v2l7 1 14 4 11 11 4 2h6l3-5v-20l-1-9v-15l4-14 1-4 5-4z" fill="#290E04"/>
<path transform="translate(1177,206)" d="m0 0 31 1 14 2 3 1 15 2 8 3 5 3 15 7 9 3v2l4 1 2 4 4 1 11 12 7 9v2l-6-2-26-12-16-8-14-5-26-6h-37l-26 5-24 8-16 8-21 11-17 11-10 5h-5l-5-4-3-1-1-4 3-3h3v-2h3v-2l4-1v-2l4-1v-2h3v-2h3v-2l6-3h2v-2h3v-2l5-1v-2l7-4h3v-2l14-7 15-7 12-5 14-3 7-2z" fill="#FBF8F4"/>
<path transform="translate(476,714)" d="m0 0 6 1 6 3v2l9 3 23 8h21l16-4 10-5h2l2 5 3-1v2h6v2l3 1-2 5-8 4-2 4-2-1-1 1-4 3 10-1-3 2-24 7-35 10-11 2-8 3-22 6h-3v2l-14 4-9 2-8 4-25 7-5 2-4-1 15-6-12 1 3-2 21-7 13-8 8-8 5-4 10-14 5-11 3-7z" fill="#DF7058"/>
<path transform="translate(1e3 285)" d="m0 0h13l9 1 19 9 4 3v2l4 1 1 2 3 1 1 2 8 4 7 8v3h-8l-14-7-14-5-8-1h-25l-10 2-14 7-8 8-10 15h-2l-1 8-2 6-2 25-2 22-6 25-5 11-6 10-7 9h-2l-2 4-5 4-3-3 2-5 1-3h2l2-7 2-6 5-17 7-28 2-19v-27l2-15 6-12h2l1-4 1-2h2l1-4h2l2-4 9-8 7-4 3-3 11-5z" fill="#FDFBF6"/>
<path transform="translate(759,452)" d="m0 0h17l16 8 4 4 3 1 5 5 13 8 14 8 5 2 23 1 11-2 10-4 5 2 1 3-4 4-8 4-17 4-13 1-8-2-19-10-16-8-11-5-12-3h-16l-14 5-11 7-3 3h-2l-2 4-7 8-4 4-1 3v52l1 19-2 6-4 2h-10l-6-5 3-5 6-5 3-11v-16l-4-15-1-5v-31l3-7 4-8 15-14 8-5h4v-2l12-4z" fill="#FCFAF6"/>
<path transform="translate(248,675)" d="m0 0h3v9l-1 2-1 9-20 7-17 9-12 8-7 6h-2l-1 3-21 21-10 14-9 10-8 16-6 17-3 16-2 18-6 12-2-1-1-9h-2l-1-8v-9l1-7 1-18 6-18 4-7 1-5h2l3-10 4-8h2l2-5 3-5h2l1-4h2l2-5 7-8 5-4 5-5 6-5 5-4 3-3h3v-2h3v-2l16-9h3v-2h4v-2l13-6 10-3 2-2z" fill="#FCF9F6"/>
<path transform="translate(743,514)" d="m0 0h1l1 23 3 22v17l-2 10-7 16-5 7-7 6-16 8-12 2h-10l-19-5-17-7-16-9v-2l-4-1-12-7-9-6-10-4h-11l2-1v-2l5-1 10 3v-7l1-1h13l9 4v2l6 1v2l6 2 28 9 8 4 21 6h9v-2l10-6 5-6 3-5h2l1-7 1-1 1-13 1-5-1-19 1-15 2-4 4-2 3 4z" fill="#FCCC2B"/>
<path transform="translate(363,612)" d="m0 0h33l9 4 7 5 2 5 3 8v2l-4 1-6-1h-28l-30 1-13 2-12 6-10 9-6 10-5 12-6 9-5 10-4 6h-2l-2 5-3 1-2-3-1-16 1-14 2-10h2l1-5 4-7h2l2-6 5-5 8-7 3-3 5-4 17-9 5-2z" fill="#FDFBF7"/>
<path transform="translate(978,355)" d="m0 0h1l3 24-1 30-1 18-5 18-7 19-4 8h-2l-2 6-1 2h-2l-1 4h-2l-1 4-8 10-8 7-6 5-10 7-26 13-11 4-5 1h-19l-17-4-8-2v-1h12l6-3 9-2 12-5 10-7h2v-2l3-2h3v-2l4-1v-2l11-7 15-12h3v-2l6-4 4-5h2l2-5h2l2-4 7-8h2l1-6h2l2-6 6-11 3-4h2l3-9 4-8 3-4z" fill="#F3A123"/>
<path transform="translate(1082,328)" d="m0 0 3 4 7 14 1 4v15l-3 12-5 8-5 6-9 7-9 5-11 4-11 2-18 1-13 3-3-5-1-6v-21l2-5v-19l1-2h7l5 3 1 6-2 6v7h10l16-8 6-4-1-9 3 3 1 6-7 6-7 4-4 4-6 3h-2v5l2 1 9-3 7-3 4-2 1-2h2v-2l8-1v-9h-3l1-4 2-2v-3l3-1 1-3 6-9 1-3h2l1-6h8z" fill="#FDCD2B"/>
<path transform="translate(1175,240)" d="m0 0h14l10 4 8 7 5 8 2 6v11l-4 11-12 9-12 5-6 2-11-1-10-4-8-6-6-7-3-9 1-9 3-7 6-8 9-7 10-4z" fill="#FDFDFC"/>
<path transform="translate(204,742)" d="m0 0h9l10 3 8 6 5 9 1 4v12l-4 10-10 10-14 7-8 2h-7l-8-3-5-4-7-14-1-5v-14l8-11 8-7 10-4z" fill="#FDFDFC"/>
<path transform="translate(594,531)" d="m0 0 11 2 4 3 10 5 2 2 9 3 5 9 5 8-1 1-7-1-9-4-20-6-11 1-12 5-10 9h-2l-1 6-4 15-4 23v31l-3 12-5 8-9 4h-9l-3-6 5-4 8-6 3-6 3-14-1-38v-15l1-13 4-10 2-3h2l2-4 3-3h2l1-3 10-6z" fill="#FCF8F3"/>
<path transform="translate(525,571)" d="m0 0h3v7l-2 8v15l1 9v20l-3 5-1 1h-6l-6-4-9-9-21-6v-2l-7-1-5-2-11-2-5-2v-2l-5-1-8-4v-2l13-5 7-2 15-6 18-5 11-4 20-5z" fill="#C1783E"/>
<path transform="translate(861,384)" d="m0 0h20l15 4 5 4 3 10-2 7v4 8l5 6-3 1-1 10-6 8-4-1-5-5-5-6-4-2-3-3-12-5-16-3-9 1-3-1v-11l4-12 8-8 8-5z" fill="#ECBA74"/>
<path transform="translate(446,687)" d="m0 0h6l1 5h2l-2 13-2 16-5 11-5 9-8 9-3 3h-3v2l-5 2-8 4-14 4-12 2h-41l-15-4-19-10 4-1 1-4 2-1 3 1 12 1 7 1h48l20-6 9-6 8-11 3-6 1-3h3v-2l3-3 2-9v-3l2-5h2z" fill="#F2A023"/>
<path transform="translate(742,481)" d="m0 0h2v6l-4 7-3 4h-2v2l-8 2 1 8v9l2 18 1 23v8l-2 14-3 7-4 6-9 7-4 2h-7l-9-3-13-3-2-4-9-5v-2l-4-1-11-9v-2l-6-2-28-14 3-1 11 5h5l-7-11-3-6-9-3 2-1 8 2 11 7 9 8 11 9 9 7 8 3v2h16l5-2-1 3 5 4h10l4-2 1-5-1-19v-52l2-4 4-4 7-8 5-5 5-4z" fill="#FFE948"/>
<path transform="translate(277,917)" d="m0 0h10l4 4v2h2v3h2l-4 18-1 4h-2l-1 4-10 1h-40l-21-3-15-2-19-7-13-5-8-6 2-1 10 6 13 5 18 6h6l2-2v-4l-5-1v-4h2l2-6 5-2 33-4 15-2 8-3z" fill="#C15F42"/>
<path transform="translate(944,621)" d="m0 0 3 2 1 3-1 1 9 1 4-1-3 3-18 11-24 14-29 19-27 15-23 13-10 5-2-1v-4l-5-2 1-6 10-9 3-3 7-2v-2h4v-2l10-5 18-8 14-9 8-6 11-6 5-3h2v-2l5-1v-2l10-6 3-1 3-3 6-2z" fill="#FEFEBF"/>
<path transform="translate(584,589)" d="m0 0 1 2-1 2v12l2 12v22l-3 19-3 14-4 8-4 6-9 8h-2v2l-13 6-7 2h-21l-12-3-21-11-3-2 11-1 4-2h8l19 2 5 2 9-1 10-3 6-4h2v-2l5-4 9-11 3-4 1-9-5-9-3-12-1-6v-15l2-12 5-5 5-1 4 1z" fill="#F3A123"/>
<path transform="translate(672,824)" d="m0 0h20l6 4 6 7 1 2v12l-2 7-8 9-9 6-8 1h-11l-8-3-5-5-4-7v-13l7-11 7-6z" fill="#FCF9F6"/>
<path transform="translate(69,866)" d="m0 0h15l10 3 5 5 4 9 2 6 5 5 4 12v10l2 8-1 7-7 10-4 4-3 1-1 2-8-1-4-4v-14l5-17 4-14v-5h-18l-9-2-5-6-1-3v-12l2-3z" fill="#DF7059"/>
<path transform="translate(399,590)" d="m0 0 3 1-4 4-6 3h-2l-1 3h-4v2h-2v3l10 1 9 5-2 1-7-2h-24l-17 2-8 3-9 1-19 9-5 2-1 3-4 1-2 4-2-1 2-8-6 1-4 1-2 4-5 1v2l-7 3-1-5v-2l4-1v-2h2v-2h2v-3l6-2 2-4 4-3v-4l17-8 25-9 7-2h6v4h9l5-2 9-1 3-1h15z" fill="#371809"/>
<path transform="translate(679,478)" d="m0 0 3 1-2 5-2 4-4 6-10 2-10 5-7 3-3 2-7 1-2 3-6 1-1-1-8 1-6-1v2l-14 4-8 6-8 1v2l-8 4-9 4-10 3h-5l-3 2h-3v-2l-2-1 7-9h5l-2-6 15-7 25-11 10-4 11-3v2l-3 1-1 2 4 1 4-1v-2l3-1h4l5-3 7-2 6-1v-2l16-6h4v-2l7-2v2z" fill="#371709"/>
<path transform="translate(1e3 254)" d="m0 0 2 1v2l16-2v2l3 1-2 5 2 1-2 5h-2l-2 4-4 4-1 3 6 2h10l4 3 7 1 1 2 8 4 2 2v3l-6-2-16-8-9-1h-13l-18 4-8 4h-2l-1 3-8 4v-2h-5l1-3-3 2h-4l-1 3h-2l-2 4-3 3-9 3v-3l5-2 2-7 6-7v-6l17-13 9-7z" fill="#371709"/>
<path transform="translate(974,669)" d="m0 0h16l10 7 6 12v8l-6 9-8 7-4 3h-16l-9-3-7-8-1-2v-9l3-9 6-9z" fill="#FCFAF7"/>
<path transform="translate(746,550)" d="m0 0h1l1 9v17l-2 10-7 16-5 7-7 6-16 8-12 2h-10l-19-5-17-7-16-9v-2l-4-1-12-7v-1h5l9 5 4 2h7l8 4 13 2 8 1h9l4 1 2-1 8 1h7l12-5 4-2 7-8 4-8 5-14 4-8 2-5 3 1z" fill="#F19F23"/>
<path transform="translate(1339,303)" d="m0 0h1v35l-2 12-6 16-5 12-8 17-9 14-2 3h-2l-2 5h-2l-2 6h-2l-1 4h-2l-2 4-6 7-7 1-16-6-12-4-14-2v-1h11l7-6 5-2 1-3 9-7 7-7h3l1-4 5-5h2l1-4h2v-2l5-2h4l1 3 3 3-2 8 1 7 4 1v-2h3l2-5 2-4h2l2-6 7-14 9-24 3-15z" fill="#C05F42"/>
<path transform="translate(1341,212)" d="m0 0h8l8 4 4 5v10l-3 8-4 7-1 7 8 5 12 4 13 3 6 4 3 5-1 5-5 4-3 1h-17l-6-4-9-11-8-9-13-19-5-5 1-4 8-16z" fill="#DE6F58"/>
<path transform="translate(261,649)" d="m0 0h5l-3 5-7 1 4 4-8 2-3 1-1 5h-7l-7 3h-3v2l-8 4-6 1v2l-9 7-5 3-3-1-7 2-1 2-15 8-9 7-5 4h-2l-2 4-4 3h-2v2h-2v2h-2l-2 5-9 11-5 3-3-1 1-8 2-3h2l1-3h2l2-4 4-5 4-6h2v-2h2l2-4 4-5 4-4 5-1v-2h2v-2h2l1-2 5-4 7-3 2-2 5-2 3-3h2v-2l9-2h2l2-5 4-3h3l1-2 6-2 3-3 9-1h4v-2h3l1-2 9 3 4-1v-2z" fill="#351608"/>
<path transform="translate(424,670)" d="m0 0 6 12 2 8v8l-6 25-6 9-16 10-13 3-12 1-14-3v-2h-3l-7-10-1-9 13 3v2l8 1v2l20-3 15-13 1-2h2l3-14 3-16h2l1-8z" fill="#FCE54A"/>
<path transform="translate(769,473)" d="m0 0 13 1v2l9 6v2h2l1 4-4 1-5-1v2l-2 1v5h-2v2h-20l-9 4-5 5-3 7-2 15h-1l-2-8-4 1-1 7-1 19 1 14-1 3-1 13-3 8-1-4 2-14v-16l-1-15-2-21v-14l5-2h3v-2l5-5 3-6 1-7 7-4 4-2z" fill="#FDD931"/>
<path transform="translate(698,948)" d="m0 0h7l6 2 2 4 1 10-3 7-7 7-9 5-12 5-7 1h-9l-10-5-2-2 1-7 6-8 11-8 16-8z" fill="#E5745D"/>
<path transform="translate(445,635)" d="m0 0 18 1 16 4 6 3v2l5 2 4 4 9 5 11 8 6 2 1 4-5 3h-11l-10-5-11-8-8-3h-26l-13 2-5-5v-2h-2l-2-4 3-8 5-3h9z" fill="#FDF9BA"/>
<path transform="translate(514,959)" d="m0 0h14l9 3 6 7 2 10-3 8-7 8-10 4h-10l-8-3-5-6-3-7v-10l4-7 5-4z" fill="#FDFDFC"/>
<path transform="translate(828,381)" d="m0 0 5 1-1 7-5 8-1 4 2 4 3 2 2-2 1-4 5-1-1 6h-2l-2 6-4 5-11 7-4-1 2-2-6 1-6-3-3 2-8 2h-10l-4 1v-6l3-6 4-4h2v-6l-2-1 23-15 6-4 3 1-1 3 1 3 4-4-3 1v-2h3v-2z" fill="#371709"/>
<path transform="translate(1241,599)" d="m0 0h10l7 3 5 6 2 5v13l-5 10-6 5-4 2-9-1-10-5-4-5-3-9 1-10 5-9 5-4z" fill="#FDFCFB"/>
<path transform="translate(1166,624)" d="m0 0h13l8 5 5 6 2 6v10l-4 8-6 5-4 2h-13l-8-4-6-7-1-3v-10l4-10 4-5z" fill="#FDFDFC"/>
<path transform="translate(1088,748)" d="m0 0h7l5 5 1 2v8l-5 8-11 9-15 8-3 1h-11l-5-3v-3h-2l1-10 4-7 4-5 6-4 15-7z" fill="#E5745D"/>
<path transform="translate(541,1060)" d="m0 0h11l9 3 7 6 3 6v12l-4 6-6 5-9 2-11-2-8-4-4-5-2-5v-7l4-9 5-6z" fill="#FDFDFC"/>
<path transform="translate(438,921)" d="m0 0 9 1 8 3 6 7 1 3v10l-7 11-5 4-9 2h-7l-10-5-4-6-1-3v-11l4-7 7-6z" fill="#FDFDFC"/>
<path transform="translate(771,411)" d="m0 0v3 2 3l4 1-4 9-4 4h-2l-2 5-5 5h-2v2l-16 5-13 5-5 2h-5v2l-4 1v2l-9 5-3 3h-5l1 3-3 2v-2l-6 2 1-4 5-4h2l2-4 4-2v-2l10-7h2l1-4h2l1-4h-2l-1-3 12-7 28-13 13-8z" fill="#381809"/>
<path transform="translate(1189,536)" d="m0 0h7l12 6 5 7 1 3v9l-4 8-5 5-5 2h-13l-7-4-5-8-2-6v-9l4-6 9-6z" fill="#FDFDFC"/>
<path transform="translate(677,500)" d="m0 0h4l1 17 2 7 1 13v16l-6-1-16-13-12-9-15-8 2-3 20-9 16-8h3z" fill="#F59581"/>
<path transform="translate(719,503)" d="m0 0 1 2-1 3v31l2 32v9l-2 6-4 5-11 4-5 1h-14l-11-4-5-3v-2l-4-1-11-9v-2l-6-2-28-14 3-1 11 5h5l-7-11-3-6-9-3 2-1 8 2 11 7 9 8 11 9 9 7 8 3v2h16l5-2-1 3 5 4h10l4-2 1-5-1-19v-52z" fill="#FEEFA2"/>
<path transform="translate(525,571)" d="m0 0h3v7l-6 3-7 6-7 4-17 8-14 9-4 2h-11l-16-6-6-3v-2l13-5 7-2 15-6 18-5 11-4 20-5z" fill="#FAF4EE"/>
<path transform="translate(567,722)" d="m0 0h2l2 5 3-1v2h6v2l3 1-2 5-8 4-2 4-2-1-1 1-4 3 10-1-3 2-24 7h-2l-1-2-7-1h-3-2l-1 2-4-1-4 1h-9-3l-1-4h3l2-4 4-3 2-2 7-3 4-2 3-1-13-2v-1l19-1 16-4z" fill="#C05E41"/>
<path transform="translate(769,447)" d="m0 0 10 2 7 3 12 7 6 3 11 6 4 1v2h12l8-2 3-1v-3l-5-1-1-2 9 2h9l15-6 7-2 6 2v12l-5 8-6 5-2 1-25-1-9-2-11-3-8-5-15-9-19-10-6-1-16-1 4-1v-2z" fill="#38180A"/>
<path transform="translate(440,601)" d="m0 0 6 2 7 3v2l19 4 9 3v2l7 1 14 4 3 4-5-2-9-1-1-1h-8l-4-1h-4l-8-5-9-1 2 5h3l-1 5-3 3 8 4-10 1-4 2-16-1-9-3-5-4 1-2 4-2-3-6v-9l4-5 2-1z" fill="#39180A"/>
<path transform="translate(945,329)" d="m0 0 1 3-1 10-1 34-1 14-1 3v9l2 4 5-10 4-25 3-19 3-8 1 4-2 6-2 25-2 22-6 25-5 11-6 10-7 9h-2l-2 4-5 4-3-3 2-5 1-3h2l2-7 2-6 5-17 7-28 2-19v-27l2-15z" fill="#FDF9B8"/>
<path transform="translate(1243,269)" d="m0 0h8l11 3 5 4 1 2v12l-3 8-6 7-4 1h-11l-7-4-5-6-2-6 1-10 6-8z" fill="#FDFDFC"/>
<path transform="translate(561,606)" d="m0 0h1v38l-2 13-1 4-2 12-4 5-12 3h-9l-18-3-8-1-13-5-2-1v-2l-5-2-3-3-11-5h-24l4-2 7-1h17l10 4 10 8 9 4h11l4-2v-4l-6-1-11-8-12-7-1-2 5 1 9 5 8 5 7 2h7l7-2-2 3 4 4h7l9-4 5-10 2-9v-31h2v-5z" fill="#FFE947"/>
<path transform="translate(597,552)" d="m0 0 11 1 16 7 30 15 5 5 7 6 3 1 2 5-4-1-9-7-6-5-12-2-7-4-1-2-6-1-10-3-17 1-10 4-6 4-15 1-2 9-3 14-2 1 1-12 4-15 2-6 11-9 10-5z" fill="#FFE947"/>
<path transform="translate(700,1102)" d="m0 0h7l4 4-8 3-9 4-10 5-1 4-9 5h-2v2l-4 3h-3v2l-3 1-5-2-5-1-6 1 2-3-9-1h-2l-4 3-4-1-3 2-13 3-6 2-10-1v-2l10-2 2-2 10-1 6-2 2-2 9-3h5v-2l13-5 30-10 14-3z" fill="#AD612F"/>
<path transform="translate(968,333)" d="m0 0h1v5h-2l-1 12-1 3v17l1 6-2 9-2 1-3 16-2 10-1 14v9l-3 7-3 5h-2v2l-7 6-7 8-10 12-2 2-2-2 1-5 7-10h2l2-5 5-7 3-8 4-7 4-11 5-21 3-30 1-17 4-14h2l2-4z" fill="#FFDB32"/>
<path transform="translate(861,384)" d="m0 0h20v2l9 2 5 4-1 4-4 3-4 1-16 1-12 6-10 9-7 5h-5v-11l4-12 8-8 8-5z" fill="#FCFAF6"/>
<path transform="translate(561,644)" d="m0 0 2 1 1 10 1 1 1 10-3 6-5 5-6 5-10 3-15-1-12-3-19-3-3-2-10-2v-2l-12-2h-9l-2 5-2 1-2-1v2l-6-1-12-11-5-2-2-4h12l11-1h18l12 6 5 4 2 1v2l9 3 10 3 12 1 13 2 12-1 6-1 1-3h2l1-8 1-9 2-7z" fill="#FFDB31"/>
<path transform="translate(1213,772)" d="m0 0h7l7 3 5 5 2 4v10l-4 8-8 5h-12l-7-3-4-7v-7l3-9 6-7z" fill="#FDFCFB"/>
<path transform="translate(1278,680)" d="m0 0 13 2 4 2 4 7 1 8-3 7-6 7-2 1h-14l-7-3-4-7v-9l6-9 5-5z" fill="#FDFCFB"/>
<path transform="translate(930,861)" d="m0 0 4 2 7 17 4 13 1 6v11l-4 11-1-3 1-3v-23l-1-3-6 7-1 3h-3v2h-4v-2l-5-2-5-8-1-3-3-1-4-5-2-1 5-3h3l1-4-7 2h-23l-4 2 4-5h24l12-5z" fill="#E4735D"/>
<path transform="translate(174,813)" d="m0 0h7l8 6 6 7 1 9-3 7-7 5-8 1-10-4-5-7-1-10 4-8 5-4z" fill="#FDFCFB"/>
<path transform="translate(69,866)" d="m0 0h15l10 3 4 3 2 8 3 9-1 5h-2v-2h-9l-2 1h-10l-9-2-5-6-1-3v-12l2-3z" fill="#E3735C"/>
<path transform="translate(353,673)" d="m0 0h7l16 7 15 8 3 1v6l-4 8-5 3-9-1-10-5-9-7-5-9-1-5z" fill="#DF7059"/>
<path transform="translate(801,695)" d="m0 0h5l-6 8-10 8-16 10-16 8-10 3-8 2-9 4-12 5-3-1 3-5 3-4v-2l7-1v-2l7-3 7-2 8-4 6-2 32-16 5-2z" fill="#FAF5EF"/>
<path transform="translate(236,800)" d="m0 0h8l6 5 3 6 1 9-3 6-5 5-7 4-7-1-9-8v-12l3-6 7-6z" fill="#FDFCFB"/>
<path transform="translate(564,577)" d="m0 0 1 4-3 14-3 17v31l-3 12-5 8-9 4h-9l-3-6 5-4 8-6 3-6 3-14v-30h1v8h5l4-13 4-16z" fill="#FEEC9A"/>
<path transform="translate(436,637)" d="m0 0h8l3 3 6 2v2h2v9l19 1 11 3 6 3 8 7 7 2-1-5-10-8v-2h-2l-1-3 6 2 6 4 10 7 6 2 1 4-5 3h-11l-10-5-11-8-8-3h-26l-13 2-5-5v-2h-2l-2-4 3-8z" fill="#FFF1A4"/>
<path transform="translate(807,473)" d="m0 0 5 2 15 9 9 4 23 1 11-2 10-4 5 2 1 3-4 4-8 4-17 4-13 1-8-2-19-10-11-5v-1h7l-2-5z" fill="#FFF1A4"/>
<path transform="translate(574,583)" d="m0 0 3 1 1-1h6l1 4 2 1-4 4-11 1-2 4-2 12v15l2 8v8l2 1 2 5 3 5-1 9-8 10-8 9h-2v2l-4 1 6-7 4-7 1-4-1-8-1-4-1-8 1-21v-15l3-20 3-4z" fill="#FECF2B"/>
<path transform="translate(448 1e3)" d="m0 0h9l8 3 3 3 1 4v7l-3 5-5 4-2 1h-10l-6-4-3-5v-9l4-7z" fill="#FAF0E0"/>
<path transform="translate(677,500)" d="m0 0h4v15l-8 5-13 8-3 2h-6l-15-8 2-3 20-9 16-8h3z" fill="#F9F2EB"/>
<path transform="translate(418,699)" d="m0 0 7 1 1 1v10l-3 9-4 6-10 6-8 4-8 2-6-1v-2h-3v-2l-4-1 1-3 14-2 15-13 1-2h2l3-10z" fill="#FAE799"/>
<path transform="translate(922,397)" d="m0 0h4v2l5 2 3 5-1 7-5 9-9 10-5 6h-8l1-9 8-18 2-6 3-7z" fill="#110604"/>
<path transform="translate(158,869)" d="m0 0 5 2v6l-4 6-6 5-10 7h-14l-6-5 1-2h3l2-4 9-6 14-7z" fill="#290E04"/>
<path transform="translate(627,1082)" d="m0 0h11l4 3 1 8-3 6-8 5-9-1-8-5-4-5v-6l3-4h9z" fill="#FDFCF9"/>
<path transform="translate(847,439)" d="m0 0 10 2 8 5 3 6v4l-17 8-6-1-10-3-5-2 6-3 4-8 5-7z" fill="#AD612F"/>
<path transform="translate(1008,355)" d="m0 0h7l5 3 1 6-2 6v7h10l16-8 6-4-1-9 3 3 1 6-7 6-10 6-10 4-6 1h-13l-1 2v17l2 8 7-1 10-2h18l10-1-3 2-11 2-18 1-13 3-3-5-1-6v-21l2-5v-19z" fill="#994028"/>
<path transform="translate(921,359)" d="m0 0h2l-1 13-4 9-5 1-1 7 4 7v15h-1l-2-11-6-5-4-5-7-3-3-2 9-1v-3h2l-2-5v-7l4-1v-2h3v-2z" fill="#9E472B"/>
<path transform="translate(305,670)" d="m0 0 1 3-2 6-4 6-3 6-3 3-1 4v19l1 3 3 1v2h3l3 5v2l-4 2h-2v4l-4-1-2-5-5-2-5-9-4-20v-14l1-9h1v16l1 12 2 2 3-3 4-5 6-10 4-8 4-5z" fill="#FCE548"/>
<path transform="translate(379,635)" d="m0 0h28v2l13 2 1-4 4 3h5l-2 5-1 7-4-1-7-2h-11l-11 1-8-3-2-1v-2l-4-1-7-3 3-2z" fill="#FFDB31"/>
<path transform="translate(929,419)" d="m0 0h1l-1 8-4 9-6 11-8 11-6 4h-5l-3-4 1-8 8-16v4l8-1 12-14z" fill="#2A0E04"/>
<path transform="translate(716,508)" d="m0 0h1l1 51 1 19-2 6-4 2h-10l-6-5 3-5 6-5 3-11 1-10 1 3 4-1z" fill="#FDFABC"/>
<path transform="translate(304,976)" d="m0 0h4l2 18 1 4 1 14v11l2 4 2 1 1 12 2 2v7l-2 5h-2l-3-12-2-3-3-9 1-8-3-9-3-10-1-12 1-5v-7z" fill="#361709"/>
<path transform="translate(769,526)" d="m0 0h2l1 16 3 13v23l-5 19-2 6-4 2 1-10 1-4 1-20v-13l-1-7v-14l2-10z" fill="#160704"/>
<path transform="translate(1022,409)" d="m0 0h9v2l9 2 5 2 1 7v4l4 2h-9l-15-3-9-5-7-2v-2h-2l-1 2 1-6 10-2z" fill="#361709"/>
<path transform="translate(863,382)" d="m0 0h13l16 2 9 4 6 5 5 5 3 5v11l-7 15-4 2v-3l2-1-5-7v-7-4l2-7-3-10-4-3-15-4h-23l2-2z" fill="#C37B40"/>
<path transform="translate(1348,534)" d="m0 0 4 4 9 15 4 10 5 10v3l-3 1-2-1-6 3-1 4 5 24 3 15-1 20-2 1-3-29-5-26-1-3v-11l4-10 2-2-1-6-11-20z" fill="#BF773C"/>
<path transform="translate(836,406)" d="m0 0 1 4-1 11h7l5-1 19 4 12 6v2l5 2 7 8v2l6 1 5-5-2 6-4 3-6-2-10-9-2-1v-2l-7-1-3-2h-12l-2-1v-2l-5 1-8-3-4-2-3-4v-11z" fill="#AF6431"/>
<path transform="translate(526,578)" d="m0 0 1 4h-2l-2 9-8 4h-4v2l-15 6-10 6-2 7-10-2-5-2-11-2-5-2 3-1 6 2h11l12-7 10-6 16-7 7-5 4-4z" fill="#EAB875"/>
<path transform="translate(328,664)" d="m0 0h1v5h-2v8l-1 5v14l4 8 1 5 1 4-5 1-3-3-5-10v-2h-2l-2-5v-16l6-10h2v-2z" fill="#FEE849"/>
<path transform="translate(1090,1008)" d="m0 0 2 1-10 7-18 11-20 12-11 6-11 7-86 43-15 7-23 10-11 4-3-1 26-11 30-14 56-28 38-20 17-10 28-17z" fill="#9A4128"/>
<path transform="translate(422,681)" d="m0 0 2 1v10h5v10l-4 18-4 7-4 2v2l-7 4-6 4-14 4h-8l-3-3-1-6-2-2 8 1v2h3v2h7l14-5 9-6h2l2-4 3-7 1-4v-10l-7-1-2 2 2-16 2-4 1 1z" fill="#FFD02B"/>
<path transform="translate(522,534)" d="m0 0 2 1-4 5v7l-5 3-8 10-9 2-6 2-3-1-1-5 12-8 6-1-1-3h-2l-2 2h-4v-2l-2-1 21-8z" fill="#39190A"/>
<path transform="translate(863,406)" d="m0 0 4 2v2h2l3 4v4l3 1 4 6 2 7h-2l-3-3-12-5-16-3-9 1 5-4 10-9z" fill="#FFD02B"/>
<path transform="translate(436,1175)" d="m0 0 6 2 12 5 25 7 21 5 12 2 28 2 44-1 25-2 30-5 8-2h7l-4 2-24 5-30 4-14 1h-59l-27-4-17-4-27-8-16-8z" fill="#993F28"/>
<path transform="translate(104,887)" d="m0 0h3 16l3 5 3 2 9 1-1 2-8 1-3 2-1 7-5 4-5 2-2 3v-11l-5-13-4-3z" fill="#371709"/>
<path transform="translate(548,572)" d="m0 0h1v21l1 38-4 17-6 7-14 7h-7l-11-4-10-7-9-4-4-2-1-3 4 2 9 4 11 7 5 3 8 2 7-1 6-2-1-2v-6l5-5 9-17v-27l-1-7v-12z" fill="#7D4323"/>
<path transform="translate(490,648)" d="m0 0 5 1 9 5 8 5 7 2h7l7-2-2 3 4 4h7l10-4v2l-10 7-10 2-11 2h-13l-3-2 11-1 4-2v-4l-6-1-11-8-12-7z" fill="#FECF2B"/>
<path transform="translate(564,577)" d="m0 0 1 4-3 14-4 26-1 21-1 3-6-1-1-21v-22h1v8h5l4-13 4-16z" fill="#FDF6B3"/>
<path transform="translate(779,453)" d="m0 0 5 1 17 9 5 3 17 10 7 3 7 2 14 1 18 2 2 2-6 2h-18l-14-3-16-8-12-7-1-2-9-4-5-4-11-6z" fill="#A4502D"/>
<path transform="translate(773,500)" d="m0 0 6 1 8 4 5 1 22 13 3 3-1 3-3 1-12-5-15-8-12-8z" fill="#130604"/>
<path transform="translate(477,563)" d="m0 0h3l1 4h-2v2l-9 2-2 2h-3v2l-8 3-12 3-1 4-5 2-3-1 3-3-7 1-3 2-5-1v-2l8-4 21-7 7-3 9-4 6-1z" fill="#361709"/>
<path transform="translate(98,874)" d="m0 0 3 3 4 12 5 5 4 12v10l2 8-1 7h-1l-2-9-2-3-1-8h-2l-1-4h-2l-4-7-4 6 1-13-6-1v-1h7l2 1v2l2-1-1-7-3-8z" fill="#BD5D3F"/>
<path transform="translate(812,487)" d="m0 0 9 3 15 8 1 2 5 2h22l15-2 9-2-4 3-11 3-8 1v1h12l-3 2-6 2-14-1-4-2-10-2-12-5-16-11z" fill="#FFDC33"/>
<path transform="translate(352,646)" d="m0 0h15l16 5 10 3 10 5 4 1v-2l7-2 9-4 2 1v14l-1 6h-1l-1-12-8 2h-11l-21-10-14-3-14-1-11 3 3-4z" fill="#F5A323"/>
<path transform="translate(191,725)" d="m0 0 2 1-2 3h-2l1 7 1 4h7l5 1h10v1l-14 2-10 4-4 2-1-2-4-1-2 1v-2l-8 4-5 5 2-4 7-8 12-12z" fill="#F99C86"/>
<path transform="translate(369,610)" d="m0 0h24l9 2h4v2l6 2 5 8 9 5 6 3 4 1 29 2 15 4 4 2-2 1-13-4-19-2h-20l-9-6-9-7-4-4-6-4-6-2h-33l-15 1 4-2z" fill="#A3673A"/>
<path transform="translate(545,559)" d="m0 0h4l1 4h-2l-1 10-1 4-8 2h-8l-1-1v-9l6-5z" fill="#110604"/>
<path transform="translate(1286,235)" d="m0 0 4 2 13 12v2l3 1 2 5 13 13 2 4-1 1h-5l-2-5v-2l-4-1-5-2-8-4v-2h-4v-2l-5-2-10-6-4-2 2-1 28 13-9-12-7-7z" fill="#F89482"/>
<path transform="translate(791,447)" d="m0 0 9 2 10 2 5 2 4 4 3 2-1 5-5 1-9-3-6-3-8-5-3-3z" fill="#110604"/>
<path transform="translate(935,411)" d="m0 0 1 4-1 10-3 13v7l5-2 3-3-1 4-9 12h-2l-2 4-5 4-3-3 2-5 1-3h2l2-7 2-6 5-17z" fill="#FDEDA0"/>
<path transform="translate(814,426)" d="m0 0h2v16l-1 5h-6l-10-6-5-2 4-4 6-4h2v-2z" fill="#FAF5EE"/>
<path transform="translate(1090,344)" d="m0 0 2 2 1 4v15l-3 12-5 8-5 6v-3l1-4-5 1-1-2 8-15 1-3h2l1-4 3-5z" fill="#E99926"/>
<path transform="translate(353,673)" d="m0 0h7l16 7 2 2-5-1h-3l1 3 2 1-1 2 5 2 2-1 2 7-5 1v-2h-2v-2l-4-1-6-7h-2l-3-3h-3l2 10 4 5-4-2-5-7-2-5z" fill="#BE5D40"/>
<path transform="translate(740,593)" d="m0 0h1l-1 7-6 9-7 6-16 8-8 1-1-2 6-3 5-4 6-3h2v-2h2v-2h2l2-4 9-7z" fill="#F2BE2C"/>
<path transform="translate(998,445)" d="m0 0h2v7l-6 16-12 21-5 4h-1v-5l9-17 6-11 5-12z" fill="#150704"/>
<path transform="translate(1029,667)" d="m0 0 7 2 9 12 4 7 4 9v6l-2 1-5-9-14-18-4-6z" fill="#180905"/>
<path transform="translate(900,369)" d="m0 0h2l1 9 1 3h-2v3l-10 1-28-3v-1l21-1 1-4h3v-2l8-4z" fill="#381809"/>
<path transform="translate(70,892)" d="m0 0h27l1 1-1 9-2 7-4 1-3-5-2-4-13-5-3-2z" fill="#140704"/>
<path transform="translate(379,635)" d="m0 0h28v2l13 2 1-4 4 3h5l-2 5-1 7-5-5-15-2-7-1-8-4-16-1z" fill="#FFE746"/>
<path transform="translate(620,542)" d="m0 0 10 2 11 7 9 8 11 9 9 7 8 3-1 3h-6l-13-9-14-11-15-15-9-3z" fill="#FEDC3C"/>
<path transform="translate(838,948)" d="m0 0h2l7 8 10 8 13 8 16 4 17 2 17-3 12-4 12-6 10-8 3-3-2 5-13 10-18 8-14 3-9 1-16-2-15-4-17-10-14-14z" fill="#B06133"/>
<path transform="translate(849,446)" d="m0 0h5l3 7h-2l-1 7-3 4-6-1-7-3 1-4 5-8z" fill="#C37B3F"/>
<path transform="translate(1260,219)" d="m0 0 15 3 3 2v2h2v2h2v2l5 1 5 4 7 8 7 6v2l3 1 3 4v2l4 2 2 6-4-2-8-8-1-4-5-5-12-11-5-1-3-4-3-1-1-2-11-3-7-4z" fill="#4C2310"/>
<path transform="translate(921,359)" d="m0 0h2l-1 9-4 8h-9l-7-3 1-5h3v-2h3v-2z" fill="#FAF5EF"/>
<path transform="translate(590,585)" d="m0 0h12l10 4 3 3v2l-9-1-7-1-5 2-4 4-6 1v-8l4-5z" fill="#120604"/>
<path transform="translate(724,821)" d="m0 0 8 4 9 14 3 6v6l-6-4-10-13-5-8z" fill="#160704"/>
<path transform="translate(1020,364)" d="m0 0 3 4 4-2 11-1 1 5 1 3-11 5h-8l-3-3 1-7z" fill="#351608"/>
<path transform="translate(1008,416)" d="m0 0h2v2l9 2 7 4 15 3 16 1 13-2 6-1-2 2-8 3h-25l-13-2v-2h-19l-3 5-1-3z" fill="#A4482F"/>
<path transform="translate(1046,373)" d="m0 0h6l2 3-1 2h-2l-1 3-8 4-7 3-6 1-2-2 1-5 16-8z" fill="#FFEA49"/>
<path transform="translate(938,1022)" d="m0 0m-3 1 3 1-6 3-17 6-8 3-7 3-10 2-22 7-24 8-9 2 1-2 15-5 8-3 19-6 18-6 8-2 15-5 10-4z" fill="#C37B3F"/>
<path transform="translate(951,416)" d="m0 0 1 3-5 17-9 19-11 13-6 7-1-3 8-12h2l2-5 5-7 3-8 4-7 4-11z" fill="#FFE847"/>
<path transform="translate(348,592)" d="m0 0h6l-3 7-7 2h-6v2l-7 1-1 2-2-1-6 1 2-6z" fill="#321307"/>
<path transform="translate(1340,801)" d="m0 0 1 2-10 13-9 9-9 11-13 13-8 7-16 16-11 9-2-1 10-10 8-7 13-12 15-14 7-8 12-13z" fill="#994028"/>
<path transform="translate(1338,288)" d="m0 0h2l7 10 9 15 7 19 4 17v19h-1l-2-23-5-17-5-11-6-9v-2l-6-2-1-12h-2z" fill="#381709"/>
<path transform="translate(158,869)" d="m0 0 5 2v6l-4 6-5 3-5-1-2-4 3-8h2v-2z" fill="#160804"/>
<path transform="translate(900,447)" d="m0 0h2l1 2 5-1v2l3-1v2l6-3-2 5-6 7-6 2-4-1-2-3 1-8z" fill="#361709"/>
<path transform="translate(1044,399)" d="m0 0 4 2 10 2-1 2-13 2h-18l-13 2 1-2 4-2 17-4z" fill="#F6A423"/>
<path transform="translate(149,869)" d="m0 0 1 2-3 3-14 8-6 5h-2v-13l2-2 3 2 10-2z" fill="#EE9279"/>
<path transform="translate(344,973)" d="m0 0h1l2 31 5 36 3 17v10l-2 1-5-3 2-1 1-3v-9l-3-22-4-37z" fill="#FBF3D4"/>
<path transform="translate(904,520)" d="m0 0 5 1-1 3-13 6-8 3h-7l-1-4 2-2 8-2 10-4z" fill="#F3BD2B"/>
<path transform="translate(855,408)" d="m0 0h2l-2 4-7 6 4-1 15 3 7 2v2l4 2 3 6h-2l-3-3-12-5-16-3-9 1 5-4 10-9z" fill="#F8A623"/>
<path transform="translate(422,681)" d="m0 0 2 1v10h5v10l-1 3h-2l-1-4-7-1-2 2 2-16 2-4 1 1z" fill="#F5C22E"/>
<path transform="translate(1012,379)" d="m0 0 15 1v1l-6 1h-13l-1 2v17l2 8 7-1 10-2h18l10-1-3 2-11 2-18 1-13 3-3-5-1-6v-21z" fill="#AB5B31"/>
<path transform="translate(1329,752)" d="m0 0 1 3-6 8-4 7-5 6-3 6-3-2 3-9 2-4 1-7 1-3h2v2l3-1v2l4-2z" fill="#AD612F"/>
<path transform="translate(368,1087)" d="m0 0 5 4v2l4 2 1 3 4 2 7 6 20 14 11 7 6 3-2 2-10-5-15-10-16-12-6-5v-2h-2l-7-8z" fill="#C37B3F"/>
<path transform="translate(889,465)" d="m0 0 4 1 3 3 9-1-5 5-9 5-3-1v-2l-3 1-5 5-6 3 2-4 5-3 1-3h2l1-4z" fill="#B06531"/>
<path transform="translate(966,1077)" d="m0 0m-2 1h2v2l-30 15-15 7-23 10-11 4-3-1 26-11 30-14z" fill="#9C4529"/>
<path transform="translate(424,670)" d="m0 0 6 12 2 8v8l-1 4h-2v-10l-3 1-2-1-1-10-2 5h-1l1-10z" fill="#FCE54E"/>
<path transform="translate(1233,458)" d="m0 0 5 2v2l11 2h6l9 2 4 3 10 2 4 4 2 1-1 2-8-4-11-2-8-3v-2l-26-4-1-1-8-1v-1l11-1z" fill="#714123"/>
<path transform="translate(945,329)" d="m0 0 1 3-1 10-1 34-1 14-2 10-2 1 1-13 1-12v-27l2-15z" fill="#E3B88A"/>
<path transform="translate(137,800)" d="m0 0 1 3-3 14-3 24-4 17-2 8h-2l-3-17v-7l2 3 1 6 5-8 2-12 3-20z" fill="#F1AF7B"/>
<path transform="translate(784,866)" d="m0 0h10l4 4-4 3-8 1-7 5h-3l1-7z" fill="#170805"/>
<path transform="translate(412,623)" d="m0 0 18 12 15 1v1l-13 1-7 1-4-3-1 3h-8l-5-2v-1h10l-4-10z" fill="#F9C941"/>
<path transform="translate(1153,190)" d="m0 0 6 1 1 4 2 1 10-2v-2h2v2l2 1-8 4h-2l-1 2-1-1-11 1-5 1 1-3 1-1-2-2 2-4z" fill="#361709"/>
<path transform="translate(413,626)" d="m0 0 2 1 2 9-4 1-6-1h-28l-38 1 4-2 48-2 20-2z" fill="#FFF5AD"/>
<path transform="translate(606,637)" d="m0 0h1l1 5v25l-3 5h-2l-1-2 1-18 2-13z" fill="#120604"/>
<path transform="translate(686,508)" d="m0 0h8v7l-4 8-5 2-2-9v-6z" fill="#110604"/>
<path transform="translate(1056,761)" d="m0 0h2l-2 4-4 5-3 13h2l1 3 4 2 7 1-3 2-10-1-5-3v-11l4-8 3-1 2-4z" fill="#FC9989"/>
<path transform="translate(561,606)" d="m0 0h1v38l-1 5-2 1-2 5-1-3 2-9v-31h2v-5z" fill="#FFE240"/>
<path transform="translate(584,589)" d="m0 0 1 2-1 2v12l2 12v22h-1l-1-14-3-9-3-7v-9l3-5z" fill="#AD5F31"/>
<path transform="translate(1353,548)" d="m0 0 2 3 1 2v8l-6 15h-6l-9-12h3l1 3 4 2 5-1 2-2 2-8z" fill="#FCF4D0"/>
<path transform="translate(412,621)" d="m0 0 9 5 8 5 7 2 29 2 15 4 4 2-2 1-13-4-19-2h-20l-9-6-9-7z" fill="#AE5F32"/>
<path transform="translate(779,453)" d="m0 0 5 1 17 9 5 3 17 10 3 5-5-2-16-9-1-2-9-4-5-4-11-6z" fill="#A95733"/>
<path transform="translate(1030,308)" d="m0 0h8l18 7 10 5v2l-5-1-7-3-4-1-5 5-3-1v-3h2l-3-3v-3l-11-2z" fill="#FFE644"/>
<path transform="translate(1024,282)" d="m0 0 5 1 2 2 7 1 1 2 8 4 2 2v3l-6-2-16-8-9-1h-13l-10 2 1-2 7-2 20-1z" fill="#834E2A"/>
<path transform="translate(278,676)" d="m0 0h1v16l1 12 2 2 3-3 1-2h2l-1 4-2 5v7l3 10-4-2-4-10-3-16v-14z" fill="#E6C284"/>
<path transform="translate(250,684)" d="m0 0 1 4v17h-3v-2h-6v-2l-9 1-17 8-5 2 4-4 19-9 13-4h2v-9z" fill="#F39D7E"/>
<path transform="translate(943,376)" d="m0 0h1v16l5-5 3-4-2 13-5 10-2 1-2-5v-9l1-3z" fill="#FAF0E0"/>
<path transform="translate(327,1039)" d="m0 0 3 3 7 14h-2l9 19 3 5v5l-3-3-6-12v-2h-2l-6-16-3-10z" fill="#E7A76E"/>
<path transform="translate(1180,225)" d="m0 0h37l10 2v1h-12l-25-1-21 2-21 5-4-1 19-5z" fill="#F7A183"/>
<path transform="translate(98,874)" d="m0 0 3 3 4 12 5 5 4 12v14l-2-3-9-27-5-12z" fill="#993F28"/>
<path transform="translate(1168,956)" d="m0 0 2 1-10 8-42 28-13 8-2-1 51-34z" fill="#9C4429"/>
<path transform="translate(334,789)" d="m0 0 14 2 24 1 7 1v2h-2l-1 2v-2h-2l-1 2-9 1-4-1-3-2-17-3-6-2z" fill="#B5563A"/>
<path transform="translate(278,712)" d="m0 0 3 3 4 10 1 3 5 2 5 7 4 4v3l-4-1-3-3-5-3-1-3 1-2-4-2-3-4-3-9z" fill="#1A0905"/>
<path transform="translate(991,326)" d="m0 0 8 3-3 2-8 4-3 3-4 10-1-3h-2l1-8 3-3 3-6z" fill="#F2C42F"/>
<path transform="translate(1286,235)" d="m0 0 4 2 13 12v2l3 1 2 5 3 3-1 3-9-3-7-4 3-1 8 4-9-12-7-7z" fill="#ECB675"/>
<path transform="translate(920,375)" d="m0 0h1l-1 12-2 12-1 11h-1l-1-14-4-7 1-4 1-3 5-2z" fill="#361709"/>
<path transform="translate(959,352)" d="m0 0h1v16l-3 30-2 2-1-10 2-19 1-17z" fill="#FFE03E"/>
<path transform="translate(669,589)" d="m0 0 5 2 7 3-2 1 1 2 17 4 5 2 7 1-3 2-9-1-20-6-5-5z" fill="#FFDB31"/>
<path transform="translate(66,881)" d="m0 0 2 1v2l5 2 9 3h8l2 2-3 2h-10l-9-2-4-4z" fill="#ED9178"/>
<path transform="translate(881,386)" d="m0 0 9 2 5 4-1 4-4 3-4 1h-15v-1h5v-2l14-3-5-5z" fill="#FAF0E2"/>
<path transform="translate(863,382)" d="m0 0h13l16 2 9 4 6 5 5 5 2 4-6-3-5-7-7-3-15-4h-23l2-2z" fill="#B76E3A"/>
<path transform="translate(119,825)" d="m0 0h1v8h2v5l6 1 1-1 1-7h1v9l-6 12-2-1-1-9h-2l-1-8z" fill="#F7E7CF"/>
<path transform="translate(1362,631)" d="m0 0h1l1 11 1 3-1 14-3 8-2-4 2-31z" fill="#BE753B"/>
<path transform="translate(565,588)" d="m0 0h1v8l-2 16v19l-1 13h-1l-1-37-1 5h-1l1-10 2-2z" fill="#FFDB31"/>
<path transform="translate(620,542)" d="m0 0 10 2 11 7 9 8 11 9 9 7 8 3v1l-7-1-6-4-10-8-7-6-9-7-10-7-9-3z" fill="#A6532F"/>
<path transform="translate(525,571)" d="m0 0h3v7l-6 3-7 6h-3l5-6v-4h-8l4-2 11-3z" fill="#F4E1CB"/>
<path transform="translate(799,466)" d="m0 0 6 2 3 3 16 9 9 4 14 3v1l-11 1-16-8-13-8-8-6z" fill="#F8C842"/>
<path transform="translate(544,580)" d="m0 0 2 1 2 19v27l-2-1-1-5v-24l-2-4z" fill="#361709"/>
<path transform="translate(633,552)" d="m0 0 7 6 1 3 7 5 1 3-4 1-9-3-16-8 3-1 11 5h5l-6-9z" fill="#FFFCBC"/>
<path transform="translate(719,503)" d="m0 0 1 2-1 3v31l1 19v13l-2-1-1-11v-52z" fill="#FFF1A4"/>
<path transform="translate(1260,219)" d="m0 0 15 3 3 2v2h2v2h2l3 5v2h-2l-3-4-3-1-1-2-11-3-7-4z" fill="#6F3B20"/>
<path transform="translate(250,805)" d="m0 0 3 2 2 5v10l-5 8-8 6-2 1h-7l-8-7-2-4 8 6 3 2 7-1 7-4 4-6 1-8z" fill="#F5A581"/>
<path transform="translate(699,1101)" d="m0 0 2 1-7 3-16 4-15 5-7 1-1 2-7 1 3-3 25-8 9-3z" fill="#C37B3F"/>
<path transform="translate(352,646)" d="m0 0h15l16 5 6 3-2 1-12-4-18-2-11 2h-3l3-3z" fill="#A6552E"/>
<path transform="translate(1009,356)" d="m0 0 9 2 1 5-2 4-5 2-3-3z" fill="#C8813A"/>
<path transform="translate(419,663)" d="m0 0 3 1v9l-2 5-4-2-3-6 1-5z" fill="#110604"/>
<path transform="translate(494,615)" d="m0 0h9l2 2 2 10-5-4-14-4-3-2 8-1z" fill="#A6562C"/>
<path transform="translate(143,919)" d="m0 0 4 1 3 4v10l5 10-1 2-6-8-5-12z" fill="#351608"/>
<path transform="translate(932,417)" d="m0 0h1l-1 9-4 14-2 6-1 2h-2l1-7-4 6v-3l7-14z" fill="#D79832"/>
<path transform="translate(1335,517)" d="m0 0 7 5v2l3 1 6 7 10 18-1 2-11-17-5-5-2-5-3-1-4-5z" fill="#582D16"/>
<path transform="translate(627,1082)" d="m0 0h11l4 3 1 8-2-3-2-4h-25l-2 1 2-4h9z" fill="#FCF3CD"/>
<path transform="translate(1058,366)" d="m0 0h3l1 7-1 2-7 1-2-2-4-2 5-5z" fill="#FFDB31"/>
<path transform="translate(582,667)" d="m0 0h1v10l-4 8-4 3h-3l1-4 6-12h2z" fill="#160804"/>
<path transform="translate(687,747)" d="m0 0 2 1-7 7-8 3-10-1 2-2 10-3 3-2h5v-2z" fill="#EED99C"/>
<path transform="translate(998,994)" d="m0 0 2 1-10 6-15 8-19 8-6 2 2-3 15-6 16-8z" fill="#C37B3F"/>
<path transform="translate(1362,611)" d="m0 0h2l2 13-1 18-2 1-2-18v-9h2z" fill="#BC733A"/>
<path transform="translate(356,642)" d="m0 0 15 3 11 4 4 3-5-1-14-4h-15l-6 1 3-3h4v-2z" fill="#F8A623"/>
<path transform="translate(844,420)" d="m0 0 9 1 14 3 12 6-1 2-10-4-16-4-9-2z" fill="#C37B3F"/>
<path transform="translate(928,862)" d="m0 0 2 1-5 5-16 6h-23l-4 2 4-5h24l12-5z" fill="#C76149"/>
<path transform="translate(885,498)" d="m0 0 3 1-11 4-15 3-18-2v-1l20-1 15-2z" fill="#FFEB4A"/>
<path transform="translate(161,929)" d="m0 0 5 2 14 7 28 9v1h-7l-19-7-13-5-8-6z" fill="#C26043"/>
<path transform="translate(930,861)" d="m0 0 4 2 4 9v8l-2-2-2-7h-3v-3h-6l1-2h2z" fill="#EE8D78"/>
<path transform="translate(321,646)" d="m0 0 2 1-1 2 5-2-1 5-6 5h-3l-1-3-2 3-2-1 7-8z" fill="#FDCF33"/>
<path transform="translate(941,349)" d="m0 0h1l1 13v28l-2 10-2 1 1-13 1-12z" fill="#C6874F"/>
<path transform="translate(719,585)" d="m0 0 1 2-4 6-9 4-10 1-12-1v-1l14-1 14-4 5-5z" fill="#FFD02B"/>
<path transform="translate(459,687)" d="m0 0h3l1 3-4 8-3 3-2 4v-8l2-8z" fill="#120604"/>
<path transform="translate(889,468)" d="m0 0 3 1-1 7 4-1-1 2-5 1-1-3-3 1-5 5-6 3 2-4 5-3 1-3 4-2z" fill="#BF773C"/>
<path transform="translate(1209,924)" d="m0 0 2 1-7 7-10 7-14 11-4 3-2-1 11-9 10-8 12-9z" fill="#993F28"/>
<path transform="translate(850,505)" d="m0 0h8l13 1h6l-3 2-6 2-14-1-4-2z" fill="#FFDB31"/>
<path transform="translate(418,732)" d="m0 0 2 1-10 8-10 4-10 2h-10v-1l22-4 12-7z" fill="#FFDB31"/>
<path transform="translate(425,669)" d="m0 0 3 1 1 6h2l2 3v7l1 6-2 4-4-16-3-6z" fill="#FFDB31"/>
<path transform="translate(337,1068)" d="m0 0 3 4 6 12 2-1 3 6v3h2l1 6-5-4-12-23z" fill="#B96939"/>
<path transform="translate(439,784)" d="m0 0h5l-4 3-28 8-5 2-4-1 13-5 18-5z" fill="#A24B2D"/>
<path transform="translate(1050,356)" d="m0 0 3 3 1 6-7 6-10 6-9 3 1-3 16-8 6-4z" fill="#A6532E"/>
<path transform="translate(1064,309)" d="m0 0 4 2 6 7v3h-8l-12-6 3-1 6 3 5 1v-5l-4-2z" fill="#FDF1A9"/>
<path transform="translate(326,933)" d="m0 0 2 1-2 12-2 10-2-3-1-8 3-7z" fill="#4D2914"/>
<path transform="translate(928,1027)" d="m0 0 4 1-4 3-8 2-1 2-8 2h-5v2h-6l1-2 10-3 8-3z" fill="#AD612F"/>
<path transform="translate(943,890)" d="m0 0 2 3 1 6v11l-4 11-1-3 1-3z" fill="#C45D45"/>
<path transform="translate(305,670)" d="m0 0 1 3-2 6-4 6-3 6-6 7v-3l8-15 4-5z" fill="#FFE644"/>
<path transform="translate(1370,262)" d="m0 0 13 2 6 3 5 5 1 5-4 4v-6l-4-7-16-4z" fill="#AD4F35"/>
<path transform="translate(1325,275)" d="m0 0 2 1-8 5-6 1-7-1v7h-2l-2-5 3-3z" fill="#572514"/>
<path transform="translate(456,632)" d="m0 0h12l3 1 1 2 5 2-3 1-9-2-11-1-1-2z" fill="#311307"/>
<path transform="translate(805,469)" d="m0 0h6l12 7 3 5-5-2-16-9z" fill="#AB5A31"/>
<path transform="translate(1184,238)" d="m0 0 7 1 7 2 10 9 2 5-5-5-6-5-10-4-14-1v-1z" fill="#F6A581"/>
<path transform="translate(1330,754)" d="m0 0 1 2-7 11-8 12-4 2 4-8 6-7 4-7z" fill="#C37B3F"/>
<path transform="translate(879,432)" d="m0 0 5 2 7 8v2l6 1 5-5-2 6-4 3-5-3-12-13z" fill="#C1793D"/>
<path transform="translate(785,904)" d="m0 0 4 2 12 5 9 4 3 3-1 2-4-2v-2l-4-1-11-4-8-6z" fill="#BB7034"/>
<path transform="translate(585,639)" d="m0 0h3l1 8-4 11h-1v-14z" fill="#140704"/>
<path transform="translate(1233,458)" d="m0 0 5 2v2l15 3v1l-10-1-13-2-1-1-8-1v-1l11-1z" fill="#9F6739"/>
<path transform="translate(1008,355)" d="m0 0h7l5 3 1 6h-2l-1 4-6 4-3-3 1-3 4 2 2-2 2-3v-4l-9-3v5l-2-4z" fill="#A6552D"/>
<path transform="translate(838,948)" d="m0 0h2l7 8 10 8 8 5-3 1-10-6-13-13z" fill="#B06133"/>
<path transform="translate(1021,1049)" d="m0 0m-2 1 2 1-9 6-14 7-2-1 3-3 16-8z" fill="#9C4529"/>
<path transform="translate(807,473)" d="m0 0 5 2 2 1 4 8v2h-8l-4-3h7l-2-5z" fill="#FFFCBB"/>
<path transform="translate(1253,888)" d="m0 0 2 1-8 8-13 10-6 5-2-1 9-8 14-11z" fill="#994028"/>
<path transform="translate(69,866)" d="m0 0h15l10 3 4 3v2l-4-2-7-3-17-1-5 2 1-3z" fill="#A85031"/>
<path transform="translate(326,673)" d="m0 0 1 4-2 15-2 1-1-3v-9l2-7z" fill="#E0A631"/>
<path transform="translate(515,583)" d="m0 0m-1 1m-1 1m-1 1m-2 1h2l-1 3-12 5-9 5-2-1 10-7z" fill="#FAF0E2"/>
<path transform="translate(1008,421)" d="m0 0 6 1 10 3v1h-15l-3 5-1-3 1-6z" fill="#B95B3D"/>
<path transform="translate(587,505)" d="m0 0h6l2 2-3 1v2l-4 2h-3-2l1-5z" fill="#2F1206"/>
<path transform="translate(1049,297)" d="m0 0 5 1 5 5 4 3 6 3 3 4v2l-3-1-5-5-6-3v-2l-4-1-1-2-3-1z" fill="#A9582F"/>
<path transform="translate(868,1047)" d="m0 0 4 1-5 1v2l-9 2-1 2h-10l3-2 10-3z" fill="#AD612F"/>
<path transform="translate(684,537)" d="m0 0h1v16l-6-1-5-5h8l1 1z" fill="#D18558"/>
<path transform="translate(1012,379)" d="m0 0 15 1v1l-6 1h-13l-1 2-1 14h-1v-17z" fill="#BD733B"/>
<path transform="translate(1296,209)" d="m0 0 10 1 1 2-1 2 2 1-2 2-6-2v-2l-4-2z" fill="#3E1B0B"/>
<path transform="translate(1129,983)" d="m0 0v3l-14 9-10 6-2-1 15-10z" fill="#994028"/>
<path transform="translate(557,600)" d="m0 0 1 2-3 8-5-1v-8h6z" fill="#FAF2DC"/>
<path transform="translate(685,530)" d="m0 0h2l3 6-1 9-2 2-1-1z" fill="#110604"/>
<path transform="translate(982,264)" d="m0 0 4 1-3 5-3 2-4 1-2 1 2-6z" fill="#341408"/>
<path transform="translate(894,392)" d="m0 0 1 3-5 4-4 1h-15v-1l17-3 6-2z" fill="#FFF6AF"/>
<path transform="translate(957,378)" d="m0 0h1l-1 20-2 2-1-10 1-11z" fill="#FFE341"/>
<path transform="translate(362,696)" d="m0 0 5 1 9 5 2 1 10 1-3 2-9-1-10-5z" fill="#AE5036"/>
<path transform="translate(354,648)" d="m0 0 14 1 7 1v1h-25l-1-2z" fill="#361709"/>
<path transform="translate(658,569)" d="m0 0 5 2 6 5 9 3-1 2h-6l-11-8z" fill="#FBC836"/>
<path transform="translate(1286,235)" d="m0 0 4 2 13 12v2l3 1-1 2-5-4-3-4-5-3z" fill="#B16438"/>
<path transform="translate(942,1125)" d="m0 0 4 1-24 12h-4l1-2 10-4 2-3h5l3-3z" fill="#854623"/>
<path transform="translate(327,1039)" d="m0 0 3 3 2 5 2 10 3 8-1 3-6-16-3-10z" fill="#B5693B"/>
<path transform="translate(893,1039)" d="m0 0h7l-2 2-12 3-8 3h-6l3-2z" fill="#AD612F"/>
<path transform="translate(1362,631)" d="m0 0h1l1 11 1 3-1 7-1-4h-2l-1-3 1-13z" fill="#C37B3F"/>
<path transform="translate(565,588)" d="m0 0h1v8l-1 7-4 4-1 5h-1l1-10 2-2z" fill="#FFDB34"/>
<path transform="translate(853,901)" d="m0 0h2v2l-6 3 1 4 6 8-1 2-6-7-3-5v-4z" fill="#C86148"/>
<path transform="translate(715,546)" d="m0 0h1v11l-4 3h-2v-10l1 3 4-1z" fill="#F8E9D2"/>
<path transform="translate(172,716)" d="m0 0 2 1-18 18v-3l6-7 5-4z" fill="#E8CBAF"/>
<path transform="translate(353,673)" d="m0 0h7l10 4-3 1-13-4v9l1 5-2-1-2-5z" fill="#993F28"/>
<path transform="translate(318,986)" d="m0 0h1l1 8v15l-2-1-1-9v-11z" fill="#361709"/>
<path transform="translate(490,648)" d="m0 0 5 1 9 5 4 4h-4l-8-5-6-4z" fill="#FDC92D"/>
<path transform="translate(526,610)" d="m0 0h1v20l-3 5-1 1h-6l1-2 5-2 2-5z" fill="#A5522C"/>
<path transform="translate(566,580)" d="m0 0 1 2-4 18-2 1 1-12 2-8z" fill="#FFE240"/>
<path transform="translate(773,526)" d="m0 0 6 1 4 3-8-1-1 2v20h-1l-1-7v-16z" fill="#AD5035"/>
<path transform="translate(871,401)" d="m0 0h7l1 4-3 1-6-1h-7v-2z" fill="#FECF2E"/>
<path transform="translate(1054,361)" d="m0 0 3 2 1 4-6 2-6 5-7 2 3-3 9-6 2-2z" fill="#FCC429"/>
<path transform="translate(1288,251)" d="m0 0 10 1h3l4 5v2l-6-2-11-5z" fill="#FAF0E0"/>
<path transform="translate(337,1056)" d="m0 0 8 6 5 5 2 3-4-2-2-2-4-1-5-7z" fill="#D19152"/>
<path transform="translate(528,626)" d="m0 0 3 1 1 6-2 4-5-1z" fill="#110604"/>
<path transform="translate(1348,534)" d="m0 0 4 4 9 15-1 2-4-4-8-15z" fill="#AE5F32"/>
<path transform="translate(388,653)" d="m0 0 5 1 7 4v2l8 2v1l-7-1-12-6z" fill="#C8772C"/>
<path transform="translate(633,549)" d="m0 0 5 2 8 7 7 5-2 1-12-8z" fill="#FABE2C"/>
<path transform="translate(1041,966)" d="m0 0m-1 1m-1 1v3l-13 9-5 3-2-1 10-7z" fill="#C37B3F"/>
<path transform="translate(943,496)" d="m0 0h2v2l-8 7-6 5-4 1 13-13z" fill="#E8AD2E"/>
<path transform="translate(1275,774)" d="m0 0v3l-8 9-4 4-2-1 4-5h2l2-4z" fill="#C37B3F"/>
<path transform="translate(813,425)" d="m0 0h4l1 19-2 5-5-1 4-1 1-21-4 1z" fill="#CA894E"/>
<path transform="translate(855,408)" d="m0 0h2l-2 4-9 8-3 2-4-1 9-6z" fill="#E9B56F"/>
<path transform="translate(1e3 398)" d="m0 0 2 3 2 8 10-1-1 3-9 2-3-5z" fill="#AD5D32"/>
<path transform="translate(227,1030)" d="m0 0 9 1 2 5-14-3 3-1z" fill="#46200E"/>
<path transform="translate(429,702)" d="m0 0 1 4-4 17h-3l3-10 2-10z" fill="#FFEB4A"/>
<path transform="translate(1006,1094)" d="m0 0 1 3-14 7v-3z" fill="#4A230F"/>
<path transform="translate(1024,1085)" d="m0 0 2 1-4 4-11 5v-3h2v-2l9-4z" fill="#753C1D"/>
<path transform="translate(1168,956)" d="m0 0 2 1-10 8-7 5-2-1 7-6z" fill="#9B4228"/>
<path transform="translate(1e3 325)" d="m0 0h12v2l2 1h-17l1-2 2 1z" fill="#FACB3C"/>
<path transform="translate(1284,860)" d="m0 0m-1 1m-1 1m-1 1m-1 1m-1 1m-1 1m-1 1m-1 1m-1 1m-2 1 2 1-6 7-4 3-2-1z" fill="#9A4128"/>
<path transform="translate(614,538)" d="m0 0 8 2h6l4 4-2 1-13-4z" fill="#411E0C"/>
<path transform="translate(924,439)" d="m0 0 1 3-3 8-3 1-2 4-1-2z" fill="#FEE043"/>
<path transform="translate(1072,315)" d="m0 0 6 5 4 6-1 2-5-5-10-1v-1h8z" fill="#CD8931"/>
<path transform="translate(582,650)" d="m0 0h1v8l-2 11-2-4v-6z" fill="#A9592E"/>
<path transform="translate(975,649)" d="m0 0h10l-2 2-8 2-5-1 1-2z" fill="#180904"/>
<path transform="translate(416,633)" d="m0 0 4 2v4h-8l-5-2v-1h10z" fill="#FFD02B"/>
<path transform="translate(1200,225)" d="m0 0h17l10 2v1h-12v-2h-15z" fill="#F1AE7C"/>
<path transform="translate(1183,186)" d="m0 0 4 2 1 4-5 1-4-4z" fill="#361709"/>
<path transform="translate(423,656)" d="m0 0h1l1 11-1 6h-1l-1-12-8 1 2-2 5-1v-2z" fill="#A7552E"/>
<path transform="translate(731,565)" d="m0 0h1v13l-3 8-1-4z" fill="#FFDB31"/>
<path transform="translate(656,505)" d="m0 0 4 2-5 2-8 4-3-1 6-5 5-1z" fill="#361709"/>
<path transform="translate(1306,492)" d="m0 0 8 1 4 6-1 2-11-7z" fill="#5D3017"/>
<path transform="translate(1066,322)" d="m0 0h10l3 2v2h-7l-6-3z" fill="#FFEA49"/>
<path transform="translate(965,277)" d="m0 0 3 1-2 4-4 3-3-1 2-4z" fill="#311206"/>
<path transform="translate(396,693)" d="m0 0h2l1 4-4 5-3-1 3-7z" fill="#110604"/>
<path transform="translate(507,658)" d="m0 0 5 1 3 1v2l9 1-4 2-10-3-3-2z" fill="#FEDE3F"/>
<path transform="translate(1214,421)" d="m0 0h5l1 1 14 2 2 2-18-2-4-1z" fill="#AE5036"/>
<path transform="translate(823,493)" d="m0 0 5 1 8 4 1 3-6-2-8-5z" fill="#FFE03D"/>
<path transform="translate(1318,266)" d="m0 0 7 6v4l-10 2 1-2 6-2-2-4z" fill="#AC5234"/>
<path transform="translate(1209,924)" d="m0 0 2 1-7 7-6 4-3-1 12-9z" fill="#9A4228"/>
<path transform="translate(534,529)" d="m0 0h2l-1 4-4 2-5-2 4-3z" fill="#46210E"/>
<path transform="translate(799,466)" d="m0 0 6 2 3 3 9 5-3 1-10-6z" fill="#E3AD61"/>
<path transform="translate(906,429)" d="m0 0 1 3-5 13-2 1 3-12z" fill="#AC5D31"/>
<path transform="translate(1050,356)" d="m0 0 3 3 1 6-7 6h-2v-2l6-4z" fill="#A7552E"/>
<path transform="translate(320,1012)" d="m0 0h1l2 15-1-2-4 1z" fill="#361709"/>
<path transform="translate(597,580)" d="m0 0 9 3 1 2-5-1h-11l2-1v-2z" fill="#DB9C32"/>
<path transform="translate(901,440)" d="m0 0 1 2-4 6-2 1-5-3-1-2 7 1z" fill="#C37B3F"/>
<path transform="translate(981,316)" d="m0 0h2l-2 4-8 7v-3z" fill="#FBD641"/>
<path transform="translate(1076,268)" d="m0 0 2 1-3 4-5 2h-5l1-2z" fill="#F7A183"/>
<path transform="translate(1275,246)" d="m0 0 9 3 8 4-1 2-5-2-11-6z" fill="#F6A482"/>
<path transform="translate(412,621)" d="m0 0 9 5 4 6-4-2-9-7z" fill="#AF6133"/>
<path transform="translate(669,589)" d="m0 0 5 2 7 3-2 2-6-1z" fill="#FFDE3C"/>
<path transform="translate(885,475)" d="m0 0h3l3 4-8 2-3-1z" fill="#ECBA75"/>
<path transform="translate(805,469)" d="m0 0h6l6 4-4 2-8-5z" fill="#AD5C32"/>
<path transform="translate(804,393)" d="m0 0h3l-1 4-5 2-2-4z" fill="#290E04"/>
<path transform="translate(1224,912)" d="m0 0 2 1-9 8-4 3-2-1 10-9z" fill="#9A4128"/>
<path transform="translate(134,763)" d="m0 0h2l-2 7h-2v5l-2-4 2-7z" fill="#5E341A"/>
<path transform="translate(974,287)" d="m0 0 3 2v3l-10 2v-2l4-1v-2z" fill="#290E04"/>
<path transform="translate(1225,210)" d="m0 0h18v3l-18-2z" fill="#361709"/>
<path transform="translate(98,874)" d="m0 0 3 3 2 6v6l-2-3-3-8z" fill="#AE5135"/>
<path transform="translate(343,714)" d="m0 0 5 2 4 3v2l-5-1v-2h-2v-2h-2z" fill="#FEE342"/>
<path transform="translate(928,862)" d="m0 0 2 1-5 5-9 2 4-3z" fill="#C15B43"/>
<path transform="translate(305,670)" d="m0 0 1 3-2 6-6 4 2-4 4-7z" fill="#FFE341"/>
<path transform="translate(432,637)" d="m0 0v3l-4 9h-1v-6l3-5z" fill="#FFD02B"/>
<path transform="translate(761,609)" d="m0 0h2l-1 4-3 4h-2l1-5z" fill="#110604"/>
<path transform="translate(707,546)" d="m0 0h1v16l-2 1-1-5z" fill="#110604"/>
<path transform="translate(777,499)" d="m0 0 10 3 3 3h-4l-9-4z" fill="#401B0C"/>
<path transform="translate(796,440)" d="m0 0 4 1 8 4v1l-8-1-2-4z" fill="#7A4825"/>
<path transform="translate(1012,379)" d="m0 0 15 1v1l-6 1h-9z" fill="#B86F37"/>
<path transform="translate(1018,365)" d="m0 0v3l-6 4-3-3 1-3 4 2 2-2z" fill="#AD612F"/>
<path transform="translate(1049,297)" d="m0 0 5 1 5 5 1 4-2-1v-2l-4-1-1-2-3-1z" fill="#B3663B"/>
<path transform="translate(1256,929)" d="m0 0 2 1-8 8v-3z" fill="#884923"/>
<path transform="translate(1184,985)" d="m0 0 2 1-3 3-2-1z" fill="#4A200F"/>
<path transform="translate(1322,872)" d="m0 0v3h-3z" fill="#AD612F"/>
<path transform="translate(1326,868)" d="m0 0v3h-3z" fill="#884723"/>
<path transform="translate(1318,876)" d="m0 0v3l-2-1z" fill="#B16632"/>
<path transform="translate(1282,907)" d="m0 0 2 1-2 1z" fill="#AD612F"/>
<path transform="translate(1186,984)" d="m0 0" fill="#361709"/>
<path transform="translate(1230,951)" d="m0 0" fill="#AD612F"/>
<path transform="translate(1232,950)" d="m0 0" fill="#C37B3F"/>
<path transform="translate(1233,949)" d="m0 0" fill="#C37B3F"/>
<path transform="translate(1258,928)" d="m0 0" fill="#AD612F"/>
</svg>
